<?xml version="1.0" encoding="utf-8"?>
<!-- Generator: Adobe Illustrator 19.0.0, SVG Export Plug-In . SVG Version: 6.00 Build 0)  -->
<svg version="1.1" id="Capa_1" xmlns="http://www.w3.org/2000/svg" xmlns:xlink="http://www.w3.org/1999/xlink" x="0px" y="0px"
	 viewBox="-22 195.9 550 450" style="enable-background:new -22 195.9 550 450;" xml:space="preserve">
<style type="text/css">
	.st0{display:none;}
	.st1{fill:#010202;}
	.st2{fill:#F9DC40;}
</style>
<g id="Capa_2" class="st0">
</g>
<g id="Capa_3" class="st0">
</g>
<g id="Capa_4" class="st0">
</g>
<g id="Capa_6" class="st0">
</g>
<g id="Capa_5">
</g>
<g id="Capa_7" class="st0">
</g>
<g id="Capa_8" class="st0">
</g>
<g id="Capa_9" class="st0">
</g>
<g id="Capa_10" class="st0">
</g>
<g>
	<path class="st1" d="M337.6,348.8l-0.1-1L336,348l0.1,1L337.6,348.8z M348.1,374.1l0,0.5l1.1-0.1c0-0.3,0.1-0.9,0.3-1.5l-0.1-1
		C349,372.1,348.6,372.7,348.1,374.1z M307.1,405.9c-0.1-0.9-2.9-4.4-8.4-10.5c-0.1-1.1,1.8-2.8,5.7-5.1l11.1-9.7
		c2.5-3.2,4-8.3,4.4-15.4l-0.1-1.6c-0.4-4.9-4-8.9-10.7-11.9c-4-2.7-11.2-4.2-21.5-4.5c-8.6,0.7-19.8,3.8-33.6,9.2
		c-3.8,2.7-8.1,5.5-13,8.2l0.1,0.8c0.3,0,0.8-0.2,1.3-0.6c0.6-0.1,0.9,0.2,0.9,0.7l0.8-0.4l0.4,0l0,0.4c0,0.4-3,2.8-9,7l0.5,0.9
		l-0.4,0l-1-0.4c0,0.3-0.4,0.5-1.2,0.6l0,0.4l1,1.2c-0.3,0-0.8-0.1-1.4-0.3c-1.4,0.1-2.8,0.9-4.1,2.3l0.6-2.5
		c2-8.7,3.4-16.5,4.2-23.2l-0.1-0.4c-1.4-0.9-2.8-2.2-4-3.8c0-1,0-1.6,0-1.8l-0.1-0.4l-0.4,0.1c-4.4,6.6-12.8,17.8-25.4,33.7
		c-9.5,11.3-14.5,17.6-14.8,18.8c-3.9,4-5.7,6.4-5.6,7.3c-1,0.7-1.5,1.3-1.3,2.1c-0.3,0.1-0.5,0-0.6-0.3c-1.7,2.7-4.1,4.4-7.4,5.2
		l-3.5,0.8c-0.5,0.1-0.7,0.4-0.7,1l0.1,0.4l1.3-0.3l0.1,0.4l-2.9,1.1l-5.2,1.2l-2.7,0.2c-0.4,0.4,2.2,0,1.2,0.2l-3.4,0.8
		c-2.1,0.5-3.2,0.3-3.4-0.5l-0.4,0.1c0.1,0.4,0.1,0.6,0,0.9l-0.2-0.8l-2.7,0.6c-0.2-1.3-3.9-5.8-11-13.8c-0.1-1.5,2.4-3.8,7.5-6.6
		l14.6-12.8c3.3-4.2,5.2-10.9,5.8-20.1l-0.2-2.2c-0.6-6.5-5.3-11.8-14.2-15.8c-5.3-3.6-14.7-5.5-28.3-5.7c-11.3,1-26.1,5-44.2,12
		c-5,3.6-10.7,7.2-17,10.8l0.1,1.1c0.4,0,1-0.3,1.7-0.7c0.7-0.1,1.1,0.3,1.2,0.9l1.1-0.6l0.6,0l0,0.5c0,0.5-3.9,3.6-11.9,9.3l0.6,1
		l-0.6,0l-1.2-0.4c0,0.3-0.5,0.6-1.7,0.7l0.1,0.6l1.3,1.5c-0.4,0-1-0.1-1.8-0.4c-2.6,0.2-5.1,2.1-7.6,5.6l0.6,1c2.2-2,3.4-3,3.8-3
		l0.1,1.6c-0.4,0-0.9,0.3-1.7,0.7l1.4,2.1c2.6-2.8,5.5-5.3,8.7-7.3c1.6,0.4,2.4,0.9,2.4,1.4l1.2-0.1c8.6-6.3,17-10.9,25.5-13.8
		l0.1,1.1c-1.6,2.3-2.6,3.5-3.2,3.6c0.1,0.8,0.3,1.5,0.8,2.1c0.1,1.4-3.7,11.1-11.4,28.9c-17.6,41.4-32.3,72.1-44.3,91.9
		c0,0.4,0.3,0.9,0.7,1.6c3-0.7,4.8-1.4,5.6-2.1l0.6-0.1l0.1,1.1l1.1-0.1l1.1-0.6c0,0.3,0.4,0.5,1.2,0.4l0.1,1.1
		c0.1,1.1-0.5,2.8-1.9,5.1c-1.2,1.4-2.5,4.2-3.9,8.6l0,0.5l1.1-0.1c4.8-5.4,8.4-10.6,10.9-15.7c14-4.1,24.6-8.1,32-12.1
		c7.4-0.6,13.1-2.6,16.9-5.8l-0.1-0.6l-2.8,0.8l-0.6,0.1l-0.1-0.6c5.5-0.8,9.2-2,11.3-3.7c10.6-8.2,18.6-14,24-17.4
		c11.1-8.2,18.4-16.2,21.7-23.9c0.6-0.1,1.2-0.3,1.9-0.4c1.6-0.1,2.4-0.1,2.7-0.2c-0.1-0.3,0.1-0.5,0.4-0.5c2.5-0.3,1.3,0.2,2.9-0.2
		l4.2-1c-0.3,0.1-0.4,0.2-0.3,0.5l0.6-0.4c-0.1,0-0.2,0-0.3-0.1l0.7-0.2l-0.3,0.2c0.5,0.1,1,0,1.5-0.1l0.3,1.2l-19,30.3l-4.2,5.3
		l-2.1,6.9l0.4-0.1l2.1-0.9l-0.7,2.7l0.2,0.8l0.6,0.7c-0.3,0.1-0.4,0.2-0.3,0.5l0.1,0.4l0.9-0.2c1.3-1.1,1.8-2.1,1.6-3
		c1.4,0.2,2.3,0.3,2.7,0.2l0.1,0.4c-0.8,0.2-1.3,0.9-1.3,2l0.1,0.4l0.5-0.1c6.9-7.5,23.9-33.4,37.5-50.9c-0.4-1.9,6.6-4.5,21.3-7.9
		l0.5-0.1c0.5,2.3-0.6,7.8-3.4,16.7c-1.8,5.3-2.7,8.2-2.5,8.7c-2.3,7.1-3.4,10.9-3.3,11.5l-5.2,17c-3.4,8.7-5.9,17.8-7.7,27.5
		c0.3-0.1,0.8,0,1.4,0.1l0.7-0.6c0.1,0.3,0.3,0.4,0.6,0.3l-0.3-1.2l2.3-0.1c0.7-0.2,1.2-1,1.7-2.5c-0.1-2.3,0.4-3.5,1.4-3.8
		c1.4-5.5,2.3-8.2,2.6-8.3c1.3-5.4,2.3-8.5,2.9-9.3c2-7,3.4-10.7,4.3-10.9l0.2,0.9l-1.4,3.7c-2.5,11.1-5,19.8-7.6,26.2l0.7,3.2
		l0.5-0.1c6.2-13.3,15.1-39.6,26.7-79c0.3-3.5,2-6.1,5-8l-0.7-0.7l-0.1-0.4c1.3-0.3,2.3-0.8,2.8-1.6c-0.1-0.3-1.2-0.7-3.5-1.3
		l5.8-24.8c1.3-1.1,2-1.7,2.2-1.7l0.1,1.3c-0.3,0-0.8,0.2-1.3,0.6l1.1,1.6c2-2.2,4.2-4,6.5-5.6c1.2,0.3,1.8,0.7,1.9,1.1l0.9-0.1
		c6.6-4.8,13-8.3,19.4-10.4l0.1,0.8c-1.2,1.8-2,2.7-2.4,2.7c0.1,0.6,0.2,1.1,0.5,1.6c0.1,1.1-2.8,8.4-8.6,22
		c-13.4,31.4-24.6,54.6-33.7,69.7c0,0.3,0.2,0.7,0.6,1.2c2.2-0.5,3.7-1.1,4.2-1.6l0.4,0l0.1,0.8l0.9-0.1l0.8-0.4
		c0,0.2,0.3,0.3,0.9,0.3l0.1,0.9c0.1,0.8-0.4,2.1-1.4,3.8c-1,1-2,3.2-3,6.5l0,0.4l0.9-0.1c3.6-4.1,6.4-8,8.3-12
		c10.6-3.1,18.7-6.1,24.3-9.1c5.7-0.5,10-2,12.9-4.4l0-0.4l-2.2,0.6l-0.5,0l0-0.4c4.1-0.6,7-1.5,8.6-2.8c8-6.2,14.1-10.6,18.2-13.2
		C301.9,423.5,307.9,414.5,307.1,405.9L307.1,405.9z M304.9,406.4l0.3,3.4c-0.4,0.8-0.8,1.3-1.2,1.3l-0.5-5.7
		C304.5,405.7,304.9,406.1,304.9,406.4z M53.3,379.4l-0.6,0l-0.1-1l2.3-0.2l0,0.5C54.6,378.8,54,379,53.3,379.4z M42.1,491.4
		c-1.3-0.6-2.5-0.8-3.6-0.7l-0.1-1.6c-0.1-0.6,0.3-1.1,1.1-1.2c0.7-0.1,1.2,0.5,1.2,1.5c1.9-2.4,3-3.6,3.2-3.6l1.2,0.5
		C44.8,489.6,43.7,491.3,42.1,491.4L42.1,491.4z M161.8,366.2c-0.6,0.1-1.7-1.7-3.3-5.2l-0.1-1c1.1-0.1,2.2,1.6,3.3,5.2L161.8,366.2
		z M160.2,353.8l-0.5,1.1l-16.3-6.8C154.3,348.5,159.9,350.4,160.2,353.8L160.2,353.8z M91.5,412.8l-2.3,0.2l-0.1-1l2.3-0.2
		L91.5,412.8z M89.7,377.4l0.6,0l0.1,1.6c-0.5,0-1.2,0.8-2.1,2.4l-0.1-1.1C89.2,379,89.8,378,89.7,377.4L89.7,377.4z M84.9,388.7
		l0.2,2.2l-0.6,0l-0.2-2.2L84.9,388.7z M82.3,392.8l1.1-0.1c-0.1,1.8-0.6,2.8-1.5,2.8l-0.6,0C82.1,394.4,82.4,393.4,82.3,392.8
		L82.3,392.8z M80.4,398.4l0.6-0.1l0,0.5l-1,1.7l-1.1,0.1l0-0.5C80,400.1,80.5,399.5,80.4,398.4z M78.6,403.5l-0.3,2.7l-0.6,0
		l-0.2-2.7L78.6,403.5L78.6,403.5z M59.9,456.5c-0.7,3.7-1.5,5.6-2.4,5.7l0-0.5C57.3,459.9,58.1,458.1,59.9,456.5L59.9,456.5z
		 M56.5,463.9l0,0.5c0.1,0.7-0.3,1.2-1,1.2l0-0.5C55.5,464.5,55.8,464.1,56.5,463.9z M55.5,479.3l1.7-0.2l0.1,0.6
		c-0.4,0-1,0.3-1.7,0.7l-1.1,0.1C54.5,480,54.8,479.5,55.5,479.3L55.5,479.3z M104.7,464.1c-9.7,4.8-15.4,8-17.1,9.7
		c-10.5,3.7-15.7,5.9-15.6,6.8c-9.3,3.7-15.5,6.4-18.4,8.1c-0.7,0.1-1.7-0.2-3-0.8c-0.2-1.9,0.7-3.4,2.5-4.7
		c1.6-0.1,3.2,0.1,4.7,0.7c1.7-0.9,4.8-1.9,9-3l-0.1-1.1l-3.5,0.3c0.4-0.6,3.8-2.2,10-4.7l1.7-0.2l0,0.5c-3,0.3-4.6,1.1-5,2.7
		c0.1,0.7,0.5,1,1.2,0.9c2.2-1.4,3.3-2.2,3.3-2.5c4.2-0.8,15.9-6.9,35-18.3l0.1,1C109.6,460.4,108,461.8,104.7,464.1L104.7,464.1z
		 M75.4,473.8c2.8-0.2,5.2-1.4,7.2-3.3c0.8-0.1,1.2,0.2,1.3,0.9c-1.4,0.1-4,1.3-7.8,3.5l-0.6,0L75.4,473.8L75.4,473.8z M122.7,437.5
		L108,449.1c-10.9,7.1-16.8,10.7-17.6,10.8c-17.3,9.5-28.1,14.5-32.3,14.9l-0.6,0.1c0.5-2,8.2-17.7,23.2-47.5
		c6.6-0.6,16.9-3.6,31.1-9.2l3.5-0.3c7.1-0.6,12.5,0.8,16,4.1l0.2,2.2C128.8,431.7,125.8,436.2,122.7,437.5L122.7,437.5z M94,421.3
		l2.4-0.2l0,0.5l-2.4,0.2L94,421.3z M127.2,415.7l1.7-0.2c1.6,0.8,2.4,1.4,2.5,2l0,0.5C129.9,418.2,128.5,417.5,127.2,415.7
		L127.2,415.7z M131.9,389c-1.5,1.8-5.7,5-12.6,9.3c-2.3,0.2-10.7,3.5-25.2,9.8c-0.7-0.3-1.5-0.5-2.3-0.4l-0.1-1
		c-0.2-2.1,0.8-4.7,2.8-7.9c1.1-6,2.4-9.4,3.7-10.2l12.1-27.3c-0.1-1.7,2.5-3,7.8-3.9l1.7-0.2l0.1,1.6c5.2-0.8,8.5-1.3,9.7-1.4
		c9.6-0.8,14.7,1.1,15.1,5.8l1.1-0.1l-0.2-2.8l1.2-0.1c2.8,1.6,4.4,3.5,4.6,5.7c0.1,1.5-0.7,3.4-2.5,5.7c-0.7,0.1-1.2-0.5-1.2-1.5
		l-1.2,0.1l-0.3,3.3c-4.9,7.3-8.4,11.1-10.6,11.3C133.6,387.6,132.4,389,131.9,389z M139.3,408.1c-1-0.7-1.8-1-2.4-0.9l-0.1-1.6
		l1.1-0.1l2.4,1.4C140.4,407.7,140.1,408.1,139.3,408.1L139.3,408.1z M147,417.3c1.1,0.4,1.7,0.9,1.8,1.3l-0.5,0.1l0,0
		c-0.1,0-0.2,0-0.3,0.1l-0.8,0.6L147,417.3z M147.7,421.9l-0.1-0.4l1.4-0.3l0.1,0.4L147.7,421.9z M151.1,425.6
		c1.4-0.2,2.1-0.3,4.8-0.9l0.1,0.4l-5.1,1.2C151,426.1,151.1,425.8,151.1,425.6L151.1,425.6z M156,427.7c-2.1,0.2-1.7-0.1-5.1,0.7
		l-0.1-0.4l4.2-1.4l2-0.5l0.2,0.8C156.4,427.2,157.1,427.2,156,427.7L156,427.7z M160.5,426.7c-0.5,0.1-0.9-0.1-1.1-0.7l1.3-0.3
		c0.6-0.1,0.9,0.1,1.1,0.7L160.5,426.7z M172.7,413.6l-0.1-0.4l2.1-0.5l0.2,0.8L172.7,413.6z M185.7,493.3c0.1-0.6,0.2-1,0.1-1.3
		l0.5-0.1c0.6-0.1,0.9,0.1,1,0.6l0.1,0.4L185.7,493.3z M194.8,417l-0.9-0.2c-1.5,0.6-2.8,1-3.8,1.3l-0.9,0.2
		c-0.5,0.1-0.9-0.1-1.1-0.6l6.1-1.4l2-0.9l0.7,0.8C195.9,416.3,195.2,416.6,194.8,417z M199.5,415.5l-0.1-0.4
		c0.3-0.1,0.7-0.3,1.1-0.7l4.3-1l0.1,0.4C202.6,414.3,200.8,414.9,199.5,415.5z M200.1,406.7c-0.3,0.1-0.7,0.3-1.2,0.7
		c-0.1-0.3-0.7-0.3-1.8,0c-0.2-0.8,3-2,9.6-3.5l0.9-0.2l0.2,0.8C203.2,405.9,200.6,406.6,200.1,406.7z M211.8,394.2
		c-0.5,5.3-2.3,8.3-5.6,9l-0.1-0.4l-2.9,1.1l-1.3,0.3c-0.7,0.2-1.3,0.1-1.8,0l-0.3-1.2c-0.1-0.4,4.1-6.3,12.7-17.5l1,0.2
		C213.8,387.2,213.3,390,211.8,394.2z M232.3,376.6l-0.4,0l-0.1-0.8l1.7-0.2l0,0.4C233.3,376.1,232.9,376.3,232.3,376.6L232.3,376.6
		z M223.9,461.7c-1-0.5-1.9-0.7-2.7-0.6l-0.1-1.3c0-0.4,0.2-0.7,0.8-0.9c0.6-0.1,0.9,0.3,1,1.2c1.4-1.8,2.2-2.8,2.4-2.8l0.9,0.4
		C225.8,460.3,225.1,461.6,223.9,461.7L223.9,461.7z M314.7,366.6c-0.4,0-1.3-1.3-2.6-4l-0.1-0.8c0.8-0.1,1.7,1.2,2.6,3.9
		L314.7,366.6z M313.5,357.1l-0.4,0.9l-12.3-5.2C309,353.1,313.3,354.5,313.5,357.1z M261.4,401.9l-1.7,0.2l-0.1-0.8l1.7-0.1
		L261.4,401.9z M259.9,375l0.5,0l0.1,1.3c-0.4,0-1,0.6-1.6,1.8l-0.1-0.8C259.6,376.2,260,375.5,259.9,375L259.9,375z M256.3,383.7
		l0.1,1.6l-0.5,0l-0.1-1.6L256.3,383.7z M254.4,386.7l0.9-0.1c-0.1,1.4-0.5,2.1-1.1,2.2l-0.5,0C254.2,388,254.4,387.2,254.4,386.7
		L254.4,386.7z M253,391l0.4,0l0,0.4l-0.8,1.3l-0.9,0.1l0-0.4C252.6,392.3,253,391.8,253,391L253,391z M251.6,394.9l-0.3,2.1l-0.4,0
		l-0.2-2.1L251.6,394.9L251.6,394.9z M237.4,435.2c-0.6,2.8-1.2,4.2-1.8,4.3l0-0.4C235.5,437.7,236.1,436.4,237.4,435.2z
		 M234.8,440.8l0,0.4c0.1,0.6-0.2,0.9-0.8,1l0-0.4C233.9,441.2,234.2,440.9,234.8,440.8z M234,452.5l1.3-0.1l0,0.4
		c-0.3,0-0.8,0.2-1.3,0.5l-0.9,0.1C233.2,452.9,233.5,452.6,234,452.5z M271.3,440.9c-7.3,3.6-11.7,6.1-13,7.3
		c-8,2.8-11.9,4.5-11.9,5.2c-7.1,2.8-11.7,4.9-13.9,6.1c-0.5,0-1.3-0.2-2.3-0.6c-0.1-1.4,0.5-2.6,1.9-3.5c1.3-0.1,2.5,0.1,3.6,0.5
		c1.3-0.7,3.6-1.4,6.9-2.2l-0.1-0.8l-2.7,0.2c0.3-0.5,2.9-1.7,7.6-3.6l1.3-0.1l0,0.4c-2.3,0.2-3.5,0.9-3.8,2.1
		c0,0.5,0.4,0.8,0.9,0.7c1.7-1.1,2.5-1.7,2.5-1.9c3.2-0.6,12-5.2,26.6-13.9l0.1,0.8C275.1,438.1,273.8,439.1,271.3,440.9
		L271.3,440.9z M249.1,448.3c2.2-0.2,4-1,5.5-2.5c0.6-0.1,0.9,0.2,0.9,0.7c-1,0.1-3,0.9-5.9,2.5l-0.5,0L249.1,448.3L249.1,448.3z
		 M285,420.6l-11.1,8.9c-8.3,5.4-12.8,8.1-13.5,8.2c-13.2,7.2-21.3,11-24.6,11.3l-0.5,0c0.4-1.5,6.3-13.5,17.6-36
		c5-0.4,12.8-2.8,23.6-7l2.7-0.2c5.4-0.5,9.5,0.6,12.1,3.2l0.1,1.6C289.6,416.3,287.4,419.6,285,420.6L285,420.6z M263.3,408.4
		l1.7-0.2l0,0.4l-1.7,0.2L263.3,408.4z M288.5,404.1l1.3-0.1c1.2,0.6,1.9,1.1,1.9,1.6l0,0.4C290.6,406.1,289.5,405.5,288.5,404.1
		L288.5,404.1z M292,383.9c-1.2,1.4-4.3,3.8-9.5,7.1c-1.7,0.2-8.1,2.6-19.1,7.4c-0.5-0.2-1.1-0.3-1.8-0.2l-0.1-0.8
		c-0.1-1.6,0.6-3.6,2.1-6c0.9-4.6,1.8-7.1,2.8-7.7l9.3-20.7c-0.1-1.2,1.9-2.2,5.8-3l1.3-0.1l0.1,1.3c3.9-0.6,6.4-1,7.4-1.1
		c7.3-0.6,11.1,0.8,11.4,4.4l0.9-0.1l-0.2-2l0.9-0.1c2.1,1.2,3.3,2.6,3.4,4.2c0.1,1.2-0.5,2.7-1.8,4.4c-0.6,0.1-0.9-0.3-1-1.2
		l-0.9,0.1l-0.3,2.5c-3.7,5.6-6.4,8.5-8.1,8.6C293.3,382.8,292.4,383.8,292,383.9L292,383.9z M295.8,397.7l-0.1-1.3l0.9-0.1l1.9,1.1
		c0,0.5-0.2,0.8-0.8,0.9C296.9,397.9,296.3,397.7,295.8,397.7L295.8,397.7z M141.1,478.4l-0.9,0.2l-0.7,0.6c0.1,0.5,0.5,0.7,1,0.6
		c0.6-0.1,0.8-0.5,0.7-1L141.1,478.4z M137.8,471.9l0.1,0.4c0.6-0.1,0.8-0.5,0.7-1l-0.1-0.4C138,471,137.7,471.4,137.8,471.9z
		 M161.2,416.2l1-0.2l-0.2-0.9l-1,0.2L161.2,416.2z M462.8,441.5c-10.1,2.3-11.4,1.9-13.5,2l0.1,0.8l0.9-0.1l0.5,0l-0.1-0.1l1.1-0.4
		c10-1.1,11.2-0.7,11.1-1.8L462.8,441.5L462.8,441.5z M408.4,448.8l0.1,0.8h0.1l-0.1-0.8H408.4z M402.2,426.9l-0.9-0.3
		c-0.7,2-1.1,3.1-1.1,3.5l0,0.4C400.9,430.3,401.6,429.1,402.2,426.9L402.2,426.9z M464.9,441.4l0.1,0.8l1.5,0.3l-0.1-0.8
		L464.9,441.4z M396.1,449.8l-2.3-0.3l-0.4,0.9l0,0.4l13.5-1.1l-0.1-0.8L396.1,449.8z M390,420.3l0-0.4l-0.5,0l-0.8,0.5l0.5,0.8
		C389.8,421.2,390.1,420.9,390,420.3L390,420.3z M471.3,435.3l0.6-0.1c0.4,0,0.5-0.3,0.5-0.9l-0.4-0.8c-2.3,0.2-3.4,0.3-5.2,1.3
		l0-0.4l-2.8,0.3c-0.1-0.8-0.3-1.3-0.7-1.2l-1.4,0.1c-1.7,0.1-2.5,0.1-3.3,0.7c0-0.3-0.1-0.4-0.3-0.4l-1.6,0.1l-0.9,0.5
		c0-0.3-0.1-0.4-0.3-0.4l-0.6,0.5l0-0.4l-2.2-0.2l-0.5,0l0.1,0.8l1.1,0.3l1.1-0.1c0.4,0.2,0.8,0.3,1.2,0.3l0.9-0.5l0,0.4
		c-5.2,1.3-5.2,1.1-8.8,1.7c-0.4-0.3-0.7-0.4-0.9-0.4l-0.1,0.1c-0.4,0-0.6-0.3-0.7-0.7l1.9-0.2c0.1,0,0.2,0.1,1.3,0.3
		c1.5-0.7,1.6-1,2.4-1.1l-0.1-0.8c-5.1,1-3.1,0.3-9.5,0.9l-0.3,0l-0.1-0.8c8.2-1,5.5-0.4,8.3-1.2c0,0.3,0.1,0.4,0.3,0.4
		c0.3-0.3,0.7-0.5,1.1-0.6l0.6,0c2.9-0.2,3.9,0.3,9.6-1.3l0,0.4l0.9-0.5l0.9-0.1c-0.1-0.8,1.2-1,1.6-1l-0.1-0.9
		c-10,2-12.7,1.5-15.5,2.3l0-0.4c-2.6,0.5-2.7,0.3-3.4,0.3c-0.2,0-0.5,0.2-0.8,0.5c0-0.3-0.1-0.4-0.3-0.4c-0.1,0-0.1,0-0.2,0
		l-8.5,1.4c0-0.2-0.1-0.4-0.3-0.3c-4.4,0.9-3.2,1.1-9.1,1.6c-0.3,0-0.6,0.2-1.1,0.5c0-0.2-0.2-0.4-0.5-0.3l-3.6,0.3l-2.4,0.6
		c0-0.2-0.2-0.4-0.5-0.3c-1.4,0.4-2.6,0.6-3.5,0.7h-0.1c-0.6,0.1,0.3-0.2-0.2-0.4l-0.7,0.4c-1.1,0.1-0.5-0.1-4.2,0
		c-6.4,0.8-5.7,0.9-6.4,0.9l-2.4-0.2c0,0.2-0.1,0.4-0.4,0.4c-2.7-0.4-4.1-0.8-4.2-1.3c0.4-2.6,1-3.9,1.9-4l0.5,0l-0.4,0.9l0.5,0
		c0.9-0.5,1.3-0.9,1.2-1.3l-0.1-0.9l-0.9,0.1l-0.1-0.8c-0.1-0.6,0-1.2,0.3-1.7l2-3.2l0.1,0.8l0.9-0.1l-0.1-0.8l-0.5-0.8
		c0.7-0.6,1.2-0.9,1.7-1l0-0.4l-1.3,0.1l-0.1-1.3c2.5-5.3,3.7-8.3,3.7-9.2l0.9,0.4c0.6,0,0.8-0.4,0.8-1l-0.9,0.1l0-0.4
		c-0.1-0.6,0.1-1.2,0.3-1.8c1.4-1.4,2-2.9,1.9-4.4c0.3,0,0.4,0.1,0.4,0.4c1.2-0.7,2.1-2.4,2.7-5.4c2.1-3.7,5-11.2,8.8-22.3
		c7.3-19.7,7-21.8,8-26.4l-0.9,0.1c0.1,0.6-0.1,1.2-0.3,1.7c-0.6-0.2-1.1-0.4-1.4-0.3l0-0.4c-0.1-1.7,0.6-3.7,2.2-6.1l0.4,0l0.7,2.9
		l0.9-0.1c0-0.2,0.2-1.3,0.7-3.4c0-0.4-0.4-0.7-1-0.7l-0.8,0.5c-0.1-0.6,0-2.2,0.1-4.7l-0.4,0c-0.7-0.7-1.1-1.3-1.1-1.8l-4.8,0.5
		c0-0.3-0.2-0.8-0.5-1.5c0-0.4,1-0.9,3.2-1.3l1,0.4l0.9-0.5c0,0.3,0.2,0.4,0.5,0.4l0.9-0.5c0,0.3,0.2,0.4,0.5,0.4l0.4,0l-0.1-1
		c-0.7,0.1-2.4,0.1-5.2,0l-0.9,0.6l0-0.5c-22.3,1.8-35,2.9-38,3.2c-0.4,0-2,0-4.7-0.1c0,0.4-0.3,0.6-1,0.6l-1-0.4l-3.3,0.8
		c-0.8,0.1-2.1,0-3.9-0.2c-0.5,0.4-1.1,0.6-1.8,0.7c-0.4,0,4.8-0.3,9.5-0.6c-0.5,0.4-1.3,0.6-2.3,0.7c-0.7,0.1-1.4,0-1.9-0.3
		c-0.7,0.3-3.1,0.9-7,1.7l-1-0.4l-15.6,2.4c-0.6-0.3-1.3-0.4-2.1-0.3c-0.8,0.1-2.2,0.4-4.2,0.9l-7.5,3.1l0.6,0.9
		c0.4,0,0.9-0.2,1.5-0.6l2.7,0.2l-0.3,2.5c-2.5,1.1-3.9,2.7-4.3,4.8c-3.7,1.6-5.5,2.8-5.5,3.5l0,0.4l0.6,0l1-0.5l1.2,1.4l0.2,1.9
		c0.1,0.6-6.1,13.7-18.6,39.2c-10.8,24.6-16.4,38.1-16.9,40.5c-3.7,1-5.8,2.5-6.4,4.5c0.1,0.6,1.2,1.1,3.3,1.2l0.1,1l-1,1.6l0.2,1.9
		c0.1,1,2.8,1.8,8.1,2.3c0-0.3,0.1-0.5,0.5-0.6c0.1,1.2-0.2,3.5-1,7l0.6,0c2.2-3,3.2-5.1,3.1-6.2l0.5,0c0.5,0,1.1,0.6,1.8,1.9
		c-0.7,0.3-3,5.6-7,15.9l0.6,0.9l0.6,0c4.9-12.4,7.9-19.2,9.2-20.5c6.4-0.6,17.5-1.7,33.3-3.4l1-0.6c0,0.3,0.2,0.5,0.6,0.5l1-0.1
		l1-0.6c0,0.3,0.2,0.5,0.6,0.5l11.9-1c3.2-0.3,4.7-1.2,4.5-2.9c0-0.4,1.8-0.9,5.6-1.5c0.4,0,0.9,0.1,1.6,0.3c0-0.3,1.9-0.6,5.6-0.9
		c0.1-2,0.7-3.1,1.9-3.2l-0.1-1c-1.1,0.1-2.3,0.4-3.7,0.8c-2.5-0.1-4.1-0.3-4.8-0.6c-0.7,0.4-1.2,0.6-1.5,0.6l-8.3,0.3l-1,0.5
		c0-0.3-0.2-0.4-0.6-0.4l-0.5,0l-1.1,0.5c0-0.3-0.9-0.5-2.6-0.8l-1.1,0.6l-2.1,0.2l0-0.5c10.7-1.2,16-2.6,15.9-4.4
		c0.7-0.1,1.1,0.3,1.1,1l3.1-0.8l-0.1-1l-25.6,0.7c0,0.3-0.1,0.5-0.5,0.6l-3.1-0.3c-0.8,0.1-1.5,0.3-2,0.7l-1.2-0.4
		c-3.2,0.3-5.6,0.7-7.2,1.2c-2.2-0.2-4.6-0.1-7.3,0.1l-5.7,0.5l-2.7-0.3c-0.1-1.7,3.2-10,9.9-25c2-5.1,3.8-8.2,5.5-9.4
		c0.4,0,0.9,0.1,1.6,0.4l4.1-1.4l2.1,0.3c3.5-0.3,7.6-1.3,12.3-3c1.2-0.1,2,0,2.7,0.2l3.1-0.7l9.3-0.8c4-0.3,8.2-1.2,12.9-2.6
		l-0.1-1c-1.7,0.2-2.6-0.1-2.7-0.8c-0.1-1.3-1.4-1.8-3.8-1.6l-0.1-1l2.6-0.7l6.7-0.6l-0.1-1c-0.3,0-1.6,0-4.2-0.1l-0.1-1l2.6-0.2
		c0.7-0.1,1-0.4,0.9-1.1c-3.5,0.1-5.3-0.1-5.3-0.5c-24.3,1.2-36.5,1.4-36.6,0.7c-0.4,0-0.9,0.3-1.5,0.7l-0.6-1
		c6.4-13.7,10.2-20.6,11.3-20.7c0,0.5-0.2,1.4-0.8,2.6l0,0.4l1-0.1c2.6-6.1,4.7-9.3,6.5-9.4c7.6-0.7-1.1-1.2,15.3-3.7
		c0.7,0.3,1.1,0.4,1.5,0.4c6.4-1.3,15.4-2.7,26.8-4.1l-0.1-1l-6.1,0.6l-0.1-1c0.7-0.1,1.3-0.3,1.8-0.7l0,0.5c0.3,0,0.8-0.3,1.4-0.7
		c1.1-0.1,1.9,0,2.4,0.3c2.1-0.6,3.9-0.9,5.1-1l3.8-0.4c0.9-0.6,1.4-1.1,1.3-1.6l0-0.4c-1,0.1-2.1,0-3.4-0.2c0-0.5,0.2-0.9,0.9-1.1
		l7.1-0.7l3.3-0.8c0,0.4,0.2,0.5,0.5,0.5c0.3,0,0.8-0.3,1.4-0.7c0.2,0,0.4,0,0.5,0.1c-0.4,0.9-0.9,2.2-1.4,3.9l-0.9,0.1
		c-0.1-0.6-0.2-1.2-0.5-1.7l-0.5,0c-8.6,24.1-12.5,35.3-20.5,53.7c-1.5,4.7-2.7,7.3-3.8,7.9c0,0.5,0.4,0.8,0.9,0.7
		c0.2,2.3-0.3,4.6-1.6,6.9c-3.7,10.6-6.1,16.5-7.4,17.5l0.8,5c0,0.5-0.2,0.8-0.8,0.9l-0.9,0.1c-0.1-1.4-0.6-2.1-1.5-2l-0.5,0
		c-1.1,1.8-2,3.8-2.6,6.1l0.9-0.1c1.2-0.8,1.7-1.7,1.6-2.7l1.7-0.2l1,0.4c-0.8,1.3-1.2,2.3-1.1,3l0.5,0.8l-1.1,2.7l0,0.4
		c1-0.1,2.1,0.2,3.3,0.9c0.8-0.1,1.7-0.4,2.6-1.1c1-0.1,4.7-0.1,11.1-0.1l3.2-1.1c3.9,0,4.6,0.1,7.9-0.2l1.4-0.1l0.7-0.5l0,0.4
		c3.6-0.3,3.8-0.1,6.6,0.3l0,0.4l-2,0.2l0.1,0.8c0.6-0.1,1.1-0.2,1.6-0.6c0.5,0,0.8,0.2,0.8,0.8c-0.8,0.1-1.7,0.3-2.7,0.6l-0.9-0.3
		c-1.4,0.4-1.1,0.5-2,0.5l-1.4-0.3c0,0.2-0.1,0.4-0.3,0.4c0,0.5,0.3,0.8,0.8,0.8l1.4-0.1l7.3-0.6l2.8-0.6c0,0.2,0.1,0.4,0.4,0.3
		l1.3-0.5l2.5-0.2c1.9-0.2,1.9-0.3,6.1-1c0-0.3,0.1-0.4,0.3-0.4l0,0.4c6.8-1.2,7.2-1.2,8.3-1.6l0.1,0.2c1.7-0.4,0.7-0.3,1.2-0.6
		c0,0.3,0.1,0.4,0.3,0.4l1.2-0.1l-0.1-0.9l-2.4,0l0-0.1c-0.1,0-0.2,0-0.3,0.1h-0.3v0.1c-1.6,0.3-1.7,0.1-2.7,0.2l-6.1,0.3l0-0.4
		l3.4-0.5l1.2-0.1l0.7-0.5l0,0.4c4.8-0.4,6.5,0.8,28.6-3.9c1.2-0.1,1.1-1.1,1.9-3.2c-0.4,0-0.8-0.1-1.2-0.3
		c-1.8,0.7-2.8,0.4-6.3,0.9c-0.3,0-0.5-0.2-0.6-0.8l0-0.4l3.4,0.1c0.6-0.1,1.9-0.2,3.7-1.2C471.5,435.1,470.9,435.3,471.3,435.3
		L471.3,435.3z M307.6,437.9L306,438c-0.1-0.6,0.8-3,2.5-7.1l1-0.1C309.6,431.8,309,434.1,307.6,437.9L307.6,437.9z M309.5,430.3
		l0-0.4c0-0.5,0.3-0.9,1-1.1l0,0.4C310.6,429.9,310.2,430.2,309.5,430.3z M330.3,446.4l0,0.4l-2.6,0.2l0-0.4L330.3,446.4z
		 M327.1,446.1c0,0.5-0.8,1.1-2.5,1.7l-3.2-0.2l-1,0.1l-0.1-1L327.1,446.1L327.1,446.1z M348.2,349.4l-1.6,0.1l0-0.5
		c0-0.5,0.3-0.9,0.9-1.1l0.6,0l1.1,0.4C349.2,349,348.9,349.4,348.2,349.4L348.2,349.4z M371.9,344.8l0.5,0l0.1,1l-1.4,0.1
		C371,345.3,371.3,344.9,371.9,344.8L371.9,344.8z M365.9,346.9l-2.4-0.3l0-0.4c3.1-0.3,4.1-0.6,6-1.1c0,0.4,0.4,0.5,1,0.4l0.1,1
		l-0.9,0.1c-0.7,0.1-1.4,0-1.9-0.3C367.2,346.6,366.6,346.8,365.9,346.9z M368.9,355.5l0-0.4l3.8-0.4l0,0.4L368.9,355.5z M373,352.1
		l0-0.5l1.9-0.2l0,0.5L373,352.1z M373.4,345.6l-0.5,0l0.4-1l4.3-0.4l0,0.5C376.5,344.9,375.1,345.2,373.4,345.6L373.4,345.6z
		 M375.6,354.8l-0.1-1l1.9-0.2c0.6-0.1,1,0.2,1,0.9L375.6,354.8z M386.8,339.4l-2.4,0.7l-0.4,0c-1.1,0.1-2.6,0.1-4.3-0.1
		C382.8,339.8,385.7,339.6,386.8,339.4z M384.3,350.1l0,0.4l-3.3,0.3l0-0.4L384.3,350.1z M389.7,352.6c0-0.4-0.7-0.7-2-0.8l-3.3,0.9
		l-2.5,0.1c-0.6-0.4-0.9-0.7-0.9-0.9l2.9,0.2l6.6-1.1l3.4,0.1l0,0.5C392.2,351.9,390.8,352.2,389.7,352.6L389.7,352.6z M423.5,343.9
		c0.4,0,0.7,0,0.8,0c1.2-1.1,2.5-2,4-2.7c-1.2,5.3-3.1,9.1-5.6,11.7l-1.9-1.1C422.3,347.9,423.3,345.2,423.5,343.9L423.5,343.9z
		 M417.8,353.7l0.5,0c-0.6,1.2-1.2,1.8-1.7,1.9l-0.1-1.3C416.8,354.3,417.2,354.1,417.8,353.7z M414.1,362.5
		c0.9-3.6,1.8-5.6,2.6-6.1l0,0.4c-0.5,3.3-1.2,5.1-2.2,5.2l0.2,2.1c-0.8,1.1-1.2,2-1.1,2.7l-0.5,0l-0.3-2.9
		C413.4,363.8,413.8,363.4,414.1,362.5L414.1,362.5z M412.7,367.3c0,0.5-0.3,1.7-1,3.5l-0.5,0l-0.1-1.3
		C411.8,368.1,412.3,367.3,412.7,367.3L412.7,367.3z M385.9,445.1l0-0.4l0.9-0.1l0.1,1.3C386.3,446,386,445.7,385.9,445.1
		L385.9,445.1z M424.2,446.1c0-0.3-0.2-0.4-0.5-0.4l-2.2,0.2l0-0.4h0.2l5.1-0.4l0,0.4C425.4,445.6,424.5,445.8,424.2,446.1z
		 M421.6,445.1c0.2,0.1,0.1,0.2,0,0.3C421.5,445.3,421.4,445.2,421.6,445.1z M421.9,439.1l-2.9,0.2l0-0.4l2.6-0.2l2.3-0.6
		c0,0.3,0.2,0.4,0.5,0.3c2.7-0.5,2.4-0.6,3.7-0.7c0.4,0,0.7,0.2,0.7,0.8L421.9,439.1L421.9,439.1z M431.9,438.2
		c-1.6-0.2-1.7-0.3-2.8-0.2l0-0.4l2.6-0.2l0,0.4C431.4,437.8,432.3,437.9,431.9,438.2L431.9,438.2z M432.1,437.8l0-0.4l1.4-0.1
		l0,0.4L432.1,437.8z M435.2,437.5l0-0.4c0.2,0,0.6-0.2,1-0.5c0.7-0.1,1.1,0.4,1.1,0.9L435.2,437.5L435.2,437.5z M439.2,437l0-0.4
		l1.7-0.1l0,0.4L439.2,437z M441.5,436.8c0-0.5,0.2-0.8,0.6-0.9l0.6,0.7c0-0.2,0.1-0.4,0.3-0.4l0.4,0.8L441.5,436.8L441.5,436.8z
		 M416.4,447.6l-0.1-0.8l-0.3,0l0.1,0.8L416.4,447.6z M474.8,432.5c0.3-0.2,0.4-0.3-0.2-0.4c-0.3,0.3,0.3,0.4-0.3,0.5l0,0.3
		c0.1-0.1,0.2-0.2,0.4-0.3l-0.4,0.3v0l-0.7,0.9l1.4-0.5h0.2l-0.1-0.8L474.8,432.5L474.8,432.5z M477.2,434.4l-0.3,0l0.1,0.8l2-0.2
		C479,434.6,477.7,434.4,477.2,434.4L477.2,434.4z M474.2,432.9L474.2,432.9L474.2,432.9C474.2,432.9,474.2,432.9,474.2,432.9z"/>
	<path class="st2" d="M346.6,371.4l0,0.5l1.1-0.1c0-0.3,0.1-0.9,0.3-1.5l-0.1-1C347.5,369.4,347.1,370.1,346.6,371.4z M336.1,346.2
		l-0.1-1l-1.6,0.1l0.1,1L336.1,346.2z M305.6,403.2c-0.1-0.9-2.9-4.4-8.4-10.5c-0.1-1.1,1.8-2.8,5.7-5.1l11.1-9.7
		c2.5-3.2,4-8.3,4.4-15.4l-0.1-1.6c-0.4-4.9-4-8.9-10.7-11.9c-4-2.7-11.2-4.2-21.5-4.5c-8.6,0.7-19.8,3.8-33.6,9.2
		c-3.8,2.7-8.1,5.5-13,8.2l0.1,0.8c0.3,0,0.8-0.2,1.3-0.6c0.6-0.1,0.9,0.2,0.9,0.7l0.8-0.4l0.4,0l0,0.4c0,0.4-3,2.8-9,7l0.5,0.9
		l-0.4,0l-1-0.4c0,0.3-0.4,0.5-1.2,0.6l0,0.4l1,1.2c-0.3,0-0.8-0.1-1.4-0.3c-1.4,0.1-2.8,0.9-4.1,2.3l0.6-2.5
		c2-8.7,3.4-16.5,4.2-23.2l-0.1-0.4c-1.4-0.9-2.8-2.2-4-3.8c0-1,0-1.6,0-1.8l-0.1-0.4l-0.4,0.1c-4.4,6.6-12.8,17.8-25.4,33.7
		c-9.5,11.3-14.5,17.6-14.8,18.8c-3.9,4-5.7,6.4-5.6,7.3c-1,0.7-1.5,1.3-1.3,2.1c-0.3,0.1-0.5,0-0.6-0.3c-1.7,2.7-4.1,4.4-7.4,5.2
		l-3.5,0.8c-0.5,0.1-0.7,0.4-0.7,1l0.1,0.4l1.3-0.3l0.1,0.4l-2.9,1.1l-5.2,1.2l-2.7,0.2c-0.4,0.4,2.2,0,1.2,0.2l-3.4,0.8
		c-2.1,0.5-3.2,0.3-3.4-0.5l-0.4,0.1c0.1,0.4,0.1,0.6,0,0.9l-0.2-0.8l-2.7,0.6c-0.2-1.3-3.9-5.8-11-13.8c-0.1-1.5,2.4-3.8,7.5-6.6
		l14.6-12.8c3.3-4.2,5.2-10.9,5.8-20.1l-0.2-2.2c-0.6-6.5-5.3-11.8-14.2-15.8c-5.3-3.6-14.7-5.5-28.3-5.7c-11.3,1-26.1,5-44.2,12
		c-5,3.6-10.7,7.2-17,10.8l0.1,1.1c0.4,0,1-0.3,1.7-0.7c0.7-0.1,1.1,0.3,1.2,0.9l1.1-0.6l0.6,0l0,0.5c0,0.5-3.9,3.6-11.9,9.3l0.6,1
		l-0.6,0l-1.2-0.4c0,0.3-0.5,0.6-1.7,0.7l0.1,0.6l1.3,1.5c-0.4,0-1-0.1-1.8-0.4c-2.6,0.2-5.1,2.1-7.6,5.6l0.6,1c2.2-2,3.4-3,3.8-3
		l0.1,1.6c-0.4,0-0.9,0.3-1.7,0.7l1.4,2.1c2.6-2.8,5.5-5.3,8.7-7.3c1.6,0.4,2.4,0.9,2.4,1.4l1.2-0.1c8.6-6.3,17-10.9,25.5-13.8
		l0.1,1.1c-1.6,2.3-2.6,3.5-3.2,3.6c0.1,0.8,0.3,1.5,0.8,2.1c0.1,1.4-3.7,11.1-11.4,28.9C55.8,439.9,41,470.5,29,490.3
		c0,0.4,0.3,0.9,0.7,1.6c3-0.7,4.8-1.4,5.6-2.1l0.6-0.1l0.1,1.1l1.1-0.1l1.1-0.6c0,0.3,0.4,0.5,1.2,0.4l0.1,1.1
		c0.1,1.1-0.5,2.8-1.9,5.1c-1.2,1.4-2.5,4.2-3.9,8.6l0,0.5l1.1-0.1c4.8-5.4,8.4-10.6,10.9-15.7c14-4.1,24.6-8.1,32-12.1
		c7.4-0.6,13.1-2.6,16.9-5.8l-0.1-0.6l-2.8,0.8l-0.6,0.1l-0.1-0.6c5.5-0.8,9.2-2,11.3-3.7c10.6-8.2,18.6-14,24-17.4
		c11.1-8.2,18.4-16.2,21.7-23.9c0.6-0.1,1.2-0.3,1.9-0.4c1.6-0.1,2.4-0.1,2.7-0.2c-0.1-0.3,0.1-0.5,0.4-0.5c2.5-0.3,1.3,0.2,2.9-0.2
		l4.2-1l0.7-0.2l-0.3,0.2c0.5,0.1,1,0,1.5-0.1l0.3,1.2l-19,30.3l-4.2,5.3l-2.1,6.9l0.4-0.1l2.1-0.9l-0.7,2.7l0.2,0.8l0.6,0.7
		c-0.3,0.1-0.4,0.2-0.3,0.5l0.1,0.4l0.9-0.2c1.3-1.1,1.8-2.1,1.6-3c1.4,0.2,2.3,0.3,2.7,0.2l0.1,0.4c-0.8,0.2-1.3,0.9-1.3,2l0.1,0.4
		l0.5-0.1c6.9-7.5,23.9-33.4,37.5-50.9c-0.4-1.9,6.6-4.5,21.3-7.9l0.5-0.1c0.5,2.3-0.6,7.8-3.4,16.7c-1.8,5.3-2.7,8.2-2.5,8.7
		c-2.3,7.1-3.4,10.9-3.3,11.5l-5.2,17c-3.4,8.7-5.9,17.8-7.7,27.5c0.3-0.1,0.8,0,1.4,0.1l0.7-0.6c0.1,0.3,0.3,0.4,0.6,0.3l-0.3-1.2
		l2.3-0.1c0.7-0.2,1.2-1,1.7-2.5c-0.1-2.3,0.4-3.5,1.4-3.8c1.4-5.5,2.3-8.2,2.6-8.3c1.3-5.4,2.3-8.5,2.9-9.3c2-7,3.4-10.7,4.3-10.9
		l0.2,0.9l-1.4,3.7c-2.5,11.1-5,19.8-7.6,26.2l0.7,3.2l0.5-0.1c6.2-13.3,15.1-39.6,26.7-79c0.3-3.5,2-6.1,5-8l-0.7-0.7l-0.1-0.4
		c1.3-0.3,2.3-0.8,2.8-1.6c-0.1-0.3-1.2-0.7-3.5-1.3l5.8-24.8c1.3-1.1,2-1.7,2.2-1.7l0.1,1.3c-0.3,0-0.8,0.2-1.3,0.6l1.1,1.6
		c2-2.2,4.2-4,6.5-5.6c1.2,0.3,1.8,0.7,1.9,1.1l0.9-0.1c6.6-4.8,13-8.3,19.4-10.4l0.1,0.8c-1.2,1.8-2,2.7-2.4,2.7
		c0.1,0.6,0.2,1.1,0.5,1.6c0.1,1.1-2.8,8.4-8.6,22c-13.4,31.4-24.6,54.6-33.7,69.7c0,0.3,0.2,0.7,0.6,1.2c2.2-0.5,3.7-1.1,4.2-1.6
		l0.4,0l0.1,0.8l0.9-0.1l0.8-0.4c0,0.2,0.3,0.3,0.9,0.3l0.1,0.9c0.1,0.8-0.4,2.1-1.4,3.8c-1,1-2,3.2-3,6.5l0,0.4l0.9-0.1
		c3.6-4.1,6.4-8,8.3-12c10.6-3.1,18.7-6.1,24.3-9.1c5.7-0.5,10-2,12.9-4.4l0-0.4l-2.2,0.6l-0.5,0l0-0.4c4.1-0.6,7-1.5,8.6-2.8
		c8-6.2,14.1-10.6,18.2-13.2C300.4,420.8,306.4,411.8,305.6,403.2z M303.5,403.8l0.3,3.4c-0.4,0.8-0.8,1.3-1.2,1.3l-0.5-5.7
		C303,403.1,303.4,403.4,303.5,403.8z M51.8,376.7l-0.6,0l-0.1-1l2.3-0.2l0,0.5C53.1,376.1,52.5,376.3,51.8,376.7z M40.6,488.8
		c-1.3-0.6-2.5-0.8-3.6-0.7l-0.1-1.6c-0.1-0.6,0.3-1.1,1.1-1.2c0.7-0.1,1.2,0.5,1.2,1.5c1.9-2.4,3-3.6,3.2-3.6l1.2,0.5
		C43.3,486.9,42.2,488.6,40.6,488.8L40.6,488.8z M160.3,363.6c-0.6,0.1-1.7-1.7-3.3-5.2l-0.1-1c1.1-0.1,2.2,1.6,3.3,5.2L160.3,363.6
		z M158.7,351.2l-0.5,1.1l-16.3-6.8C152.8,345.9,158.4,347.8,158.7,351.2L158.7,351.2z M90.1,410.1l-2.3,0.2l-0.1-1l2.3-0.2
		L90.1,410.1z M88.2,374.7l0.6,0l0.1,1.6c-0.5,0-1.2,0.8-2.1,2.4l-0.1-1.1C87.7,376.3,88.3,375.4,88.2,374.7L88.2,374.7z
		 M83.4,386.1l0.2,2.2l-0.6,0l-0.2-2.2L83.4,386.1z M80.8,390.1l1.1-0.1c-0.1,1.8-0.6,2.8-1.5,2.8l-0.6,0
		C80.6,391.7,80.9,390.8,80.8,390.1L80.8,390.1z M79,395.8l0.6-0.1l0,0.5l-1,1.7l-1.1,0.1l0-0.5C78.6,397.4,79.1,396.9,79,395.8z
		 M77.1,400.9l-0.3,2.7l-0.6,0l-0.2-2.7L77.1,400.9L77.1,400.9z M58.4,453.9c-0.7,3.7-1.5,5.6-2.4,5.7l0-0.5
		C55.9,457.2,56.7,455.5,58.4,453.9L58.4,453.9z M55,461.3l0,0.5c0.1,0.7-0.3,1.2-1,1.2l0-0.5C54,461.9,54.3,461.5,55,461.3z
		 M54,476.7l1.7-0.2l0.1,0.6c-0.4,0-1,0.3-1.7,0.7l-1.1,0.1C53,477.3,53.3,476.9,54,476.7L54,476.7z M103.2,461.5
		c-9.7,4.8-15.4,8-17.1,9.7c-10.5,3.7-15.7,5.9-15.6,6.8c-9.3,3.7-15.5,6.4-18.4,8.1c-0.7,0.1-1.7-0.2-3-0.8
		c-0.2-1.9,0.7-3.4,2.5-4.7c1.6-0.1,3.2,0.1,4.7,0.7c1.7-0.9,4.8-1.9,9-3l-0.1-1.1l-3.5,0.3c0.4-0.6,3.8-2.2,10-4.7l1.7-0.2l0,0.5
		c-3,0.3-4.6,1.1-5,2.7c0.1,0.7,0.5,1,1.2,0.9c2.2-1.4,3.3-2.2,3.3-2.5c4.2-0.8,15.9-6.9,35-18.3l0.1,1
		C108.1,457.7,106.5,459.1,103.2,461.5L103.2,461.5z M73.9,471.1c2.8-0.2,5.2-1.4,7.2-3.3c0.8-0.1,1.2,0.2,1.3,0.9
		c-1.4,0.1-4,1.3-7.8,3.5l-0.6,0L73.9,471.1L73.9,471.1z M121.2,434.8l-14.7,11.6c-10.9,7.1-16.8,10.7-17.6,10.8
		c-17.3,9.5-28.1,14.5-32.3,14.9l-0.6,0.1c0.5-2,8.2-17.7,23.2-47.5c6.6-0.6,16.9-3.6,31.1-9.2l3.5-0.3c7.1-0.6,12.5,0.8,16,4.1
		l0.2,2.2C127.3,429,124.4,433.5,121.2,434.8L121.2,434.8z M92.5,418.7l2.4-0.2l0,0.5l-2.4,0.2L92.5,418.7z M125.7,413.1l1.7-0.2
		c1.6,0.8,2.4,1.4,2.5,2l0,0.5C128.4,415.6,127,414.8,125.7,413.1L125.7,413.1z M130.4,386.4c-1.5,1.8-5.7,5-12.6,9.3
		c-2.3,0.2-10.7,3.5-25.2,9.8c-0.7-0.3-1.5-0.5-2.3-0.4l-0.1-1c-0.2-2.1,0.8-4.7,2.8-7.9c1.1-6,2.4-9.4,3.7-10.2l12.1-27.3
		c-0.1-1.7,2.5-3,7.8-3.9l1.7-0.2l0.1,1.6c5.2-0.8,8.5-1.3,9.7-1.4c9.6-0.8,14.7,1.1,15.1,5.8l1.1-0.1l-0.2-2.8l1.2-0.1
		c2.8,1.6,4.4,3.5,4.6,5.7c0.1,1.5-0.7,3.4-2.5,5.7c-0.7,0.1-1.2-0.5-1.2-1.5l-1.2,0.1l-0.3,3.3c-4.9,7.3-8.4,11.1-10.6,11.3
		C132.1,385,130.9,386.3,130.4,386.4z M137.8,405.5c-1-0.7-1.8-1-2.4-0.9l-0.1-1.6l1.1-0.1l2.4,1.4
		C138.9,405,138.6,405.4,137.8,405.5L137.8,405.5z M145.5,414.6c1.1,0.4,1.7,0.9,1.8,1.3l-0.5,0.1l0,0c-0.1,0-0.2,0-0.3,0.1
		l-0.8,0.6L145.5,414.6z M146.3,419.2l-0.1-0.4l1.4-0.3l0.1,0.4L146.3,419.2z M149.6,423c1.4-0.2,2.1-0.3,4.8-0.9l0.1,0.4l-5.1,1.2
		C149.5,423.4,149.6,423.2,149.6,423L149.6,423z M154.5,425.1c-2.1,0.2-1.7-0.1-5.1,0.7l-0.1-0.4l4.3-1.4l2-0.5l0.2,0.8
		C154.9,424.5,155.6,424.5,154.5,425.1L154.5,425.1z M159,424c-0.5,0.1-0.9-0.1-1.1-0.7l1.3-0.3c0.6-0.1,0.9,0.1,1.1,0.7L159,424z
		 M171.2,410.9l-0.1-0.4l2.1-0.5l0.2,0.8L171.2,410.9z M184.2,490.6c0.1-0.6,0.2-1,0.1-1.3l0.5-0.1c0.6-0.1,0.9,0.1,1,0.6l0.1,0.4
		L184.2,490.6z M193.3,414.3l-0.9-0.2c-1.5,0.6-2.8,1-3.8,1.3l-0.9,0.2c-0.5,0.1-0.9-0.1-1.1-0.6l6.1-1.4l2-0.9l0.7,0.8
		C194.4,413.7,193.7,414,193.3,414.3z M198,412.8l-0.1-0.4c0.3-0.1,0.7-0.3,1.1-0.7l4.3-1l0.1,0.4
		C201.1,411.7,199.3,412.2,198,412.8z M198.6,404.1c-0.3,0.1-0.7,0.3-1.2,0.7c-0.1-0.3-0.7-0.3-1.8,0c-0.2-0.8,3-2,9.6-3.5l0.9-0.2
		l0.2,0.8C201.7,403.2,199.1,404,198.6,404.1z M210.3,391.5c-0.5,5.3-2.3,8.3-5.6,9l-0.1-0.4l-2.9,1.1l-1.3,0.3
		c-0.7,0.2-1.3,0.1-1.8,0l-0.3-1.2c-0.1-0.4,4.1-6.3,12.7-17.5l1,0.2C212.3,384.5,211.8,387.4,210.3,391.5z M230.8,373.9l-0.4,0
		l-0.1-0.8l1.7-0.2l0,0.4C231.8,373.4,231.4,373.6,230.8,373.9L230.8,373.9z M222.4,459c-1-0.5-1.9-0.7-2.7-0.6l-0.1-1.3
		c0-0.4,0.2-0.7,0.8-0.9c0.6-0.1,0.9,0.3,1,1.2c1.4-1.8,2.2-2.8,2.4-2.8l0.9,0.4C224.3,457.6,223.6,458.9,222.4,459L222.4,459z
		 M313.2,364c-0.4,0-1.3-1.3-2.6-4l-0.1-0.8c0.8-0.1,1.7,1.2,2.6,3.9L313.2,364z M312,354.5l-0.4,0.9l-12.3-5.2
		C307.5,350.4,311.8,351.9,312,354.5z M259.9,399.2l-1.7,0.2l-0.1-0.8l1.7-0.2L259.9,399.2z M258.5,372.4l0.5,0l0.1,1.3
		c-0.4,0-1,0.6-1.6,1.8l-0.1-0.8C258.1,373.6,258.5,372.8,258.5,372.4L258.5,372.4z M254.8,381l0.1,1.6l-0.5,0l-0.1-1.6L254.8,381z
		 M252.9,384.1l0.9-0.1c-0.1,1.4-0.5,2.1-1.1,2.2l-0.5,0C252.7,385.3,252.9,384.6,252.9,384.1L252.9,384.1z M251.5,388.3l0.4,0
		l0,0.4l-0.8,1.3l-0.9,0.1l0-0.4C251.1,389.6,251.5,389.2,251.5,388.3L251.5,388.3z M250.1,392.2l-0.3,2.1l-0.4,0l-0.2-2.1
		L250.1,392.2L250.1,392.2z M235.9,432.5c-0.6,2.8-1.2,4.2-1.8,4.3l0-0.4C234,435,234.6,433.7,235.9,432.5z M233.3,438.1l0,0.4
		c0.1,0.6-0.2,0.9-0.8,1l0-0.4C232.4,438.6,232.7,438.3,233.3,438.1z M232.5,449.8l1.3-0.1l0,0.4c-0.3,0-0.8,0.2-1.3,0.5l-0.9,0.1
		C231.7,450.3,232,450,232.5,449.8z M269.9,438.3c-7.3,3.6-11.7,6.1-13,7.3c-8,2.8-11.9,4.5-11.9,5.2c-7.1,2.8-11.7,4.9-13.9,6.1
		c-0.5,0-1.3-0.2-2.3-0.6c-0.1-1.4,0.5-2.6,1.9-3.5c1.3-0.1,2.5,0.1,3.6,0.5c1.3-0.7,3.6-1.4,6.9-2.2l-0.1-0.8l-2.7,0.2
		c0.3-0.5,2.9-1.7,7.6-3.6l1.3-0.1l0,0.4c-2.3,0.2-3.5,0.9-3.8,2.1c0,0.5,0.4,0.8,0.9,0.7c1.7-1.1,2.5-1.7,2.5-1.9
		c3.2-0.6,12-5.2,26.6-13.9l0.1,0.8C273.6,435.4,272.3,436.5,269.9,438.3L269.9,438.3z M247.6,445.6c2.2-0.2,4-1,5.5-2.5
		c0.6,0,0.9,0.2,0.9,0.7c-1,0.1-3,0.9-5.9,2.5l-0.5,0L247.6,445.6L247.6,445.6z M283.5,418l-11.1,8.9c-8.3,5.4-12.8,8.1-13.5,8.2
		c-13.2,7.2-21.3,11-24.6,11.3l-0.5,0c0.4-1.5,6.3-13.5,17.6-36c5-0.4,12.8-2.8,23.6-7l2.7-0.2c5.4-0.5,9.5,0.6,12.1,3.2l0.1,1.6
		C288.1,413.6,285.9,417,283.5,418L283.5,418z M261.8,405.8l1.7-0.2l0,0.4l-1.7,0.2L261.8,405.8z M287,401.5l1.3-0.1
		c1.2,0.6,1.9,1.1,1.9,1.6l0,0.4C289.1,403.4,288,402.8,287,401.5L287,401.5z M290.5,381.2c-1.2,1.4-4.3,3.8-9.5,7.1
		c-1.7,0.2-8.1,2.6-19.1,7.4c-0.5-0.2-1.1-0.3-1.8-0.2l-0.1-0.8c-0.1-1.6,0.6-3.6,2.1-6c0.9-4.6,1.8-7.1,2.8-7.7l9.3-20.7
		c-0.1-1.2,1.9-2.2,5.8-3l1.3-0.1l0.1,1.3c3.9-0.6,6.4-1,7.4-1.1c7.3-0.6,11.1,0.8,11.4,4.4l0.9-0.1l-0.2-2l0.9-0.1
		c2.1,1.2,3.3,2.6,3.4,4.2c0.1,1.2-0.5,2.7-1.8,4.4c-0.6,0.1-0.9-0.3-1-1.2l-0.9,0.1l-0.3,2.5c-3.7,5.6-6.4,8.5-8.1,8.6
		C291.8,380.2,290.9,381.2,290.5,381.2L290.5,381.2z M294.3,395l-0.1-1.3l0.9-0.1l1.9,1.1c0,0.5-0.2,0.8-0.8,0.9
		C295.4,395.2,294.8,395,294.3,395L294.3,395z M139.6,475.8l-0.9,0.2l-0.7,0.6c0.1,0.5,0.5,0.7,1,0.6c0.6-0.1,0.8-0.5,0.7-1
		L139.6,475.8z M136.3,469.2l0.1,0.4c0.6-0.1,0.8-0.5,0.7-1l-0.1-0.4C136.5,468.4,136.2,468.7,136.3,469.2z M159.9,425l0.6-0.4
		c-0.1,0-0.2,0-0.3-0.1C159.9,424.6,159.8,424.8,159.9,425L159.9,425z M159.7,413.6l1-0.2l-0.2-0.9l-1,0.2L159.7,413.6z
		 M394.6,447.1l-2.3-0.3l-0.4,0.9l0,0.4l13.5-1.1l-0.1-0.8L394.6,447.1z M406.9,446.1l0.1,0.8h0.1l-0.1-0.8H406.9z M463.4,438.7
		l0.1,0.8l1.5,0.3l-0.1-0.8L463.4,438.7z M461.3,438.9c-10.1,2.3-11.4,1.9-13.5,2l0.1,0.8l0.9-0.1l0.5,0l-0.1-0.1l1.1-0.4
		c10-1.1,11.2-0.7,11.1-1.8L461.3,438.9L461.3,438.9z M400.7,424.2l-0.9-0.3c-0.7,2-1.1,3.1-1.1,3.5l0,0.4
		C399.4,427.7,400.1,426.5,400.7,424.2L400.7,424.2z M388.5,417.6l0-0.4l-0.5,0l-0.8,0.5l0.5,0.8
		C388.3,418.5,388.6,418.2,388.5,417.6L388.5,417.6z M414.9,445l-0.1-0.8l-0.3,0l0.1,0.8L414.9,445z M469.8,432.6l0.6-0.1
		c0.4,0,0.5-0.3,0.5-0.9l-0.4-0.8c-2.3,0.2-3.4,0.3-5.2,1.3l0-0.4l-2.8,0.3c-0.1-0.8-0.3-1.3-0.7-1.2l-1.4,0.1
		c-1.7,0.1-2.5,0.1-3.3,0.7c0-0.3-0.1-0.4-0.3-0.4l-1.6,0.1l-0.9,0.5c0-0.3-0.1-0.4-0.3-0.4l-0.6,0.5l0-0.4l-2.2-0.2l-0.5,0l0.1,0.8
		l1.1,0.3l1.1-0.1c0.4,0.2,0.8,0.3,1.2,0.3l0.9-0.5l0,0.4c-5.2,1.3-5.2,1.1-8.8,1.7c-0.4-0.3-0.7-0.4-0.9-0.4l-0.1,0.1
		c-0.4,0-0.6-0.3-0.7-0.7l1.9-0.2c0.1,0,0.2,0.1,1.3,0.3c1.5-0.7,1.6-1,2.4-1.1l-0.1-0.8c-5.1,1-3.1,0.3-9.5,0.9l-0.3,0l-0.1-0.8
		c8.2-1,5.5-0.4,8.3-1.2c0,0.3,0.1,0.4,0.3,0.4c0.3-0.3,0.7-0.5,1.1-0.6l0.6,0c2.9-0.2,3.9,0.3,9.6-1.3l0,0.4l0.9-0.5l0.9-0.1
		c-0.1-0.8,1.2-1,1.6-1l-0.1-0.9c-10,2-12.7,1.5-15.5,2.3l0-0.4c-2.6,0.5-2.7,0.3-3.4,0.3c-0.2,0-0.5,0.2-0.8,0.5
		c0-0.3-0.1-0.4-0.3-0.4c-0.1,0-0.1,0-0.2,0l-8.5,1.4c0-0.2-0.1-0.4-0.3-0.3c-4.4,0.9-3.2,1.1-9.1,1.6c-0.3,0-0.6,0.2-1.1,0.5
		c0-0.2-0.2-0.4-0.5-0.3l-3.6,0.3l-2.4,0.6c0-0.2-0.2-0.4-0.5-0.3c-1.4,0.4-2.6,0.6-3.5,0.7h-0.1c-0.6,0.1,0.3-0.2-0.2-0.4l-0.7,0.4
		c-1.1,0.1-0.5-0.1-4.2,0c-6.4,0.8-5.7,0.9-6.4,0.9l-2.4-0.2c0,0.2-0.1,0.4-0.4,0.4c-2.7-0.4-4.1-0.8-4.2-1.3c0.4-2.6,1-3.9,1.9-4
		l0.5,0l-0.4,0.9l0.5,0c0.9-0.5,1.3-0.9,1.2-1.3l-0.1-0.9l-0.9,0.1l-0.1-0.8c-0.1-0.6,0-1.2,0.3-1.7l2-3.2l0.1,0.8l0.9-0.1l-0.1-0.8
		l-0.5-0.8c0.7-0.6,1.2-0.9,1.7-1l0-0.4L401,420l-0.1-1.3c2.5-5.3,3.7-8.3,3.7-9.2l0.9,0.4c0.6,0,0.8-0.4,0.8-1l-0.9,0.1l0-0.4
		c-0.1-0.6,0.1-1.2,0.3-1.8c1.4-1.4,2-2.9,1.9-4.4c0.3,0,0.4,0.1,0.4,0.4c1.2-0.7,2.1-2.4,2.7-5.4c2.1-3.7,5-11.2,8.8-22.3
		c7.3-19.7,7-21.8,8-26.4l-0.9,0.1c0.1,0.6-0.1,1.2-0.3,1.7c-0.6-0.2-1.1-0.4-1.4-0.3l0-0.4c-0.1-1.7,0.6-3.7,2.2-6.1l0.4,0l0.7,2.9
		l0.9-0.1c0-0.2,0.2-1.3,0.7-3.4c0-0.4-0.4-0.7-1-0.7l-0.8,0.5c-0.1-0.6,0-2.2,0.1-4.7l-0.4,0c-0.7-0.7-1.1-1.3-1.1-1.8l-4.8,0.5
		c0-0.3-0.2-0.8-0.5-1.5c0-0.4,1-0.9,3.2-1.3l1,0.4l0.9-0.5c0,0.3,0.2,0.4,0.5,0.4l0.9-0.5c0,0.3,0.2,0.4,0.5,0.4l0.4,0l-0.1-1
		c-0.7,0.1-2.4,0.1-5.2,0l-0.9,0.6l0-0.5c-22.3,1.8-35,2.9-38,3.2c-0.4,0-2,0-4.7-0.1c0,0.4-0.3,0.6-1,0.6l-1-0.4l-3.3,0.8
		c-0.8,0.1-2.1,0-3.9-0.2c-0.5,0.4-1.1,0.6-1.8,0.7c-0.4,0,4.8-0.3,9.5-0.6c-0.5,0.4-1.3,0.6-2.3,0.7c-0.7,0.1-1.4,0-1.9-0.3
		c-0.7,0.3-3.1,0.9-7,1.7l-1-0.4l-15.6,2.4c-0.6-0.3-1.3-0.4-2.1-0.3c-0.8,0.1-2.2,0.4-4.2,0.9l-7.5,3.1l0.6,0.9
		c0.4,0,0.9-0.2,1.5-0.6l2.7,0.2l-0.3,2.5c-2.5,1.1-3.9,2.7-4.3,4.8c-3.7,1.6-5.5,2.8-5.5,3.5l0,0.4l0.6,0l1-0.5l1.2,1.4l0.2,1.9
		c0.1,0.6-6.1,13.7-18.6,39.2c-10.8,24.6-16.4,38.1-16.9,40.5c-3.7,1-5.8,2.5-6.4,4.5c0.1,0.6,1.2,1.1,3.3,1.2l0.1,1l-1,1.6l0.2,1.9
		c0.1,1,2.8,1.8,8.1,2.3c0-0.3,0.1-0.5,0.5-0.6c0.1,1.2-0.2,3.5-1,7l0.6,0c2.2-3,3.2-5.1,3.1-6.2l0.5,0c0.5,0,1.1,0.6,1.8,1.9
		c-0.7,0.3-3,5.6-7,15.9l0.6,0.9l0.6,0c4.9-12.4,7.9-19.2,9.2-20.5c6.4-0.6,17.5-1.7,33.3-3.4l1-0.6c0,0.3,0.2,0.5,0.6,0.5l1-0.1
		l1-0.6c0,0.3,0.2,0.5,0.6,0.5l11.9-1c3.2-0.3,4.7-1.2,4.5-2.9c0-0.4,1.8-0.9,5.6-1.5c0.4,0,0.9,0.1,1.6,0.3c0-0.3,1.9-0.6,5.6-0.9
		c0.1-2,0.7-3.1,1.9-3.2l-0.1-1c-1.1,0.1-2.3,0.4-3.7,0.8c-2.5-0.1-4.1-0.3-4.8-0.6c-0.7,0.4-1.2,0.6-1.5,0.6l-8.3,0.3l-1,0.5
		c0-0.3-0.2-0.4-0.6-0.4l-0.5,0l-1.1,0.5c0-0.3-0.9-0.5-2.6-0.8l-1.1,0.6l-2.1,0.2l0-0.5c10.7-1.2,16-2.6,15.9-4.4
		c0.7-0.1,1.1,0.3,1.1,1l3.1-0.8l-0.1-1l-25.6,0.7c0,0.3-0.1,0.5-0.5,0.6l-3.1-0.3c-0.8,0.1-1.5,0.3-2,0.7l-1.2-0.4
		c-3.2,0.3-5.6,0.7-7.2,1.2c-2.2-0.2-4.6-0.1-7.3,0.1l-5.7,0.5l-2.7-0.3c-0.1-1.7,3.2-10,9.9-25c2-5.1,3.8-8.2,5.5-9.4
		c0.4,0,0.9,0.1,1.6,0.4l4.1-1.4l2.1,0.3c3.5-0.3,7.6-1.3,12.3-3c1.2-0.1,2,0,2.7,0.2l3.1-0.7l9.3-0.8c4-0.3,8.2-1.2,12.9-2.6
		l-0.1-1c-1.7,0.2-2.6-0.1-2.7-0.8c-0.1-1.3-1.4-1.8-3.8-1.6l-0.1-1l2.6-0.7l6.7-0.6l-0.1-1c-0.3,0-1.6,0-4.2-0.1l-0.1-1l2.6-0.2
		c0.7-0.1,1-0.4,0.9-1.1c-3.5,0.1-5.3-0.1-5.3-0.5c-24.3,1.2-36.5,1.4-36.6,0.7c-0.4,0-0.9,0.3-1.5,0.7l-0.6-1
		c6.4-13.7,10.2-20.6,11.3-20.7c0,0.5-0.2,1.4-0.8,2.6l0,0.4l1-0.1c2.6-6.1,4.7-9.3,6.5-9.4c7.6-0.7-1.1-1.2,15.3-3.7
		c0.7,0.3,1.1,0.4,1.5,0.4c6.4-1.3,15.4-2.7,26.8-4.1l-0.1-1l-6.1,0.6l-0.1-1c0.7-0.1,1.3-0.3,1.8-0.7l0,0.5c0.3,0,0.8-0.3,1.4-0.7
		c1.1-0.1,1.9,0,2.4,0.3c2.1-0.6,3.9-0.9,5.1-1l3.8-0.4c0.9-0.6,1.4-1.1,1.3-1.6l0-0.4c-1,0.1-2.1,0-3.4-0.2c0-0.5,0.2-0.9,0.9-1.1
		l7.1-0.7l3.3-0.8c0,0.4,0.2,0.5,0.5,0.5c0.3,0,0.8-0.3,1.4-0.7c0.2,0,0.4,0,0.5,0.1c-0.4,0.9-0.9,2.2-1.4,3.9l-0.9,0.1
		c-0.1-0.6-0.2-1.2-0.5-1.7l-0.5,0c-8.6,24.1-12.5,35.3-20.5,53.7c-1.5,4.7-2.7,7.3-3.8,7.9c0,0.5,0.4,0.8,0.9,0.7
		c0.2,2.3-0.3,4.6-1.6,6.9c-3.7,10.6-6.1,16.5-7.4,17.5l0.8,5c0,0.5-0.2,0.8-0.8,0.9l-0.9,0.1c-0.1-1.4-0.6-2.1-1.5-2l-0.5,0
		c-1.1,1.8-2,3.8-2.6,6.1l0.9-0.1c1.2-0.8,1.7-1.7,1.6-2.7l1.7-0.2l1,0.4c-0.8,1.3-1.2,2.3-1.1,3l0.5,0.8l-1.1,2.7l0,0.4
		c1-0.1,2.1,0.2,3.3,0.9c0.8-0.1,1.7-0.4,2.6-1.1c1-0.1,4.7-0.1,11.1-0.1l3.2-1.1c3.9,0,4.6,0.1,7.9-0.2l1.4-0.1l0.7-0.5l0,0.4
		c3.6-0.3,3.8-0.1,6.6,0.3l0,0.4l-2,0.2l0.1,0.8c0.6-0.1,1.1-0.2,1.6-0.6c0.5,0,0.8,0.2,0.8,0.8c-0.8,0.1-1.7,0.3-2.7,0.6l-0.9-0.3
		c-1.4,0.4-1.1,0.5-2,0.5l-1.4-0.3c0,0.2-0.1,0.4-0.3,0.4c0,0.5,0.3,0.8,0.8,0.8l1.4-0.1l7.3-0.6l2.8-0.6c0,0.2,0.1,0.4,0.4,0.3
		l1.3-0.5l2.5-0.2c1.9-0.2,1.9-0.3,6.1-1c0-0.3,0.1-0.4,0.3-0.4l0,0.4c6.8-1.2,7.2-1.2,8.3-1.6l0.1,0.2c1.7-0.4,0.7-0.3,1.2-0.6
		c0,0.3,0.1,0.4,0.3,0.4l1.2-0.1l-0.1-0.9l-2.4,0l0-0.1c-0.1,0-0.2,0-0.3,0.1h-0.3v0.1c-1.6,0.3-1.7,0.1-2.7,0.2l-6.1,0.3l0-0.4
		l3.4-0.5l1.2-0.1l0.7-0.5l0,0.4c4.8-0.4,6.5,0.8,28.6-3.9c1.2-0.1,1.1-1.1,1.9-3.2c-0.4,0-0.8-0.1-1.2-0.3
		c-1.8,0.7-2.8,0.4-6.3,0.9c-0.3,0-0.5-0.2-0.6-0.8l0-0.4l3.4,0.1c0.6-0.1,1.9-0.2,3.7-1.2C470.1,432.5,469.4,432.6,469.8,432.6
		L469.8,432.6z M306.1,435.2l-1.6,0.1c-0.1-0.6,0.8-3,2.5-7.1l1-0.1C308.1,429.1,307.5,431.5,306.1,435.2L306.1,435.2z M308,427.7
		l0-0.4c0-0.5,0.3-0.9,1-1.1l0,0.4C309.1,427.2,308.7,427.6,308,427.7z M328.8,443.7l0,0.4l-2.6,0.2l0-0.4L328.8,443.7z
		 M325.7,443.4c0,0.5-0.8,1.1-2.5,1.7l-3.2-0.2l-1,0.1l-0.1-1L325.7,443.4L325.7,443.4z M346.7,346.8l-1.6,0.1l0-0.5
		c0-0.5,0.3-0.9,0.9-1.1l0.6,0l1.1,0.4C347.7,346.3,347.4,346.7,346.7,346.8L346.7,346.8z M370.4,342.1l0.5,0l0.1,1l-1.4,0.1
		C369.5,342.6,369.8,342.3,370.4,342.1L370.4,342.1z M364.4,344.2l-2.4-0.3l0-0.4c3.1-0.3,4.1-0.6,6-1.1c0,0.4,0.4,0.5,1,0.4l0.1,1
		l-0.9,0.1c-0.7,0.1-1.4,0-1.9-0.3C365.7,343.9,365.1,344.1,364.4,344.2z M367.4,352.8l0-0.4l3.8-0.4l0,0.4L367.4,352.8z
		 M371.5,349.5l0-0.5l1.9-0.2l0,0.5L371.5,349.5z M371.9,343l-0.5,0l0.4-1l4.3-0.4l0,0.5C375,342.2,373.6,342.5,371.9,343L371.9,343
		z M374.1,352.1l-0.1-1l1.9-0.2c0.6-0.1,1,0.2,1,0.9L374.1,352.1z M385.3,336.8l-2.4,0.7l-0.4,0c-1.1,0.1-2.6,0.1-4.3-0.1
		C381.3,337.2,384.2,337,385.3,336.8z M382.8,347.4l0,0.4l-3.3,0.3l0-0.4L382.8,347.4z M388.2,350c0-0.4-0.7-0.7-2-0.8l-3.3,0.9
		l-2.5,0.1c-0.6-0.4-0.9-0.7-0.9-0.9l2.9,0.2l6.6-1.1l3.4,0.1l0,0.5C390.7,349.3,389.3,349.6,388.2,350L388.2,350z M422,341.2
		c0.4,0,0.7,0,0.8,0c1.2-1.1,2.5-2,4-2.7c-1.2,5.3-3.1,9.1-5.6,11.7l-1.9-1.1C420.8,345.2,421.8,342.6,422,341.2L422,341.2z
		 M416.3,351l0.5,0c-0.6,1.2-1.2,1.8-1.7,1.9l-0.1-1.3C415.3,351.6,415.8,351.4,416.3,351z M412.6,359.9c0.9-3.6,1.8-5.6,2.6-6.1
		l0,0.4c-0.5,3.3-1.2,5.1-2.2,5.2l0.2,2.1c-0.8,1.1-1.2,2-1.1,2.7l-0.5,0l-0.3-2.9C411.9,361.2,412.3,360.7,412.6,359.9L412.6,359.9
		z M411.2,364.6c0,0.5-0.3,1.7-1,3.5l-0.5,0l-0.1-1.3C410.3,365.4,410.8,364.7,411.2,364.6L411.2,364.6z M384.4,442.5l0-0.4l0.9-0.1
		l0.1,1.3C384.8,443.3,384.5,443.1,384.4,442.5L384.4,442.5z M422.7,443.5c0-0.3-0.2-0.4-0.5-0.4l-2.2,0.2l0-0.4h0.2l5.1-0.4l0,0.4
		C423.9,442.9,423,443.1,422.7,443.5z M420.1,442.4c0.2,0.1,0.1,0.2,0,0.3C420,442.6,419.9,442.5,420.1,442.4z M420.4,436.4
		l-2.9,0.2l0-0.4l2.6-0.2l2.3-0.6c0,0.3,0.2,0.4,0.5,0.3c2.7-0.5,2.4-0.6,3.7-0.7c0.4,0,0.7,0.2,0.7,0.8L420.4,436.4L420.4,436.4z
		 M430.4,435.6c-1.6-0.2-1.7-0.3-2.8-0.2l0-0.4l2.6-0.2l0,0.4C429.9,435.2,430.8,435.2,430.4,435.6L430.4,435.6z M430.6,435.1l0-0.4
		l1.4-0.1l0,0.4L430.6,435.1z M433.7,434.8l0-0.4c0.2,0,0.6-0.2,1-0.5c0.7-0.1,1.1,0.4,1.1,0.9L433.7,434.8L433.7,434.8z
		 M437.7,434.3l0-0.4l1.7-0.1l0,0.4L437.7,434.3z M440,434.1c0-0.5,0.2-0.8,0.6-0.9l0.6,0.7c0-0.2,0.1-0.4,0.3-0.4l0.4,0.8
		L440,434.1L440,434.1z M472.7,430.3L472.7,430.3L472.7,430.3C472.8,430.2,472.7,430.2,472.7,430.3z M473.3,429.8
		c0.3-0.2,0.4-0.3-0.2-0.4c-0.3,0.3,0.3,0.4-0.3,0.5l0,0.3c0.1-0.1,0.2-0.2,0.4-0.3l-0.4,0.3v0l-0.7,0.9l1.4-0.5h0.2l-0.1-0.8
		L473.3,429.8L473.3,429.8z M475.7,431.7l-0.3,0l0.1,0.8l2-0.2C477.5,431.9,476.2,431.7,475.7,431.7L475.7,431.7z"/>
</g>
</svg>
