<?xml version="1.0" encoding="utf-8"?>
<!-- Generator: Adobe Illustrator 19.0.0, SVG Export Plug-In . SVG Version: 6.00 Build 0)  -->
<svg version="1.1" id="Capa_1" xmlns="http://www.w3.org/2000/svg" xmlns:xlink="http://www.w3.org/1999/xlink" x="0px" y="0px"
	 viewBox="-49 0 300 400" style="enable-background:new -49 0 300 400;" xml:space="preserve">
<style type="text/css">
	.st0{fill:#E55227;}
	.st1{fill:#ED692D;}
	.st2{fill:none;}
	.st3{fill:#FFFFFF;}
	.st4{fill:#EBEBEB;}
	.st5{fill:#010202;}
</style>
<g id="XMLID_36_">
	<polygon id="XMLID_11_" class="st0" points="-26.6,86.5 -3.4,346.6 100.7,375 205.4,346.6 228.6,86.5 	"/>
	<path id="XMLID_58_" class="st1" d="M100.7,107.1l0,246.2l84.6-23.8l20.2-222.4H100.7"/>
	<line id="XMLID_9_" class="st2" x1="100.7" y1="138.8" x2="100.7" y2="320.1"/>
	<polygon id="XMLID_8_" class="st3" points="100.7,170.5 100.7,138.8 180.8,138.8 177.9,170.5 	"/>
	<polygon id="XMLID_7_" class="st4" points="100.7,320.1 100.7,286.5 64.8,276.9 62.4,251.6 30.7,251.6 34.7,301.9 	"/>
	<polygon id="XMLID_6_" class="st3" points="100.7,286.5 136,276.9 140,235.5 100.7,235.5 100.7,203.3 175.2,203.3 166.1,301.9 
		100.7,320.1 	"/>
	<polygon id="XMLID_5_" class="st4" points="100.7,203.3 100.7,235.5 29.1,235.5 20.6,138.8 100.7,138.8 100.7,170.5 55.7,170.5 
		58.5,203.3 	"/>
	<polygon id="XMLID_4_" class="st5" points="96.7,25 82,25 66,25 51.3,25 51.3,41 66,41 66,73.6 82,73.6 82,41 96.7,41 	"/>
	<polygon id="XMLID_3_" class="st5" points="28.2,25 28.2,41.3 13,41.3 13,25 -3,25 -3,73.6 13,73.6 13,57.3 28.2,57.3 28.2,73.6 
		44.2,73.6 44.2,25 	"/>
	<polygon id="XMLID_2_" class="st5" points="205.3,57.3 182.4,57.3 182.4,25 166.4,25 166.4,57.3 166.4,73.3 166.4,73.6 182.4,73.6 
		182.4,73.3 205.3,73.3 	"/>
	<polygon id="XMLID_1_" class="st5" points="142.1,25 130.7,42.6 119.2,25 103.2,25 103.2,73.6 119.2,73.6 119.2,49.3 130.7,67.1 
		142.1,49.3 142.1,73.6 158.1,73.6 158.1,25 	"/>
</g>
</svg>
