<?xml version="1.0" encoding="utf-8"?>
<!-- Generator: Adobe Illustrator 19.0.0, SVG Export Plug-In . SVG Version: 6.00 Build 0)  -->
<svg version="1.1" id="Capa_1" xmlns="http://www.w3.org/2000/svg" xmlns:xlink="http://www.w3.org/1999/xlink" x="0px" y="0px"
	 viewBox="-22 195.9 550 450" style="enable-background:new -22 195.9 550 450;" xml:space="preserve">
<style type="text/css">
	.st0{display:none;}
	.st1{fill:#E5A32A;}
	.st2{fill:#F0C123;}
	.st3{fill:#EBEBEB;}
	.st4{fill:#010202;}
</style>
<g id="Capa_2" class="st0">
</g>
<g id="Capa_3" class="st0">
</g>
<g id="Capa_4">
</g>
<g id="Capa_5" class="st0">
</g>
<polygon class="st1" points="103,287.5 130.3,593.2 252.6,626.6 375.7,593.2 403,287.5 "/>
<path class="st2" d="M252.6,311.7l0,289.4l99.4-28l23.8-261.4H252.6"/>
<g>
	<path class="st3" d="M221,385.7l-5.4,52.9h37h79.5l-9.6,104l-70,20.3l-70.5-18.5l-4.2-55h35.3l2.4,26.3l37,11.4l37.1-10.2l3-43.6
		h-40.1h-74.7l10.8-124.3h135.7l7.8,73.5h-35.3l-3.6-36.8H221"/>
</g>
<g>
	<polygon class="st4" points="224.8,215.2 224.8,253.5 198.1,253.5 198.1,272.3 243.6,272.3 243.6,215.2 	"/>
	<polygon class="st4" points="307.9,231.1 307.9,215.2 254,215.2 254,227.8 279.9,256.4 254,256.4 254,272.3 307.9,272.3 307.9,259 
		282.6,231.1 	"/>
</g>
</svg>
