<?xml version="1.0" encoding="utf-8"?>
<!-- Generator: Adobe Illustrator 19.0.0, SVG Export Plug-In . SVG Version: 6.00 Build 0)  -->
<svg version="1.1" id="Capa_1" xmlns="http://www.w3.org/2000/svg" xmlns:xlink="http://www.w3.org/1999/xlink" x="0px" y="0px"
	 viewBox="0 0 422.3 123.4" style="enable-background:new 0 0 422.3 123.4;" xml:space="preserve">
<g id="XMLID_15_">
	<path id="XMLID_17_" d="M20.7,7.2H0V3.4h45.5v3.8H24.8v53.6h-4.2V7.2z"/>
	<path id="XMLID_19_" d="M53.7,58.4c-3.3-1.9-5.8-4.4-7.7-7.7c-1.9-3.3-2.8-7-2.8-11.2c0-4.2,0.9-7.9,2.8-11.2
		c1.9-3.3,4.4-5.9,7.7-7.7c3.3-1.9,6.9-2.8,10.9-2.8c4,0,7.7,0.9,10.9,2.8c3.3,1.9,5.8,4.4,7.7,7.7c1.9,3.3,2.8,7,2.8,11.2
		c0,4.2-0.9,7.9-2.8,11.2c-1.9,3.3-4.4,5.9-7.7,7.7c-3.3,1.9-6.9,2.8-10.9,2.8C60.6,61.1,57,60.2,53.7,58.4z M73.5,55.2
		c2.6-1.5,4.6-3.7,6.1-6.4c1.5-2.7,2.3-5.8,2.3-9.3c0-3.5-0.8-6.6-2.3-9.3c-1.5-2.7-3.6-4.9-6.1-6.4c-2.6-1.5-5.5-2.3-8.8-2.3
		c-3.3,0-6.2,0.8-8.8,2.3c-2.6,1.5-4.6,3.7-6.1,6.4c-1.5,2.7-2.3,5.8-2.3,9.3c0,3.5,0.8,6.6,2.3,9.3c1.5,2.7,3.6,4.9,6.1,6.4
		c2.6,1.5,5.5,2.3,8.8,2.3C67.9,57.5,70.9,56.7,73.5,55.2z"/>
	<path id="XMLID_22_" d="M134.7,0v60.8h-4V50.7c-1.7,3.3-4.1,5.9-7.1,7.7c-3.1,1.8-6.5,2.7-10.4,2.7c-4,0-7.6-0.9-10.8-2.8
		c-3.2-1.9-5.8-4.4-7.6-7.7c-1.8-3.3-2.7-7-2.7-11.2c0-4.2,0.9-8,2.7-11.3c1.8-3.3,4.4-5.9,7.6-7.7c3.2-1.8,6.8-2.7,10.8-2.7
		c3.8,0,7.3,0.9,10.3,2.7c3,1.8,5.4,4.3,7.2,7.5V0H134.7z M122.2,55.2c2.6-1.5,4.6-3.7,6.1-6.4c1.5-2.7,2.3-5.8,2.3-9.3
		c0-3.5-0.8-6.6-2.3-9.3c-1.5-2.7-3.6-4.9-6.1-6.4c-2.6-1.5-5.5-2.3-8.8-2.3c-3.3,0-6.2,0.8-8.8,2.3c-2.6,1.5-4.6,3.7-6.1,6.4
		c-1.5,2.7-2.3,5.8-2.3,9.3c0,3.5,0.8,6.6,2.3,9.3c1.5,2.7,3.6,4.9,6.1,6.4c2.6,1.5,5.5,2.3,8.8,2.3
		C116.7,57.5,119.6,56.7,122.2,55.2z"/>
	<path id="XMLID_25_" d="M155.8,58.4c-3.3-1.9-5.8-4.4-7.7-7.7c-1.9-3.3-2.8-7-2.8-11.2c0-4.2,0.9-7.9,2.8-11.2
		c1.9-3.3,4.4-5.9,7.7-7.7s6.9-2.8,10.9-2.8c4,0,7.7,0.9,10.9,2.8c3.3,1.9,5.8,4.4,7.7,7.7c1.9,3.3,2.8,7,2.8,11.2
		c0,4.2-0.9,7.9-2.8,11.2c-1.9,3.3-4.4,5.9-7.7,7.7c-3.3,1.9-6.9,2.8-10.9,2.8C162.7,61.1,159,60.2,155.8,58.4z M175.5,55.2
		c2.6-1.5,4.6-3.7,6.1-6.4c1.5-2.7,2.3-5.8,2.3-9.3c0-3.5-0.8-6.6-2.3-9.3c-1.5-2.7-3.6-4.9-6.1-6.4c-2.6-1.5-5.5-2.3-8.8-2.3
		s-6.2,0.8-8.8,2.3c-2.6,1.5-4.6,3.7-6.1,6.4c-1.5,2.7-2.3,5.8-2.3,9.3c0,3.5,0.8,6.6,2.3,9.3c1.5,2.7,3.6,4.9,6.1,6.4
		c2.6,1.5,5.5,2.3,8.8,2.3S172.9,56.7,175.5,55.2z"/>
	<path id="XMLID_28_" d="M218.8,59.6c-3.1-1-5.5-2.3-7.3-3.9l1.9-3.3c1.7,1.5,4,2.7,6.8,3.7c2.8,1,5.6,1.5,8.6,1.5
		c4.3,0,7.5-0.7,9.5-2.1c2-1.4,3.1-3.4,3.1-5.9c0-1.8-0.6-3.2-1.7-4.3c-1.1-1-2.5-1.8-4.1-2.3c-1.6-0.5-3.9-1-6.8-1.6
		c-3.4-0.6-6.1-1.3-8.2-2c-2.1-0.7-3.9-1.9-5.3-3.4c-1.5-1.6-2.2-3.8-2.2-6.6c0-3.4,1.4-6.2,4.2-8.4c2.8-2.2,6.8-3.3,12-3.3
		c2.7,0,5.4,0.4,8.1,1.1c2.7,0.8,4.9,1.8,6.6,3l-1.9,3.3c-1.7-1.3-3.7-2.2-6-2.9c-2.2-0.7-4.5-1-6.9-1c-4,0-7,0.7-9,2.2
		s-3,3.4-3,5.8c0,1.9,0.6,3.4,1.7,4.5s2.6,1.9,4.2,2.4c1.7,0.5,4,1.1,7,1.7c3.3,0.6,6,1.2,8.1,1.9c2,0.7,3.8,1.8,5.2,3.3
		c1.4,1.5,2.1,3.6,2.1,6.3c0,3.6-1.5,6.4-4.4,8.5s-7.1,3.2-12.5,3.2C225.1,61.1,221.9,60.6,218.8,59.6z"/>
	<path id="XMLID_30_" d="M260.7,58.4c-3.3-1.9-5.8-4.4-7.7-7.7c-1.9-3.3-2.8-7-2.8-11.2c0-4.2,0.9-7.9,2.8-11.2
		c1.9-3.3,4.4-5.9,7.7-7.7s6.9-2.8,10.9-2.8c4,0,7.7,0.9,10.9,2.8c3.3,1.9,5.8,4.4,7.7,7.7c1.9,3.3,2.8,7,2.8,11.2
		c0,4.2-0.9,7.9-2.8,11.2c-1.9,3.3-4.4,5.9-7.7,7.7c-3.3,1.9-6.9,2.8-10.9,2.8C267.6,61.1,263.9,60.2,260.7,58.4z M280.4,55.2
		c2.6-1.5,4.6-3.7,6.1-6.4c1.5-2.7,2.3-5.8,2.3-9.3c0-3.5-0.8-6.6-2.3-9.3c-1.5-2.7-3.6-4.9-6.1-6.4c-2.6-1.5-5.5-2.3-8.8-2.3
		s-6.2,0.8-8.8,2.3c-2.6,1.5-4.6,3.7-6.1,6.4c-1.5,2.7-2.3,5.8-2.3,9.3c0,3.5,0.8,6.6,2.3,9.3c1.5,2.7,3.6,4.9,6.1,6.4
		c2.6,1.5,5.5,2.3,8.8,2.3S277.8,56.7,280.4,55.2z"/>
	<path id="XMLID_33_" d="M336,20.4c3.2,1.8,5.8,4.4,7.6,7.7c1.8,3.3,2.7,7.1,2.7,11.3c0,4.2-0.9,8-2.7,11.2
		c-1.8,3.3-4.4,5.8-7.6,7.7c-3.2,1.9-6.8,2.8-10.8,2.8c-3.8,0-7.3-0.9-10.4-2.7c-3.1-1.8-5.5-4.4-7.2-7.7v10.1h-3.9V0h4.1v27.8
		c1.7-3.2,4.1-5.6,7.1-7.4c3.1-1.8,6.5-2.7,10.2-2.7C329.1,17.7,332.7,18.6,336,20.4z M333.7,55.2c2.6-1.5,4.7-3.7,6.2-6.4
		c1.5-2.7,2.3-5.8,2.3-9.3c0-3.5-0.8-6.6-2.3-9.3c-1.5-2.7-3.6-4.9-6.2-6.4c-2.6-1.5-5.6-2.3-8.9-2.3s-6.2,0.8-8.8,2.3
		c-2.6,1.5-4.6,3.7-6.1,6.4c-1.5,2.7-2.3,5.8-2.3,9.3c0,3.5,0.8,6.6,2.3,9.3c1.5,2.7,3.6,4.9,6.1,6.4c2.6,1.5,5.5,2.3,8.8,2.3
		S331.1,56.7,333.7,55.2z"/>
	<path id="XMLID_36_" d="M367,20.2c2.8-1.7,6.2-2.5,10.2-2.5v4l-1-0.1c-4.8,0-8.5,1.5-11.1,4.5c-2.7,3-4,7.1-4,12.4v22.3h-4.1V18
		h3.9v9.3C362.2,24.3,364.2,21.9,367,20.2z"/>
	<path id="XMLID_38_" d="M422.2,40.4h-36.8c0.1,3.3,1,6.3,2.5,8.9c1.6,2.6,3.7,4.6,6.4,6c2.7,1.4,5.8,2.1,9.1,2.1
		c2.8,0,5.4-0.5,7.7-1.5c2.4-1,4.4-2.5,5.9-4.5l2.4,2.7c-1.9,2.2-4.2,4-7,5.2c-2.8,1.2-5.9,1.8-9.1,1.8c-4.3,0-8.1-0.9-11.4-2.8
		c-3.3-1.9-5.9-4.4-7.8-7.7s-2.8-7-2.8-11.2c0-4.2,0.9-7.9,2.7-11.2c1.8-3.3,4.2-5.9,7.3-7.7c3.1-1.9,6.6-2.8,10.5-2.8
		c3.9,0,7.4,0.9,10.4,2.7c3.1,1.8,5.5,4.4,7.3,7.7c1.8,3.3,2.7,7,2.7,11.1L422.2,40.4z M393.7,23.3c-2.4,1.3-4.3,3.2-5.8,5.7
		c-1.4,2.4-2.3,5.2-2.5,8.2h32.8c-0.2-3.1-1-5.8-2.5-8.2c-1.5-2.4-3.4-4.3-5.8-5.7c-2.4-1.4-5.1-2-8.1-2
		C398.8,21.3,396.1,22,393.7,23.3z"/>
</g>
<g id="XMLID_16_">
	<path id="XMLID_41_" d="M9.2,80.7v15.1h24v7.8h-24v19.1H0V72.9h36.3v7.7H9.2z"/>
	<path id="XMLID_43_" d="M76.1,122.7l-10.2-14.6c-0.4,0-1.1,0.1-1.9,0.1H52.7v14.5h-9.2V72.9H64c4.3,0,8.1,0.7,11.3,2.1
		c3.2,1.4,5.7,3.5,7.4,6.1c1.7,2.7,2.6,5.8,2.6,9.5c0,3.7-0.9,7-2.7,9.7c-1.8,2.7-4.4,4.7-7.9,6L86,122.7H76.1z M72.7,83.3
		c-2.1-1.7-5.1-2.6-9.2-2.6H52.7v19.8h10.8c4,0,7.1-0.9,9.2-2.6c2.1-1.7,3.1-4.2,3.1-7.4C75.9,87.5,74.8,85,72.7,83.3z"/>
	<path id="XMLID_46_" d="M103.2,120.1c-4.1-2.2-7.3-5.3-9.6-9.2c-2.3-3.9-3.5-8.3-3.5-13.1c0-4.8,1.2-9.2,3.5-13.1
		c2.3-3.9,5.5-7,9.6-9.2c4.1-2.2,8.6-3.3,13.7-3.3c5.1,0,9.6,1.1,13.7,3.3c4.1,2.2,7.3,5.2,9.6,9.1c2.3,3.9,3.5,8.3,3.5,13.2
		c0,4.9-1.2,9.3-3.5,13.2c-2.3,3.9-5.5,6.9-9.6,9.1c-4.1,2.2-8.6,3.3-13.7,3.3C111.9,123.4,107.3,122.3,103.2,120.1z M125.9,113.1
		c2.7-1.5,4.7-3.6,6.3-6.3c1.5-2.7,2.3-5.7,2.3-9c0-3.3-0.8-6.3-2.3-9c-1.5-2.7-3.6-4.8-6.3-6.3c-2.7-1.5-5.6-2.2-9-2.2
		c-3.3,0-6.3,0.7-9,2.2c-2.7,1.5-4.7,3.6-6.3,6.3c-1.5,2.7-2.3,5.7-2.3,9c0,3.3,0.8,6.3,2.3,9c1.5,2.7,3.6,4.8,6.3,6.3
		c2.7,1.5,5.6,2.2,9,2.2C120.3,115.3,123.2,114.6,125.9,113.1z"/>
	<path id="XMLID_49_" d="M196,72.9v49.8h-7.6L160.9,89v33.7h-9.2V72.9h7.6l27.4,33.7V72.9H196z"/>
	<path id="XMLID_51_" d="M217.7,80.8h-16.5v-7.8h42.2v7.8h-16.5v41.9h-9.2V80.8z"/>
	<path id="XMLID_53_" d="M243.3,99.2h19.5v7.4h-19.5V99.2z"/>
	<path id="XMLID_55_" d="M309,115v7.7h-37.3V72.9H308v7.7h-27.1v12.9h24v7.6h-24V115H309z"/>
	<path id="XMLID_57_" d="M361.8,72.9v49.8h-7.6L326.7,89v33.7h-9.2V72.9h7.6l27.4,33.7V72.9H361.8z"/>
	<path id="XMLID_59_" d="M373.4,72.9h21.8c5.3,0,10,1,14.1,3.1c4.1,2.1,7.3,5,9.6,8.7c2.3,3.8,3.4,8.1,3.4,13c0,4.9-1.1,9.3-3.4,13
		c-2.3,3.8-5.5,6.7-9.6,8.7c-4.1,2.1-8.8,3.1-14.1,3.1h-21.8V72.9z M394.7,114.9c3.6,0,6.9-0.7,9.6-2.1c2.8-1.4,4.9-3.4,6.4-6
		c1.5-2.6,2.2-5.6,2.2-9c0-3.4-0.7-6.4-2.2-9c-1.5-2.6-3.6-4.6-6.4-6c-2.8-1.4-6-2.1-9.6-2.1h-12.1v34.1H394.7z"/>
</g>
</svg>
