<?xml version="1.0" encoding="utf-8"?>
<!-- Generator: Adobe Illustrator 19.0.0, SVG Export Plug-In . SVG Version: 6.00 Build 0)  -->
<svg version="1.1" id="Capa_1" xmlns="http://www.w3.org/2000/svg" xmlns:xlink="http://www.w3.org/1999/xlink" x="0px" y="0px"
	 viewBox="-22 195.9 550 450" style="enable-background:new -22 195.9 550 450;" xml:space="preserve">
<style type="text/css">
	.st0{display:none;}
	.st1{fill:#BF4349;}
</style>
<g id="Capa_2" class="st0">
</g>
<g id="Capa_3" class="st0">
</g>
<g id="Capa_4" class="st0">
</g>
<g id="Capa_6" class="st0">
</g>
<g id="Capa_5" class="st0">
</g>
<g id="Capa_7" class="st0">
</g>
<g id="Capa_8">
</g>
<g id="Capa_9" class="st0">
</g>
<g>
	<path class="st1" d="M313,407.2c0-3.7,0-7,0-10.3c0-3.6-1.4-5-5-5.1c-6.2,0-12.4,0-18.7,0c-3.6,0-4.9,1.4-4.9,5.1c0,16,0,32,0,47.9
		c0,3.7,1.3,5.1,5.1,5.1c6.1,0,12.2,0,18.3,0c3.8,0,5.2-1.4,5.2-5.2c0-3.2,0-6.3,0-9.5c0-0.1,0.1-0.2,0.1-0.5
		c0.4-0.1,0.9-0.2,1.5-0.2c4.8,0,9.7,0,14.5,0c1.3,0,1.8,0.4,1.7,1.8c-0.1,4.7,0.1,9.3-0.1,14c-0.3,9.5-7.3,16.4-16.8,16.5
		c-10,0.1-20,0.1-30,0c-10.5,0-17.5-6.9-17.6-17.6c-0.2-18.9-0.2-37.7,0-56.6c0.1-9.6,5.4-15.8,14.6-17.5c0.9-0.2,1.9-0.2,2.9-0.2
		c9.9,0,19.7-0.1,29.6,0c9.1,0.1,15.5,5.3,17.1,14.2c0.5,3,0.3,6.2,0.3,9.3c0,2.5,0.1,4.9,0,7.4c0,0.5-0.6,1.3-0.9,1.3
		C324.4,407.3,318.8,407.2,313,407.2z M320.4,441.8c0,2.3,0.1,4.7,0,7.1c-0.2,4.3-3,7.6-7.2,7.8c-9.7,0.3-19.4,0.2-29,0
		c-3.9-0.1-6.4-3-7-6.8c-0.2-1.3-0.3-2.6-0.3-3.9c0-13.6,0-27.3,0-40.9c0-3.5-0.1-7.1,0-10.6c0.1-5.9,2.7-9.3,8.5-9.5
		c9-0.4,18-0.4,26.9,0c5.6,0.3,8.1,3.4,8.3,9.1c0.1,1.7,0.1,3.5,0,5.2c0,1,0.5,1.3,1.4,1.3c0.9,0,1.5-0.2,1.4-1.3
		c-0.1-2,0.1-4-0.1-5.9c-0.5-6.9-4.8-11.2-11.3-11.3c-8.9-0.1-17.8-0.1-26.7,0c-6.5,0.1-11.1,4.7-11.2,11.2
		c-0.1,18.4-0.1,36.9,0,55.3c0,6.4,4.6,11,11,11.2c9,0.2,18.1,0.2,27.1,0c5.9-0.1,10-3.8,10.9-9.7c0.3-2.1,0.3-4.2,0.3-6.3
		C323.4,441.4,323.3,441.3,320.4,441.8z"/>
	<path class="st1" d="M365.3,392.4c0,6.2,0,12,0,17.9c0,0.4,0.6,0.8,1.1,1c0.4,0.2,0.9,0,1.4,0c9.6,0,19.3,0,28.9,0
		c1.7,0,2.2,0.5,2.1,2.1c-0.1,4.4-0.1,8.7,0,13.1c0,1.4-0.4,1.8-1.8,1.8c-9.9-0.1-19.7,0-29.6-0.1c-1.6,0-2.2,0.3-2.2,2.1
		c0.1,6.2,0,12.4,0,18.9c13.8,0,27.4,0,41.2,0c0,5.8,0,11.3,0,17c-19.6,0-39.2,0-58.9,0c0-30.2,0-60.4,0-90.7c19.6,0,39.2,0,58.9,0
		c0,5.5,0,11.1,0,16.9C392.8,392.4,379.2,392.4,365.3,392.4z M357.9,421.3c0.9,0,1.6,0,2.3,0c9.8,0,19.5,0,29.3,0
		c1.4,0,1.9-0.5,1.8-1.9c-0.2-1.5-1.3-1-2-1c-9.8,0-19.6-0.1-29.4,0c-1.6,0-2-0.4-2-2c0.1-9.7,0-19.4,0-29.1c0-0.6,0.1-1.3,0.1-2
		c1,0,1.8,0,2.5,0c12.2,0,24.4,0,36.6,0c1.3,0,2.2-0.1,2.1-1.8c-0.1-1.5-1.2-1.1-2-1.1c-13.3,0-26.6,0-39.9,0c-2.5,0-2.5,0-2.5,2.5
		c0,18.7,0,37.3,0,56c0,5.6,0,11.1,0,16.7c0,1.2,0.3,1.8,1.6,1.7c13.7,0,27.4,0,41.1,0c1.3,0,1.6-0.5,1.6-1.7
		c-0.1-1.6-1.2-1.2-2.1-1.2c-12.3,0-24.5,0-36.8,0c-0.8,0-1.5,0-2.4,0C357.9,444.6,357.9,433.1,357.9,421.3z"/>
	<path class="st1" d="M238.1,432c5,11.5,10,22.8,15.1,34.4c-4.7,0-9.2,0-13.7,0c-1.8,0-4.1,0.5-5.4-0.3c-1.3-0.9-1.7-3.1-2.5-4.8
		c-3.9-9-7.8-18-11.7-27c-0.5-1.3-1.2-1.8-2.7-1.8c-4.2,0.1-8.5,0-12.9,0c0,11.3,0,22.5,0,33.7c-6.1,0-12,0-18,0
		c0-30.3,0-60.5,0-90.8c0.6,0,1.1-0.1,1.6-0.1c14.9,0,29.8,0,44.7,0c8.6,0,15,4.8,17.1,12.6c0.5,1.8,0.6,3.7,0.6,5.5
		c0.1,6.5-0.2,12.9,0.1,19.4C250.8,422.1,247,428.8,238.1,432z M227.3,425.6c1.5,0,2.5,0,3.5,0c6.9-0.2,11.4-3.6,11.8-10.4
		c0.5-7.6,0.3-15.3-0.1-22.9c-0.3-5-3.6-8.3-8.5-9.4c-1.4-0.3-3-0.4-4.4-0.4c-11.1,0-22.3,0-33.4-0.1c-1.8,0-2.3,0.4-2.3,2.3
		c0.1,24.1,0,48.2,0,72.3c0,0.4,0,0.7,0,1.1c-0.1,0.9,0.4,1.2,1.3,1.3c1.5,0.1,1.5-0.7,1.5-1.8c0-9.9,0-19.7,0-29.6
		c0-0.7,0-1.4,0-2.3c0.8,0,1.5,0,2.1,0c7.9,0,15.8,0,23.7,0c1.4,0,2.1,0.4,2.6,1.7c4.4,10.1,8.8,20.3,13.2,30.4
		c0.8,1.8,1.3,2,3.4,1.2C237,447.9,232.2,436.9,227.3,425.6z"/>
	<path class="st1" d="M173.9,466.4c-5,0-9.8,0-14.6,0c-1.5,0-3.5,0.4-4.5-0.3c-1-0.7-1-2.7-1.4-4.1c-1.4-4.8-2.8-9.6-4.2-14.4
		c-0.3-1.1-0.7-1.7-2-1.7c-8.9,0.1-17.7,0.1-26.6,0c-1.3,0-1.8,0.5-2.1,1.6c-1.6,5.7-3.4,11.4-5,17.2c-0.4,1.3-0.9,1.8-2.3,1.8
		c-5.5-0.1-11,0-16.7,0c0.2-0.7,0.3-1.3,0.5-1.8c9.4-29.1,18.7-58.3,28.1-87.4c0.4-1.4,1-1.8,2.5-1.8c5.9,0.1,11.7,0.1,17.6,0
		c1.1,0,1.7,0.2,2,1.4c9.4,29.4,18.9,58.7,28.3,88.1C173.6,465.3,173.7,465.7,173.9,466.4z M163.4,459.1c-0.2-0.6-0.3-1.2-0.5-1.9
		c-2.4-7.9-4.8-15.9-7.3-23.8c-5-16.4-10.1-32.9-15.1-49.3c-0.4-1.2-0.9-1.7-2.2-1.7c-2.6,0.1-5.3,0.1-7.9,0
		c-1.7-0.1-2.4,0.5-2.9,2.1c-6.4,20.9-13,41.8-19.5,62.8c-1.2,3.9-2.4,7.8-3.6,11.8c1.8,0.6,2.6,0.3,3.1-1.5
		c1.7-5.7,3.5-11.4,5.2-17.1c0.3-1.1,0.8-1.6,2.1-1.6c12.7,0,25.5,0,38.2,0c1.1,0,1.7,0.3,2,1.5c1.7,5.8,3.5,11.5,5.2,17.3
		C160.9,459.3,161.7,459.7,163.4,459.1z"/>
	<path class="st1" d="M46.7,466.3c-6,0-11.8,0-17.7,0c0-30.3,0-60.5,0-90.8c0.4,0,0.9-0.1,1.3-0.1c15.1,0,30.2,0,45.2,0
		c8.5,0,15,5,16.9,13c0.3,1.4,0.5,2.8,0.5,4.3c0,8.1,0.1,16.2,0,24.2C93,426.8,85.9,434,76,434.1c-8.9,0.1-17.7,0-26.6,0
		c-2.7,0-2.7,0-2.7,2.6c0,9.1,0,18.2,0,27.3C46.7,464.7,46.7,465.4,46.7,466.3z M39.2,427.1c1,0,1.7,0,2.4,0c10.6,0,21.3,0,31.9,0
		c6.8,0,11.4-4,11.7-10.7c0.3-7.9,0.2-15.9,0-23.8c-0.2-4.7-3.4-8.3-8-9.4c-1.7-0.4-3.5-0.6-5.3-0.6c-11-0.1-22,0-33,0
		c-2.6,0-2.6,0-2.6,2.5c0,23.9,0,47.9,0,71.8c0,0.4,0,0.8,0,1.3c-0.1,1,0.5,1.3,1.4,1.4c1.4,0.1,1.5-0.8,1.5-1.8
		c0-7.9,0-15.8,0-23.7C39.2,431.7,39.2,429.5,39.2,427.1z"/>
	<path class="st1" d="M441.1,375.4c0,24.7,0,49.2,0,73.9c12.7,0,25.2,0,37.9,0c0,5.7,0,11.3,0,17c-0.6,0-1.2,0.1-1.8,0.1
		c-17.4,0-34.7,0-52.1,0c-1.7,0-2.1-0.5-2.1-2.1c0-29,0-57.9,0-86.9c0-1.6,0.4-2.1,2.1-2.1C430.3,375.4,435.6,375.4,441.1,375.4z
		 M433.4,456.4c0-1,0-1.7,0-2.5c0-23,0-46,0-68.9c0-0.5,0.1-1.1-0.1-1.6c-0.1-0.4-0.6-0.8-1-0.9c-1.3-0.3-1.7,0.3-1.7,1.7
		c0.1,6.5,0,12.9,0,19.4c0,17.9,0,35.8,0,53.7c0,1.1-0.2,2.1,1.5,2.1c12.7,0,25.4,0,38.1,0c1.2,0,1.5-0.6,1.5-1.6
		c0-1.6-1.1-1.3-2-1.3c-11.3,0-22.5,0-33.8,0C435.2,456.4,434.4,456.4,433.4,456.4z"/>
	<path class="st1" d="M196.9,385.3c0.7,0,1.2,0,1.8,0c10.5,0,20.9,0,31.4,0c1.4,0,2.9,0.1,4.2,0.5c3.5,1.1,5.4,3.7,5.5,7.2
		c0.2,7.3,0.2,14.6,0,21.9c-0.1,4.3-3.4,7.5-7.8,7.6c-6.9,0.2-13.9,0.1-20.8,0.1c-4.3,0-8.6,0-12.9,0c-1,0-1.7,0-1.7-1.4
		c0-11.7,0-23.4,0-35.2C196.7,386,196.8,385.8,196.9,385.3z M204.3,392.4c0,7.7,0,15.1,0.1,22.5c0,0.3,0.8,1,1.3,1
		c7.5,0.1,14.9,0.1,22.4,0c2.9,0,4.4-1.6,4.4-4.5c0-4.8,0.1-9.7,0-14.5c0-2.9-1.6-4.4-4.5-4.4c-6.5,0-13,0-19.5,0
		C207.2,392.4,205.9,392.4,204.3,392.4z"/>
	<path class="st1" d="M153.8,435.8c-13.3,0-26.3,0-39.5,0c1.5-4.9,2.9-9.6,4.4-14.3c3.6-11.4,7.2-22.9,10.7-34.4
		c0.4-1.4,1-1.9,2.5-1.8c1.6,0.1,3.2,0.1,4.8,0c1.3-0.1,1.9,0.4,2.2,1.7c3.6,11.9,7.2,23.7,10.8,35.6
		C151.1,426.9,152.4,431.2,153.8,435.8z M134.4,395.8c-0.2,0-0.4,0-0.6,0c-3.2,10.9-6.4,21.8-9.7,32.9c6.7,0,13.1,0,19.8,0
		C140.6,417.7,137.5,406.7,134.4,395.8z"/>
	<path class="st1" d="M39.2,424.2c0-0.8,0-1.3,0-1.9c0-11.6,0-23.2,0-34.8c0-1.7,0.5-2.2,2.2-2.2c10.3,0.1,20.7,0,31,0.1
		c1.8,0,3.6,0.2,5.2,0.8c3.3,1.3,4.8,4.1,4.9,7.5c0.1,7.4,0.1,14.7,0,22.1c-0.1,4.9-3,8.2-8.4,8.4C62.6,424.5,51.1,424.2,39.2,424.2
		z M47.1,392.4c-0.2,0.4-0.2,0.4-0.2,0.5c0,7.7,0,15.4-0.1,23.1c0,1.1,0.6,1.3,1.5,1.3c7.5,0,14.9,0,22.4,0c3,0,4.5-1.5,4.5-4.6
		c0.1-5.2,0.1-10.4,0-15.6c0-3.2-1.5-4.6-4.7-4.6c-6.5,0-12.9,0-19.4,0C49.7,392.4,48.4,392.4,47.1,392.4z"/>
</g>
</svg>
