<?xml version="1.0" encoding="utf-8"?>
<!-- Generator: Adobe Illustrator 19.0.0, SVG Export Plug-In . SVG Version: 6.00 Build 0)  -->
<svg version="1.1" id="Capa_1" xmlns="http://www.w3.org/2000/svg" xmlns:xlink="http://www.w3.org/1999/xlink" x="0px" y="0px"
	 viewBox="-22 195.9 550 450" style="enable-background:new -22 195.9 550 450;" xml:space="preserve">
<style type="text/css">
	.st0{display:none;}
	.st1{fill:#DE3835;}
</style>
<g id="Capa_2" class="st0">
</g>
<g id="Capa_3" class="st0">
</g>
<g id="Capa_4" class="st0">
</g>
<g id="Capa_6">
</g>
<g id="Capa_5" class="st0">
</g>
<g id="Capa_7" class="st0">
</g>
<g id="Capa_8" class="st0">
</g>
<g id="Capa_9" class="st0">
</g>
<g>
	<path class="st1" d="M428.2,411.8c-0.1-4.5-0.4-9.1-0.6-13.6c-0.2-4.6-0.4-9.2-0.8-13.8c-0.8-6.3-1.7-12.7-3.1-18.8
		c-1.1-5.1-2.8-9.9-4.6-14.8c-2.2-5.7-4.5-11.5-7.3-16.9c-4.6-8.8-10.7-16.6-16.2-24.7c-3.7-5.2-8.4-9.5-12-14.8c-2-3.1-5-5.7-7.9-8
		c-4.7-3.8-9.7-7.2-14.7-10.5c-3.8-2.6-7.6-5.1-11.6-7.3c-3.2-1.8-6.6-3.2-9.9-4.7c-3.8-1.8-7.5-3.9-11.7-4.7
		c-1.1-0.2-2-0.6-3.1-0.9c-2.7-0.9-5.3-2-8-2.8c-4.1-1.3-8.2-2.8-12.4-3.9c-4.1-1.1-8.4-1.8-12.7-2.4c-4.7-0.7-9.6-0.9-14.3-1.4
		c-3.1-0.4-6.2-0.7-9.1-0.8c-4.5-0.2-9.1-0.2-13.6-0.4c-2.2-0.1-4.6-0.4-6.9-0.2c-3.4,0.1-6.9,0.5-10.3,0.9
		c-3.3,0.4-6.6,0.9-9.8,1.4c-3.9,0.5-7.8,0.7-11.7,1.2c-3.7,0.5-7.5,1.2-11.1,1.8c-1.3,0.2-2.6,0.7-3.9,0.9
		c-2.8,0.6-5.8,0.8-8.6,1.8c-5.1,1.5-10.2,3.3-15.2,5.2c-4.6,1.9-9.1,3.9-13.5,6.3c-4.5,2.5-8.8,5.4-13,8.3c-4,2.7-8,5.6-12,8.6
		c-3.8,3-7.3,6.3-10.8,9.6c-1.9,1.9-3.4,4.1-5.2,6.3c-3,3.4-5.9,6.7-8.8,10.3c-2.4,3-4.5,6-6.7,9.1c-4,5.4-7.5,11.2-10.7,17
		c-1.3,2.4-2.5,4.7-3.7,7.1c-1.8,3.6-3.7,7-5.3,10.7c-1.2,2.5-2.1,5.2-2.8,7.9c-1.7,5.8-3.3,11.7-4.9,17.5c-1.4,5.2-1.8,10.7-1.9,16
		c-0.1,4.7,0.4,9.4,0.8,14.1c0.1,1.2-0.6,2.6,0.8,3.6c0.1,0,0,0.5-0.1,0.6c-0.4,0.7,0,1.4,0.7,1.7c0,0,0.1,0.1,0.1,0.2h-0.6
		c-0.4,1.1,0.8,1.9,0.4,3.1c-0.1,0.2,0.4,0.7,0.6,1.1c0,0.4-0.1,0.8,0,1.2c0.1,1.1,0.6,2.1,0.6,3.3c0,0.8,0.7,1.8,0.9,2.6
		c0.1,0.4,0,0.9-0.2,1.2c-0.7,0.8-0.6,1.5,0.5,2c0.2,0.1,0.6,0.6,0.6,0.8c0,0.7-0.2,1.4-0.4,2.1c0.2,0.2,0.4,0.5,0.2,0.7
		c0,0.4-0.4,0.7-0.2,0.9c0.9,1.9,1.3,4,1.4,6.2c0,0.5,0.2,0.9,0.5,1.5c0.1,0,0.5,0,0.7,0.1l-0.7,2.1c0.6-0.4,1.1-0.5,1.7-0.7
		c0.4,1.5,0.7,3,1.2,4.3c0.1,0.2,0.4,0.5,0.7,0.7c-0.1,0.2-0.1,0.7-0.4,0.8c0.5,2.1,0.7,4.1,1.5,6.2c0.1,0,0.2-0.1,0.4-0.1
		c-0.4-2.1-0.6-4.4-0.9-6.5v-0.7c0,0,0.2-0.1,0.4-0.1c0.1,0.5,0.4,1.1,0.4,1.4c0.9,0,2.4,0.6,3.3,0.6c0.1-0.4,0.2-0.8,0.4-1.1
		c-0.7-0.7-1.3-1.8-2-2.5c0.2,0.9,0,1.3,0,1.7c-0.5-0.2-1.1-0.5-1.7-0.7c0.5-0.6,0.9-1.2,1.7-1.9c0-1.1-0.6-2-2.2-1.9
		c0.7-0.2,1.4-0.6,2.2-0.8c0.1,0.4,0.2,0.7,0.4,0.9c0.9-1.7-0.5-3-0.5-4.6c0.1-2-1.1-4-1.4-6.2c-0.6-3.3-0.5-8.3-0.8-11.6
		c0-0.2-0.4-0.5-0.6-0.7c-0.1,0.1-0.7,1.7-0.8,1.8c0.4,2.8,0.7,5.7,0.9,8.5c-0.1,0-0.2,0-0.2,0.1c-0.5-2.5-0.9-5.1-1.5-7.9
		c-0.1,0.8-0.2,1.2-0.2,1.7c-0.4-0.1-0.5-0.2-1.1-0.5c0.5,1.1,0.9,1.8,1.3,2.6c-0.8-0.4-1.8-0.2-1.8-0.2v3.3c-1.2-1.2-1.5-2.1-2.1-3
		c-0.2-0.9-0.4-1.9-0.6-2.8l0.4-0.1c-0.1-0.5-0.4-0.8-0.4-1.2c-0.1-0.9-0.3-1.9-0.4-2.8c0.1-0.1,0.6-0.2,0.8-0.5l-0.9-1.4
		c0.9,0.1,1.5,0.2,2.1,0.2c0-0.2,0.1-0.4,0-0.5c-1.2-1.1-0.4-2,0.1-3c0.2-0.5,1.1-0.6,1.3-1.1c0.9-1.8,2.5-3.2,2.5-5.4
		c0-1.1,0.4-2.2,0.5-3.3c0.2-2,0.5-4,0.6-6c0.2-2.6,0-5.2,0.6-7.7c0.9-4.1,2.1-8.3,3.4-12.4c0.9-3,2-5.8,3.2-8.8
		c1.8-4.6,3.4-9.2,5.7-13.6c3.2-6.4,6.9-12.5,10.4-18.8c2.2-3.9,4.6-7.6,7.1-11.4c2.4-3.7,4.7-7.5,7.5-10.9
		c3.8-4.9,7.9-9.4,12.5-13.4c4.7-4.3,9.2-8.6,14.3-12.5c6.6-5.1,13.6-9.6,21.1-13.5c6-3.2,12.3-5.7,18.6-8c4-1.5,8.4-2.2,12.5-3.6
		c4.7-1.5,9.5-2.2,14.4-2.4c3.2-0.1,6.3-0.5,9.5-0.8c2.8-0.2,5.7-0.5,8.8-0.8c-0.2,0.3-0.4,0.6-0.6,0.9c-1.3,1.9-2.7,3.8-4,5.7
		c-1.1,1.5-2.2,3.2-3.3,4.7c-1.9,2.5-3.9,5-5.7,7.6c-2.7,3.9-5.2,7.9-8,11.8c-2.8,3.8-5.9,7.3-8.9,11c-3.9,5.1-7.6,10.3-11.5,15.4
		c-3.6,4.9-7.3,9.5-10.8,14.3c-3.1,4.3-5.8,8.8-8.8,13.1c-4.4,6.5-8.8,12.9-13.1,19.4c-3.4,5-6.9,9.9-10.4,14.8
		c-0.2,0.4-0.6,0.5-0.9,0.7c-0.2,0.2-0.7,0.5-0.7,0.7c-0.2,0.8-0.2,1.7-0.6,2.4c-0.9,1.8-1.9,3.6-3,5.2c-0.6,0.9-1.4,1.8-2.1,2.7
		c-0.2-0.1-0.4-0.2-0.6-0.2c0.5-1.2,2.5-1.9,1.5-3.7c-0.6,0.9-1.2,1.8-1.8,2.7l-1.4,2.8c0.5,0.4,1.3,0.6,0.5,1.3
		c-0.4,0.6-0.7,1.3-1.1,1.9c0.1,0,0.1,0.1,0.2,0.1c0.4-0.5,0.7-0.8,1.1-1.3c0.1,0,0.2,0.1,0.4,0.1c-0.4,1.2-1.1,2.2-1.7,3.3
		c-0.5,0.9-1.7,1.7-2.5,2.4c0.1,0.1,0.9,0.5,1.1,0.6c0.4-0.5,0.5-0.2,0.8-0.7c0.2,0.4,0.6-0.2,0.7,0.1c0.4-0.5,0.7-0.8,0.8-1.2
		c0.5-1.2,1.2-2.1,2.4-2.6c0.5-0.2,0.8-0.6,1.2-0.9c3.6-3.7,7.2-7.2,10.4-11.1c5-6,9.5-12.3,14.2-18.5c2-2.6,4.4-5.2,6.5-7.7
		c0.2,0.1,0.5,0.1,0.6,0.2c-0.2,2.5-0.5,5.1-0.6,7.6c-0.4,4.4-0.6,8.8-0.9,13.3c-0.1,1.8,0,3.5-0.1,5.3c0,0.5-0.4,0.8-0.4,1.3
		c0,1.2,0.4,2.5,0.4,3.7c-0.4,4.4-0.8,8.6-1.2,13c-0.1,0.9,0.4,1.9,0.6,2.7c-0.1-0.1-0.2-0.2-0.6-0.5c0,6.9,1.3,13.6,0.2,20.4
		c0.5-0.1,0.7-0.2,0.7-0.5c0.1-0.8,0.4-1.7,0.4-2.5c0.1-0.7,0-1.4,0-2.2v-1.2c0.1-2.1,0.6-4.4,0.4-6.5c-0.2-2.4-0.2-4.6,0.2-6.9
		c0.2-0.9-0.1-2.1,0.5-3.3v1.8c-0.1,6.7,0.1,13.5-0.8,20.2c-0.1,0.6,0.4,1.7-0.9,1.5c-0.1,0-0.2,0.6-0.5,0.9
		c-0.6,1.2,0.7,2.7-0.5,3.9c-0.2,0.2,0.2,1.3,0.4,2c0,0.2,0.1,0.5,0,0.6c-0.5,0.8-0.5,0.8,0.2,0.9c0.1,2.6,0.4,5,0.5,7.5h0.4
		c1.5-4.5,0.6-9.1,1.4-13.7c0.1,1.9,0.2,3.8,0.1,5.8c0,3.1-0.1,6-0.2,9.1c0,0.6-0.1,1.2-0.2,1.8c-0.4,1.7-0.5,3.3-1.1,4.9
		c-0.5,1.2-0.2,3-0.2,4.4v4.5c0,0.1,0.4,0.5,0.4,0.9c0.1,1.1-0.5,2.1-0.1,3.3c0.1,0.2-0.1,0.6-0.2,0.8c-0.1,0.4-0.2,0.7-0.1,1.1
		l0.4,1.8c0,0.1,0.1,0.2,0.2,0.5c0.1-0.5,0.1-0.8,0.1-0.9c2,0.2,0.9,2,1.9,3c-0.5,0.2-0.8,0.4-0.8,0.5c0.1,0.5,0.4,0.8,0.4,1.3
		c0,1.1-0.1,2-0.2,3.1c0,2.7-0.1,5.4-0.1,8c0,0.4,0.1,0.7,0.1,1.1c0,0.2-0.1,0.5-0.1,0.8v2.5h0.5c-0.2,0.4-0.5,0.7-0.8,1.1
		c-0.1,0-0.5,0-0.5-0.1v-14.9h-1.8c-0.2,7.1,0.4,13.5-0.9,20.1c-1.4,0.1-1.9,0.4-3.4,0.4c-3.7,0-7.3,0-11,0.1c-4.4,0-8.6,0.1-13,0.1
		c-2.1,0-4.4,0.2-6.5,0.2c-2.8,0-5.8-0.4-8.6-0.4c-4.4,0-8.6,0.4-13,0.5c-3.2,0.1-6.4,0.1-9.6,0.2c-2.1,0.1-4.3,0.2-6.4,0.5
		c-0.9,0.1-1.8,0.5-3,0.8c-0.4,0-1.2-0.1-1.9,0c-1.2,0.2-2.2,0.9-3.4,1.2c-1.8,0.4-2.2,0.8-2,2.6v1.2c-0.2-0.2-0.5-0.4-0.8-0.6
		c-0.1,0-0.2,0.1-0.2,0.1c0.1,0.4,0.4,0.6,0.5,0.9c0.5-0.2,1.1-0.8,1.5-0.8h1.7c-0.2,0-0.4,0.7-0.7,1.3c0.7-0.3,1.4-0.5,2.1-0.8
		c0.1,0.4,0.1,0.8,0.1,0.9c1.7-0.1,3.2-0.6,4.6-0.2c4.6,1.2,9.4,1.7,14.1,2.1c3.1,0.2,6,0.4,9.1,0.5c4.4,0.2,8.8,0.5,13.1,0.5
		c3.7,0,7.2-0.4,10.9-0.4c5.1,0,10.2,0.2,15.3,0.4c1.1,0,2.2-0.1,3.4-0.1h8.6c7.7-0.2,15.4-0.4,23.1-0.6c4.4-0.1,8.9-0.4,13.3-0.5
		l13.5-0.4c5.2-0.1,10.4-0.1,15.5-0.2c3.9,0,7.7-0.1,11.6-0.2c4.4-0.1,8.9-0.5,13.3-0.7c2.4-0.1,4.7-0.4,7.1-0.6
		c2.8-0.2,5.8-0.6,8.6-0.7c4.3-0.2,8.6-0.4,12.9-0.6c5.3-0.4,10.7-0.8,16.1-0.9c5-0.2,10.1-0.1,15-0.2c4.4-0.1,8.8-0.4,13.3-0.5
		l7.5-0.4c0,0,5-0.1,7.5-0.4c4.3-0.2,8.5-0.7,12.8-0.8c2.7-0.1,5.4,0,8.2-0.1c4.4-0.1,8.9-0.4,13.3-0.4c1.7,0,3.4,0.2,5.6,0.4
		c-0.9,0.8-1.5,1.3-2.2,1.9c0.5,0.1,0.9,0.4,1.4,0.6c0,0.1-0.1,0.2-0.1,0.5c-0.6,0-1.2,0.1-1.8,0.1c-0.2,0.6-0.5,0.8-0.7,2h2.1
		c-0.8,0-1.5,1.1-2.4,1.8c0.1,0.1,0.2,0.1,0.4,0.2c-1.3-0.5-2.1-0.2-2.6,1.1c0.4,0.1,0.6,0.1,0.9,0.1c-0.1,0.4-0.2,0.7-0.4,1.2
		c-0.1,0.2-0.2,0.5-0.2,0.8l-0.4-0.4c0-0.2,0-0.5-0.1-0.7c-0.7,0.7-1.8,1.2-1.2,2.7c-0.5,0.2-1.1,0.5-1.7,0.8
		c0.1,0.2,0.4,0.5,0.5,0.8c-1.1,0.1-2.1,0.4-1.9,1.7c0.5,0.1,0.9,0.4,1.3,0.5c-0.6,0.2-1.2,0.6-1.8,0.8c-0.1,0.2-0.2,0.8-0.5,0.9
		c-1.7,0.4-0.7,0.9-0.2,1.5c-0.4,0.2-0.7,0.5-1.1,0.6c0.4,0.1,0.6,0.2,0.8,0.5c-0.4,0.2-0.6,0.4-0.8,0.5c0.2,0.1,0.6,0.4,0.7,0.4
		c-0.5,0.4-1.1,0.8-1.8,1.4c0,0.2,0,0.4,0.1,0.6c-0.5,0.5-0.9,0.9-1.4,1.7c-0.5,0.7-0.7,1.7-1.3,2.4c-2.5,2.7-4.3,5.9-7.5,8
		c-1.2,0.8-2.2,1.9-3.3,3c-2.1,2-4,4.3-6.3,6.2c-3,2.5-6,4.7-9.2,7c-3.9,2.7-7.8,5.4-11.7,8c-2.1,1.4-4.5,2.5-6.7,3.8
		c-2.2,1.3-4.4,2.5-6.6,3.8c-1.4,0.9-2.7,2.2-4.3,3c-3.9,1.7-8,3.1-12.1,4.6c-0.4,0.1-0.6,0.2-0.9,0.4c-3,1.3-5.8,2.7-8.8,3.8
		c-2.7,0.9-5.6,1.7-8.4,2.2c-0.9,0.2-2,0-3.1,0.1c-2,0.4-4,0.8-6,1.1c-5.2,0.7-10.4,1.2-15.6,1.9c-3.1,0.4-6,0.9-9.1,1.3
		c-2.1,0.1-4.4-0.1-6.5-0.1c-1.5,0-3.2,0.4-4.7,0.1c-2.5-0.4-5-0.9-7.5-1.4c-0.6-0.1-1.4-0.4-1.9-0.1c-0.9,0.5-1.8-0.2-2.7,0
		c-0.6,0.1-1.2-0.4-1.8-0.4c-0.5-0.1-1.1,0.1-1.7,0c-1.3-0.4-2.5-0.8-3.9-0.7c-1.4,0.1-2.8-0.6-4.4-0.9c-2.1-0.5-4.1-0.9-6.3-1.4
		c-0.8-0.2-1.5-0.6-2.4-1.1c-0.2,0.1-0.6,0.4-1.1,0.4c-2-0.4-4-0.5-5.9-1.2c-1.7-0.6-3.2-1.4-5-1.2c-0.5,0.1-0.8-0.1-1.3-0.1
		c-0.4-0.5-0.7-1.4-1.1-1.4c-2.4,0.1-3.8-1.9-5.8-2.5c-1.1-0.4-1.9-1.5-3-1.9c-2.6-1.1-4.7-3.3-7.7-3.7c-0.9-0.1-1.9-0.6-3-0.9
		c0.4,0.5,0.6,0.8,0.9,1.2l-0.2,0.2c-3.2-1.9-6.4-3.8-9.6-5.6c-0.5-0.1-0.8-0.6-1.2-0.8l-3.2-2.1c-0.4-0.2-1.1-0.6-1.1-0.5
		c-0.7,0.8-1.4,0.1-1.9-0.1c-3.2-2.2-6.9-3.7-9.9-6.2c-1.3-1.1-2.8-1.8-3.8-3.1c-1.7-2-3.7-3.4-5.9-4.6c-1.8-0.9-3.4-2-5.1-3.1
		c-0.8-0.6-1.7-1.3-1.7-2.6c0-0.8-0.4-1.7-1.4-1.2c-0.5-0.7-0.9-1.5-1.5-1.8c-1.4-0.6-2.4-1.7-3.4-2.6c-1.1-0.9-1.9-2.3-3.2-2.7
		c-2.4-0.9-3.8-3-5.2-4.6c-3.3-3.9-6.3-8.2-9.4-12.3c-0.2-0.4-0.7-0.6-1.1-0.9l-0.1,0.1c0.6,1.2,1.2,2.2,1.8,3.4
		c-0.1,0.1-0.4,0.2-0.5,0.4c-0.7-0.8-1.5-1.7-2.2-2.5c-0.1,0.1-0.2,0.2-0.4,0.2l8.5,13.5c0.7,1.1,1.3,2.1,2,3.2
		c-0.1,0.1-0.3,0.3-0.5,0.4c-1.3-0.2-2.5-1.2-3.1-2.3c-1.1-1.9-2.2-3.1-4.6-2.8c-0.2-0.8-0.5-1.8-0.6-2.6c-0.5,0-0.8,0-1.7-0.1
		c1.7,2.6,3.1,4.9,4.6,7.5c-0.6-0.4-0.9-0.6-1.2-0.7c2.1,2.2,3.7,5.1,6.4,6.5c0.6,2.7,3.7,4,4.4,6.6c-0.6-0.1-1.1-0.2-1.7-0.4
		c-0.9-1.2-2-2.4-3.1-3.7c0.2,0.8,0.6,1.5,1.1,2.1c1.4,1.8,2.7,3.6,4.4,5.1c0.6,0.6,1.4,0.8,1.4,1.9c0.2-0.2,0.5-0.4,0.9-0.6
		c-0.2,0.5-0.4,0.7-0.5,1.1c0.5,0,0.8,0.1,1.2,0.1c0.2,0.7-0.1,1.8,1.3,1.5c0.1,0,0.2,0.1,0.4,0.2c0.6,1.5,1.5,1.5,2.8,0.9
		c0.2-0.1,0.8,0,0.9,0.2c0.6,1.3,1.4,1.4,2.5,0.5c0,0.6,0.1,1.2,0.1,1.7h0.5c0-0.2-0.1-0.6-0.1-1.2c0.6,0.5,0.9,0.7,1.2,0.9
		c1.2,1.7,2.2,3.2,3.9,4.5c2.2,1.9,4.3,3.9,6.4,5.7c4.1,3.4,8.8,6.3,13.4,8.9c5.7,3.2,11.1,6.6,16.9,9.7c7,3.7,14.4,6.2,22.1,7.9
		c2.8,0.6,5.6,1.2,8.4,1.9c2.5,0.7,5,1.8,7.5,2.4c3.8,0.8,7.7,1.5,11.5,2.2c0.8,0.1,1.7,0.2,2.6,0.4v0.2c1.1,0,2.4-0.5,2.6-0.1
		c0.6,0.9,1.1,0.5,1.8,0.4c0.8-0.2,1.8-0.2,2.7-0.2c3.3,0.1,6.5,0.8,9.8,0.6c0.7,0,1.8-0.6,2.4,0.6c0.2-0.1,0.4-0.2,0.6-0.4
		c0.5-0.1,1.1-0.1,1.5-0.2v0.2c-0.2,0.1-0.5,0.1-0.9,0.2c0.6,0.1,0.9,0.2,1.3,0.4c-0.2,0.2-0.4,0.2-0.6,0.4
		c-0.2,0.1-0.6,0.2-1.1,0.6c4.3,0.8,8.3,0.9,11.8,0v-0.7h0.5c0,0.2,0.1,0.5,0.2,0.7c5.4,0.5,10.8-0.2,15.9-2
		c0.5,0.6,0.8,1.4,1.5,0.2c0.2-0.4,0.8-0.5,1.3-0.6c1.1-0.2,2.4-0.7,3.3-0.4c1.1,0.4,1.4-0.6,2.2-0.6c1.3,0,2.7-0.1,4-0.4
		c0.7-0.1,1.4-0.5,2.2-0.7c0-0.1,0-0.2-0.1-0.4c-0.8-0.1-1.8-0.2-2.5-0.2c1.4-0.7,2.7-1.3,4-1.9c0,0.1,0.1,0.1,0.1,0.2
		c-0.4,0.1-0.6,0.6-1.1,0.6h1.7c-0.4,0-0.8,1.1-1.4,1.8c4.3-1.1,8.2-2,12-3v-0.2c-0.5,0.1-0.8,0.1-1.2,0.2c-0.1-2.5,2.6-1.7,3.6-3.1
		c-1.2,0.4-2.4,0.7-3.6,0.9v-0.2c4-1.8,8.2-3.6,12.2-5.3c0,0.1,0.1,0.1,0.1,0.2c-0.7,0.5-1.4,0.8-2.5,1.4c0.7,0.1,1.2,0.1,1.5,0.2
		c0,0.4,0,0.6-0.1,0.7c2-0.1,1.5-1.9,2.1-3c0.4,0.1,0.8,0.4,1.2,0.2c1.1-0.2,2-0.6,3.1-0.9c1.2-0.4,2.4-0.7,3.6-1.2
		c1.9-0.8,3.7-1.9,5.6-2.8c0.4-0.1,0.9,0,1.4,0c0.4,0,0.6-0.2,0.8-0.5c0.5-0.4,0.9-1.1,1.3-0.9c1.7,0.2,2.8-0.4,3.3-1.9
		c0.1,0,0.1-0.1,0.2-0.1c0.6-0.5,1.2-0.9,1.8-1.3c2.6-1.4,5.1-2.8,7.7-4.3c0.1-0.1,0.4,0,0.6,0c0.4,0,0.8,0,1.1-0.1
		c1.5-0.7,3-1.5,4.4-2.4c-0.4-0.1,0-0.2-1.2-0.4v-0.2c1.2-0.2,1.5-0.4,2.2-0.6l-0.2-0.2c3.1-3.1,7-5.3,9.9-7.9
		c0.6,0.1,0.8,0.2,1.2,0.2c0.1-0.4,0.1-0.7,0.1-0.9c0.5-0.6,0.9-1.3,1.5-1.8c2.6-2.4,5.4-4.4,7.8-6.9c3.4-3.4,6.7-7,9.8-10.7
		c2.8-3.3,5.7-6.6,8-10.3c3.3-5.1,6.2-10.3,9.1-15.6c2.1-3.8,4-7.6,6.2-11.4c0.2-0.4,0.7-0.8,1.1-0.8c3.2-0.4,6.4-0.6,9.5-0.9
		c0.7-0.1,1.5-0.6,2.2-0.9c-0.4-0.6-0.6-1.3-0.9-1.9c-0.5-0.7-1.2-1.3-1.7-2c-0.5-0.6-0.8-1.3-1.2-2c-0.4-0.6-0.7-1.1-1.1-1.7
		c-0.7-1.3-1.4-2.6-2-4c-0.1-0.4-0.4-0.9-0.2-1.3c2.1-4.6,3-9.6,5-14.2c2-4.7,2.6-10.1,3.6-15.2c0.8-4.9,1.3-9.7,1.9-14.6
		c0.4-3.4,0.8-6.7,0.9-10.2C428.5,421.9,428.3,416.8,428.2,411.8L428.2,411.8z M130.6,543.9c-0.8-0.9-1.5-2-2.4-3l0.4-0.4
		c1.3,1.4,2.6,2.8,3.9,4.4C131.8,544.6,131,544.3,130.6,543.9L130.6,543.9z M132.5,544.9c0.4-0.1,0.7-0.1,1.1-0.2
		c0.4,0.6,0.6,1.3,0.9,2C132.9,546.6,132,545.9,132.5,544.9z M255.6,593.8v-0.4c2.2-0.2,4.4-0.5,6.6-0.7v0.4
		C260,593.4,257.8,593.7,255.6,593.8L255.6,593.8z M285.4,590.7c-1.7,0.4-3.4,0.6-5.1,0.8c-0.6,0.1-1.3,0.7-1.5-0.4
		c-0.2,0.1-0.5,0.1-0.7,0.2c0.6,1.8,2,0.4,3.2,1.1c-2.6,0.4-5.1,0.6-7.6,0.9v-0.2c0.7-0.1,1.5-0.2,2.2-0.4v-0.4
		c-1.2-0.1-2.4-0.2-3.6-0.2c-0.4,0-0.8,0.5-1.2,0.6c-0.5,0.1-0.9,0.2-1.5,0.2c-2,0.1-4,0.1-5.9,0.2c-0.1,0-0.4-0.1-0.5-0.1v-0.4
		c7.9-1.1,15.7-2.1,23.7-3.2c0.1,0.2,0.1,0.5,0.2,0.7C286.5,590.4,286,590.6,285.4,590.7L285.4,590.7z M287.2,589.5
		c2.7-0.4,5.2-0.6,7.8-0.9C289.6,590.1,287.8,590.4,287.2,589.5z M184.1,350.6c3.8-5.2,7.7-10.4,11.5-15.7c1.2-1.5,2.1-3.2,3.3-4.7
		c0.4-0.5,0.8-0.7,1.4-1.2l-0.1-0.2c0.5-0.6,0.9-1.1,1.2-1.5c0.6-0.9,0.9-2,1.4-3.1c0.1-0.2,0.5-0.5,0.5-0.5
		c1.7,0.8,1.7-0.9,2.2-1.5c1.1-1.2,2.1-2.4,3.1-3.7c0.7-0.9,1.4-1.8,2-2.8c0.1-0.4-0.2-0.9-0.4-1.4h-0.4c0.4-0.2,0.7-0.6,1.1-0.8
		c0.1,0,0.1,0,0.2-0.1c0.7-1.1,1.4-2.1,2.1-3.1c1.4-1.9,3-3.8,4.6-5.4c-0.2,0.6-0.5,1.2-0.7,1.7c0.1,0,0.1,0.1,0.2,0.1
		c1.4-1.9,3-3.7,4.4-5.6c-0.1-0.1-0.2-0.2-0.4-0.2c-0.6,0.6-1.1,1.2-1.7,1.8c-0.1-0.1-0.2-0.2-0.4-0.2c1.2-1.5,2.4-3.1,3.6-4.9
		c0.2,0.4,0.5,0.8,0.9,1.8c0.5-1.2,0.9-2,1.3-2.8c-0.4,0.4-0.8,0.7-1.2,1.1l-0.4-0.4l2.1-3.2c2.2-3.2,4.5-6.5,6.7-9.7
		c0.8-1.2,1.9-2.1,2.6-3.3c2.3-4.5,5.8-8,8.5-12.2c0.6-0.8,1.4-1.5,2.1-2.2c0.6-0.7,1.1-0.5,1.5,0.1c3.2,4,6.4,8.2,9.6,12.2
		c2.4,3,4.7,5.8,7,8.9c2.7,3.8,5.3,7.6,8,11.4c3.1,4.4,6.2,8.8,9.1,13.3c4.5,6.6,8.8,13.3,13.3,19.9c3.3,4.9,6.6,9.6,9.8,14.4h-6
		c-5.6-0.1-11.2-0.6-16.8-0.4c-7.6,0.4-15.3,1.2-22.8,1.8c-9.6,0.8-19.3,0.9-28.9,0.9c-3.4,0-6.9,0.5-10.3,0.7
		c-4.1,0.2-8.2,0.5-12.3,0.6c-4.9,0.2-9.6,0.4-14.4,0.5C189.9,350.7,187.1,350.6,184.1,350.6L184.1,350.6z M319.9,405v1.1
		c-0.1,0-0.2,0.1-0.5,0.1c-0.5-1.7-0.9-3.4-1.5-5.1c-1.2-3.4-2.5-6.9-4.6-9.9c-2.4-3.3-4.5-6.7-6.9-10.2c-0.6-0.8-1.4-1.5-2.1-2.2
		c-2.5-2.7-5-5.6-8.2-7.6c-4.7-3-9.6-5.4-14.8-7.6c-1.4-0.6-2.7-1.3-4.1-2.1h2.8l20.2-0.4c4.4-0.1,8.6-0.1,13-0.4
		c1.1,0,1.7,0.4,2.2,1.3c1.1,1.8,2.1,3.6,3.3,5.3c0.1,0.2,0.4,0.6,0.4,0.9c0,2.6,0,5.3,0.1,7.9c0.1,2.7,0.4,5.3,0.5,8
		c0,2.7-0.2,5.6-0.1,8.4C319.8,396.7,319.9,400.9,319.9,405L319.9,405z M192.5,365.4c5.6-0.2,10.9-0.6,16.3-0.8
		c4.3-0.2,8.6-0.4,12.9-0.6c1.8-0.1,3.4-0.2,5.2,0c-1.9,0.9-3.8,1.9-5.4,3.1c-2.1,1.4-4.1,3.3-6.3,4.9c-2.1,1.5-4,3.4-5.8,5.4
		c-2.2,2.7-4.7,5.1-7.1,7.7c-1.7,1.9-3.6,3.7-5,5.7c-2,2.6-3.8,5.4-5.7,8.4C192.3,387.8,193,376.7,192.5,365.4L192.5,365.4z
		 M269.8,479.2c-3.8,0.9-7.7,2-11.6,2.5c-3.3,0.5-6.7,0.4-10.2,0.4c-3.1,0-6-0.1-9.1-0.4c-3.4-0.4-6.9-0.7-10.2-2.2
		c-2.8-1.3-5.8-2.5-8.6-3.9c-2.8-1.4-5.7-3.1-7.8-5.7c-1.5-1.9-3.7-3.4-5.6-5.1c0.3,1.4,1.2,2.7,2.5,3.4c-0.6,0.7-1.4,0.4-2.6-1.5
		c-0.4,0.2-0.7,0.4-0.9,0.5c0.4-0.8,0.7-1.7,1.1-2.4c-0.5-0.9-1.1-2-1.5-3c-1-1.6-1.9-3.1-2.7-4.7c-0.2-0.4-0.2-0.7-0.5-1.1
		c-0.6-0.7-1.2-1.4-1.7-2.1c-0.9-1.4-1.8-3-3-4.4c0,0.4,0.1,0.7,0.1,1.2c-0.1,0-0.2,0.1-0.2,0.1l-2.5-6c-0.1,0-0.1,0-0.2,0.1
		l2.1,7.8c-0.1,0-0.2,0.1-0.4,0.1c-0.4-0.5-0.7-0.9-0.9-1.5c-0.2-0.9-0.9-0.9-1.5-0.6c-0.4,0.2-0.6,1.1-0.5,1.4c0.8,2,1.8,4,2.7,6
		c0.2,0.7,0.5,1.3,0.8,2c0.1,0.2,0.5,0.5,0.5,0.8c0.5,0.9,0.8,1.9,1.4,2.7c1.1,1.4,2.2,2.8,3.3,4.3c1.1,1.4,2,3,3,4.4
		c0.1,0.2,0.5,0.2,0.6,0.4c0.6,1.8,2.6,3.1,4,2.4c0.4,2.7,3.3,3.7,4.5,6.3c-1.2-0.5-2.3-1-3.4-1.5c-0.1,0.1-0.1,0.2-0.2,0.5
		c1.4,0.7,2.8,1.4,4.1,2.2c1.2,0.7,2.4,1.4,3.4,2.2c1.4,1.3,3.1,2,5.1,2.5c-0.1-0.4-0.2-0.5-0.2-0.5c3.1,1.5,6.3,3,9.4,4.5
		c-12.3,0.2-25.4,0.5-39.1,0.7c0-2.2-0.1-4.4-0.1-6.6c0-0.9,0.2-1.8,0.1-2.7c-0.4-5.4-0.4-10.9-1.1-16.2c-0.7-5.7-0.7-11.2-0.6-16.9
		c0.1-3.1-0.1-6.3-0.2-9.4c0-4.1,0-8.2,0.1-12.3c0-0.6,0.2-1.1,0.5-1.7h0.4c0.1,0.2,0,0.6,0.2,0.7c0.4,0.4,0.9,0.9,1.2,0.8
		c0.7-0.5,1.8-0.9,2-1.7c0.6-1.4,0.8-3,0.8-4.4c0-1.1,0.5-1.8,0.9-2.5c0.2-0.4,0.4-0.7,0.6-1.2c-0.5-0.4-0.9-0.6-1.5-1.1
		c0.5-1.3,0.4-2.8,2.1-3.6c0.2-0.1,0.2-0.7,0.4-1.1c0.1-0.9,0.2-2,0.4-3c0.2,0.4,0.4,0.5,0.6,0.7c0.1-0.2,0.2-0.4,0.2-0.4
		c0-0.5-0.1-1.4,0-1.4c1.4-0.2,0.8-1.8,1.5-2.5c0.1-0.1-0.1-0.5-0.1-0.7c0-0.2,0-0.6,0.1-0.6c1.7-0.4,1.4-2.1,2.5-3
		c0.4-0.2,0.5-0.6,0.9-1.2c0.9,1.7-0.7,2.5-0.8,3.7c2-1.2,2.6-4,1.4-4.9c0.5-0.4,0.9-0.8,1.3-1.3c1.3-1.4,2.7-2.7,3.9-4.1
		c0.8-1.1,1.3-2.4,2.1-3.4c0.5-0.6,1.4-1.1,2.1-1.4c2.1-1.2,4.1-2.5,5.4-4.5c0.2-0.2,0.6-0.5,0.9-0.7c0.4-0.2,1.1-0.2,1.2-0.6
		c0.1-0.2-0.2-0.8-0.5-1.2c0.5-0.2,0.9-0.7,1.9-1.2c-0.4,0.7-0.5,1.2-0.7,1.7l0.6,0.6c1.1-0.8,2.7-1.8,3.8-2.5
		c0-0.1-0.6-0.6-0.6-0.6c-0.7,0.4-1.8,0.9-2.8,1.4c0.2-0.4,0.2-0.6,0.4-0.7c1.7-1.1,3.3-2.1,5.1-3c4.1-1.9,8.3-3.8,12.4-5.6
		c0.7-0.4,1.7-0.1,2.5-0.1c0.4,0,0.6,0,0.9-0.1c1.9-0.6,3.8-1.2,5.7-1.7c0.8-0.2,1.7-0.4,2.6-0.4c3.6,0.1,7.1,0.1,10.7,0.4
		c1.5,0.1,3,0.5,4.4,0.9c1.8,0.6,3.7,1.4,5.3,2.2c2,1.1,3.9,2.3,5.8,3.6c3.4,2.2,6.6,4.7,10.1,6.7c3.3,2,5.9,4.7,8,7.8
		c2.6,3.7,5.6,7,6.7,11.5l1.8,7.8c0.4,1.4,1.2,2.8,0.8,4.5c-0.6,3-1.1,6-1.5,9c-0.2,1.2-0.5,2.4-0.4,3.6c0.2,3.7-1.2,6.9-2.6,10.2
		c-0.5,1.1-1.2,2.1-1.8,3.3c0.1,0.1,0.8,0.5,0.9,0.5l1.1-2.1c0.1,0,0.1,0,0.2,0.1c-0.6,1.7-1.1,3.4-1.7,5.1c-1.4,3.7-2.8,7.5-4.6,11
		c-0.9,2-2.6,3.7-3.8,5.6c-1.2,1.7-2.1,3.4-3.3,5c-1.1,1.3-2.1,2.6-3.6,3.6c-3.2,2.4-6.5,4.7-9.9,6.6
		C274.7,477.9,272.2,478.6,269.8,479.2L269.8,479.2z M206.7,473l-0.1,0.1c-0.2-0.1-0.6-0.2-0.8-0.5l-2.8-4.3
		c-0.2-0.4-0.4-0.7-0.2-1.2C204,469.1,205.3,471.1,206.7,473L206.7,473z M280.3,489.2c5.3-2.3,9.7-5.4,13.7-9.1
		c0.6-0.6,1.2-1.2,1.9-1.7c5-3.1,8.6-7.3,12-12.1c3.8-5.4,6.3-11.6,9.4-17.4c0.2-0.5,0.5-0.9,0.7-1.3c-0.2,13.5,1.3,26.7,3.1,40.1
		C307.7,488.2,294.1,488.7,280.3,489.2L280.3,489.2z M400.4,485.6c-0.1,0.2-0.4,0.5-0.5,0.7c-0.1-0.2-0.1-0.6-0.2-1.1
		c-0.7,1.9-2.2,0.9-3.3,0.9c-6.4,0.1-12.9,0.1-19.3,0.1c-6.2,0-12.4,0-18.6,0.1c-2,0-4.1,0.5-6.2,0.6c-4.9,0.2-9.7,0.4-14.6,0.5
		c-0.4,0-0.7-0.6-1.3-1.1c-0.1,0.2-0.4,0.6-0.7,1.1c-0.1-0.2-0.4-0.5-0.6-0.8c-0.1,0.3-0.2,0.6-0.4,0.9h-0.4
		c-0.2-1.7-0.7-3.2-0.7-4.9c0-3.6,0.4-7.1,0.5-10.7c0.1-1.7,0-3.2,0-4.7c0.5,0.4,0.8,0.6,1.3,0.9c0.2-0.5,0.5-0.8,0.7-1.2
		c0,0-0.2-0.1-0.5-0.4c0.2-0.1,0.5-0.4,0.5-0.5c0.1-0.4,0.4-0.7,0.4-0.9c0-0.8-0.2-1.5-0.4-2.2c0.1,0,0.2,0,0.4-0.1l0.7,3.6h0.4
		c-0.5-0.8,1.1-1.5-0.2-2.5c-0.1-0.1,0.1-0.8,0.1-1.2c-0.4-0.7-0.6-1.4-0.9-2.4c0.1-0.1,0.5-0.2,0.8-0.4c-0.5-0.2-0.8-0.5-1.2-0.6
		c1.2-1.1,1.2-1.7,0.1-2.8c0.2-0.1,0.5-0.1,0.5-0.2c0-1.1,0-2.1-0.2-3.2c-0.2-1.2,0.4-2.6-1.4-3.3c0.1,0.3,0.3,0.7,0.5,0.9
		c0,0-0.4,0.1-0.7,0.4c-1.5-1.4-0.6-3.3-0.9-5.4c0.8,0.2,1.4,0.5,2,0.7c-0.2-0.8-0.8-1.8-1.2-2.8h-0.5v-7.8c0,0.1,0.8,0.1,1.3,0.2
		c0-0.1,0.1-0.2,0.1-0.4c-0.4-0.5-0.8-0.9-1.3-1.5l0.2-0.2c-0.9-1.2-0.5-2.8-0.5-3.2v-8.3c1.2,1.2-0.6,2.7,1.2,3.4v-1.2h-0.1
		c-0.1-1.8-0.1-3.6-0.2-5.3h-0.2c-0.1,0.2-0.1,0.4-0.2,0.6h-0.2c0.2-9.4,0.5-18.7,0.7-28.3c1.2,1.5,2.5,3,3.3,4.5
		c2.7,5,6.3,9.2,9.6,13.7c2.8,3.9,5.4,8.2,8,12.2c3.2,4.9,6.3,9.7,9.5,14.6c2.4,3.7,4.8,7.3,7.3,10.9c2.2,3.2,4.6,6.3,7,9.4
		c2,2.7,4.1,5.4,6.2,8.2c2.4,3.3,4.7,6.6,7.1,9.8c1.2,1.7,2.5,3.3,3.8,5c0.7,0.9,1.8,1.7,2.5,2.2c-0.1,0-0.2,0-0.5-0.1
		c0.4,0.5,0.6,0.8,0.8,1.1C401,483.8,401.1,484.6,400.4,485.6L400.4,485.6z M406.4,456v-0.8C406.4,455.4,406.5,455.8,406.4,456z
		 M410.4,403.8c-0.1,0-0.8-0.7-0.9-0.8c-0.1,0.4,0,0.7-0.2,1.2c-0.1-0.4-0.9-0.2-0.9-0.6c-0.1,1.7,0.7,3.3,0.6,5
		c0.4-0.2,1.8-0.4,2.1-0.7c0.1,0.1,0.4,0.2,0.5,0.2c-2.4,1.8-1.8,3.6-0.7,5.6c0.2,0.5,0.9,1.4,0.2,2.4c-0.2,0.2,0.1,0.9,0.2,1.5h0.4
		v0.2l-1.1,0.4c-0.2-0.4-1.7-1.1-1.7-1.7v6c1.2,0.4,1.2,2,1.7,2.8c0.2-0.4,0.4-0.6,0.5-0.9l0.1,0.1c-0.1,0.7-0.2,1.4-0.5,2.1
		c-0.2,1.1-0.5,2-0.6,3.1c0,0.1,0.2,0.4,0.2,0.5c-1.3,3-0.6,6.3-1.1,9.4c-0.4,2.2,0,4.6-0.2,7c-0.2,2-0.7,4.1-1.2,6.2
		c-0.1,0.4-0.4,0.5-0.9,0.7c0.2-1.4,0.1-2.4-0.1-3.7c-0.1,0-1.7-0.8-1.8-0.8c0,1.7,0.9,3.9,1.3,5.8c-0.4-0.1-1.8-0.9-1.9-0.9
		c-0.2,1.4-0.2,3.3-0.4,4.9c-0.1,1.2-1.2,2.2-1.3,3.6c0,0.7,0.8,1.2,0.7,2.4h0.9c0-2.4,1.1-4.5,1.1-7h0.4c0.1,0.2,0.5,0.5,0.4,0.6
		c-0.2,1.3-0.7,2.7-0.6,4c0,0.7,0.6,1.4,0.4,2.2c-0.2,0.7-0.4,1.4-0.5,2.5c-0.1-0.6-0.2-0.8-0.2-1.2c-0.1,0-1.2-0.1-1.3-0.1
		c-0.1,0.7,0.8,1.4,0.7,2c-0.1,0.1-0.2,0.1-0.5,0.2l-3.9-5.7c-3.1-4.5-6.2-9-9.2-13.6c-0.8-1.1-1.5-2.3-2.1-3.6
		c-3.7-6.3-7.7-12.3-12.2-18.1c-3.4-4.4-6.2-9.1-9.4-13.7c-3-4.4-5.9-8.6-8.9-13c-1.1-1.4-2.4-2.7-3.3-4.3
		c-3.1-4.9-5.8-9.8-8.9-14.7c-2.6-4-5.4-7.9-8.2-11.8c-1-1.4-1.9-2.7-2.8-4.1c-0.1-0.2-0.2-0.5-0.2-0.8c-0.2-2.6-0.5-5.2-0.6-7.7
		c0-2.4,0.2-4.7,0.2-7.2v-2.1c0-0.6,0.1-1.1,0.1-1.7c0.1-0.1,0.2-0.4,0.4-0.5c-3.4,0-7-0.1-10.4,0c-2.2,0.1-3.4-0.8-5-2.5
		c-4.5-5.1-7.8-10.9-11.7-16.3c-3.7-5.2-7.5-10.3-11.2-15.4c-3.1-4.1-6.2-8.2-9.2-12.3c-3.4-4.7-6.7-9.5-10.3-14.2
		c-4.3-5.7-8.6-11.4-13-17c-2-2.6-4.3-5.1-6.5-7.8c1.5,0.2,3,0.5,4.4,0.6l5.7,0.4c4.3,0.4,8.5,0.6,12.8,1.2
		c3.6,0.5,7.1,1.2,10.8,1.8c7.8,1.3,15.5,3.4,23,5.9c4.4,1.4,8.6,3.3,12.9,5.1c9.6,3.9,18.7,8.6,27.7,13.6c2.8,1.5,4.5,4,6.6,6.3
		c3.1,3.2,6.2,6.4,9.1,9.7c3.4,3.9,6.6,7.9,9.9,12c3,3.6,6,7.1,9,10.7c0.9,1.1,1.7,2.4,2.5,3.6c1.9,2.8,4,5.6,5.7,8.6
		c1.2,2.2,1.9,4.9,2.7,7.3c1.2,3.7,2.4,7.2,3.6,10.9c0.8,2.8,1.5,5.6,2.1,8.4c0.5,1.9,0.4,3.9,0.9,5.8c0.7,2.5,0,5.2,0.7,7.7
		c0.1,0.2,0.2,0.6,0.4,0.8c0.5,0.5,0.8,0.9,0.1,1.7c-0.1,0.1-0.1,0.6,0,0.9c0.2-0.2,0.4-0.5,0.6-0.8c0,0.2,0.1,0.4,0.1,0.5
		c0,0.5-0.1,0.9,0,1.4c0,0.2,0.2,0.6,0.4,0.8c0.2-0.2,0.5-0.4,0.9-0.7c1.1,4,1.2,8,1.2,12.2c0,3.9,0.7,7.8-0.9,11.6
		C410.9,406.2,410.1,405,410.4,403.8L410.4,403.8z"/>
	<path class="st1" d="M335.2,450.2c0.1,0,0.2,0.1,0.2,0.1l-0.1-0.1C335.3,450.1,335.3,450.1,335.2,450.2z M353.9,567.2
		c-1.3,0.9-2.6,1.8-4.3,2.1c-0.1-0.1-0.1-0.2-0.2-0.4c1.3-0.8,2.7-1.7,4-2.5C353.5,566.7,353.8,567,353.9,567.2L353.9,567.2z
		 M131.9,406.8c1.3-1.7,2.6-3.3,4-5c0.1,0.1,1.1,0.4,1.2,0.5c-1.3,1.7-3.1,3.9-4.4,5.7C132.5,407.7,132.2,406.9,131.9,406.8
		L131.9,406.8z M98.3,464.8c-0.9-2-1.9-4.1-2.8-6.2c0.1-0.1,0.9-0.5,1.1-0.5c1.3,1.9,1.9,4.1,2.8,6.2
		C99.4,464.3,98.4,464.8,98.3,464.8z M128.5,408c-0.7,1.1-1.4,2.2-2.1,3.3c-0.1-0.1-1.4,0.5-1.5,0.4c0.7-1.1,2.5-3,3.2-4
		C128.2,407.7,128.3,407.9,128.5,408z M341.2,572c0.1,0,0.1-0.1,0.2-0.1c0.8,0.1,1.8,0.2,2.7,0.2C342.6,573.2,341.7,573.1,341.2,572
		L341.2,572z M128.7,413c0.1-0.4,0.4-0.7,0.6-1.1c0.2,0,0.6-0.1,0.6-0.1c0.5-0.8,0.5-1.4,0.9-2.1c-0.1-0.1-0.2-0.1-0.4-0.2
		c-0.7,0.5-1.4,1.1-2.1,1.5c0.2,0.2,0.2,0.4,0.2,0.6c-0.9-0.1-1.3,0.4-1.8,1.7c-0.1,0.4-0.7,0.5-1.3,0.9c-0.1,0.2-0.2,0.8-0.5,1.4
		l0.1,0.1c-0.2,0.2-0.4,0.3-0.6,0.4c-0.7,0.7-1.5,1.3-2.2,2c-0.1,0.4-0.2,0.7-0.2,1.1c0.8-0.8,2.2-2.4,3.3-3.3l0.1,0.1
		c0.5-0.7,0.8-1.4,1.3-2.1c0.1,0.1,0.1,0.2,0.2,0.4c-0.4,0.9-0.7,2-1.1,3c-0.2,0.1-0.6,0.4-0.6,0.2c-0.5,0.4-0.8,0.8-1.3,1.2
		l-2.1,1.4c-1.2,1.1-2.4,2-3.7,3.1c-0.8,1.3-1.7,2.5-2.6,4c1.4-0.4,1.8,0.2,1.7,1.4c1.7,0.2,1.8-1.1,2.2-2c0.1-0.2,0.2-0.7,0.5-0.8
		c1.1-0.9,2.2-1.8,3.4-2.7c0.2-0.2,0.2-0.7,0.2-1.1c0-0.1-0.6-0.1-0.9-0.2c1.1-1.2,2.6-3.2,3.7-4.5c0.6-0.4,1.2-0.8,1.2-1.2
		c-0.1-1.3,0.7-1.7,1.7-2.1C128.9,413.4,128.7,413.1,128.7,413L128.7,413z"/>
	<path class="st1" d="M131.1,411.7c-0.5,0.8-0.9,1.5-1.4,2.4l-0.7-0.4c-0.5,2.7-2.1,5.1-3.8,5.6c0.5,0.2,0.9,0.5,1.3,0.4
		c0.4-0.1,0.6-0.7,0.8-1.1l3.2-4.6l1.1-1.8L131.1,411.7L131.1,411.7z M91.7,463.6c0.6,0,1.2,0.1,1.9,0.1c0-0.5,0.6-0.4,0.6-0.8h0.4
		c0,0.6,0.1,1.1,0.1,1.7h-2.5C92.1,464.4,91.6,463.7,91.7,463.6L91.7,463.6z M90.8,458.2c-0.4-0.4-0.9-0.7-0.9-1.1
		c-0.1-0.5,0.2-1.1,0.6-1.7c0.2,0.8,0.4,1.5,0.6,2.4C90.9,457.9,90.8,458.1,90.8,458.2z M93.7,450.6c0.5,1.2,0.9,2.5,1.4,3.7
		c-0.1,0-0.8,0.4-0.9,0.5c-0.5-1.2-1.1-2.5-1.5-3.7C92.8,451,93.5,450.6,93.7,450.6z M357.2,563.8c0.6-0.2,1.3-0.4,2.2-0.6
		c-1.1,0.8-1.9,1.4-2.6,2.1c-0.1-0.1-0.2-0.2-0.4-0.2C356.7,564.6,357,564.2,357.2,563.8L357.2,563.8z M211.7,313.6
		c0.7-0.5,1.3-0.8,2-1.3l0.2,0.2c-0.7,0.9-1.3,1.9-2.1,3.1c-0.1-0.8-0.1-1.3-0.2-1.9C211.5,313.8,211.6,313.8,211.7,313.6
		L211.7,313.6z M246.4,373.5c1.1-0.5,2.1-0.9,3.4-1.5c-0.1,0.7-0.1,1.2-0.1,1.7c-0.4-0.1-0.8-0.2-1.2-0.2c-0.7,0.1-2,1.1-2.6,1.2
		C245.8,374.6,246.4,373.7,246.4,373.5z M335.2,473.9c0.2,1.2,2.5,1.8,0.2,3c0.4,0.2,0.7,0.4,1.1,0.6c0,0.1-0.1,0.4-0.2,0.5
		c-0.2,0.1-0.7,0.4-0.9,0.2c-0.1,0-0.4-0.5-0.4-0.7C334.9,476.4,335.1,475.3,335.2,473.9z"/>
</g>
</svg>
