<?xml version="1.0" encoding="utf-8"?>
<!-- Generator: Adobe Illustrator 19.0.0, SVG Export Plug-In . SVG Version: 6.00 Build 0)  -->
<svg version="1.1" id="Capa_1" xmlns="http://www.w3.org/2000/svg" xmlns:xlink="http://www.w3.org/1999/xlink" x="0px" y="0px"
	 viewBox="0 0 350 350" style="enable-background:new 0 0 350 350;" xml:space="preserve">
<style type="text/css">
	.st0{fill:#DE3835;}
</style>
<g id="XMLID_32_">
	<path id="XMLID_50_" class="st0" d="M325.2,167.2c-0.1-3.9-0.3-7.8-0.5-11.7c-0.2-4-0.3-7.9-0.7-11.9c-0.7-5.4-1.4-10.9-2.6-16.1
		c-0.9-4.4-2.4-8.5-4-12.7c-1.9-4.9-3.9-9.8-6.3-14.5c-4-7.5-9.1-14.2-13.9-21.2c-3.1-4.5-7.2-8.1-10.2-12.7
		c-1.7-2.6-4.3-4.9-6.8-6.9c-4.1-3.2-8.3-6.2-12.6-9c-3.2-2.2-6.5-4.4-9.9-6.3c-2.7-1.5-5.7-2.7-8.5-4.1c-3.2-1.5-6.4-3.3-10-4.1
		c-0.9-0.2-1.7-0.5-2.6-0.8c-2.3-0.8-4.6-1.7-6.9-2.4c-3.6-1.1-7-2.4-10.7-3.3c-3.6-0.9-7.2-1.5-10.9-2c-4.1-0.6-8.2-0.8-12.3-1.2
		c-2.6-0.3-5.3-0.6-7.8-0.7c-3.9-0.2-7.8-0.2-11.7-0.3c-1.9-0.1-4-0.3-5.9-0.2c-2.9,0.1-5.9,0.4-8.8,0.8c-2.8,0.3-5.7,0.8-8.4,1.2
		c-3.3,0.4-6.7,0.6-10,1c-3.1,0.4-6.4,1-9.5,1.5c-1.1,0.2-2.2,0.6-3.3,0.8c-2.4,0.5-5,0.7-7.4,1.5c-4.4,1.3-8.7,2.8-13,4.5
		c-4,1.6-7.8,3.3-11.6,5.4c-3.9,2.1-7.5,4.7-11.2,7.1c-3.4,2.3-6.9,4.8-10.2,7.4c-3.2,2.5-6.3,5.4-9.2,8.2c-1.6,1.6-2.9,3.6-4.5,5.4
		c-2.5,2.9-5.1,5.8-7.5,8.8c-2,2.5-3.9,5.2-5.8,7.8c-3.5,4.7-6.4,9.6-9.1,14.6c-1.1,2-2.1,4.1-3.1,6.1c-1.5,3-3.1,6-4.6,9.1
		c-1,2.1-1.8,4.5-2.4,6.8c-1.4,5-2.8,10-4.2,15c-1.2,4.5-1.5,9.1-1.6,13.7c-0.1,4.1,0.3,8,0.7,12.1c0.1,1-0.5,2.2,0.7,3
		c0.1,0,0,0.4-0.1,0.5c-0.3,0.6,0,1.2,0.6,1.4c0,0,0.1,0.1,0.1,0.2h-0.5c-0.3,0.9,0.7,1.6,0.3,2.6c-0.1,0.2,0.3,0.6,0.5,0.9
		c0,0.3-0.1,0.7,0,1c0.1,0.9,0.5,1.8,0.5,2.8c0,0.7,0.6,1.5,0.8,2.2c0.1,0.3,0,0.8-0.2,1c-0.6,0.7-0.5,1.3,0.4,1.7
		c0.2,0.1,0.5,0.5,0.5,0.7c0,0.6-0.2,1.2-0.3,1.8c0.2,0.2,0.3,0.4,0.2,0.6c0,0.3-0.3,0.6-0.2,0.8c0.8,1.6,1.1,3.4,1.2,5.3
		c0,0.4,0.2,0.8,0.4,1.3c0.1,0,0.4,0,0.6,0.1l-0.6,1.8c0.5-0.3,0.9-0.4,1.4-0.6c0.3,1.3,0.6,2.5,1,3.7c0.1,0.2,0.3,0.4,0.6,0.6
		c-0.1,0.2-0.1,0.6-0.3,0.7c0.4,1.8,0.6,3.6,1.3,5.3c0.1,0,0.2-0.1,0.3-0.1c-0.3-1.8-0.5-3.8-0.8-5.6v-0.6c0,0,0.2-0.1,0.3-0.1
		c0.1,0.4,0.3,0.9,0.3,1.2c0.8,0,2,0.5,2.8,0.5c0.1-0.3,0.2-0.7,0.3-0.9c-0.6-0.6-1.1-1.5-1.7-2.1c0.2,0.8,0,1.1,0,1.4
		c-0.4-0.2-0.9-0.4-1.4-0.6c0.4-0.5,0.8-1,1.4-1.6c0-0.9-0.5-1.7-1.9-1.6c0.6-0.2,1.2-0.5,1.9-0.7c0.1,0.3,0.2,0.6,0.3,0.8
		c0.8-1.4-0.4-2.5-0.4-4c0.1-1.7-0.9-3.4-1.2-5.3c-0.5-2.8-0.4-7.1-0.7-9.9c0-0.2-0.3-0.4-0.5-0.6c-0.1,0.1-0.6,1.4-0.7,1.5
		c0.3,2.4,0.6,4.9,0.8,7.3c-0.1,0-0.2,0-0.2,0.1c-0.4-2.1-0.8-4.4-1.3-6.8c-0.1,0.7-0.2,1-0.2,1.4c-0.3-0.1-0.4-0.2-0.9-0.4
		c0.4,0.9,0.8,1.5,1.1,2.2c-0.7-0.3-1.5-0.2-1.5-0.2v2.8c-1-1-1.3-1.8-1.8-2.5c-0.2-0.8-0.3-1.6-0.5-2.4l0.3-0.1
		c-0.1-0.4-0.3-0.7-0.3-1c-0.1-0.8-0.2-1.6-0.3-2.4c0.1-0.1,0.5-0.2,0.7-0.4l-0.8-1.2c0.8,0.1,1.3,0.2,1.8,0.2c0-0.2,0.1-0.3,0-0.4
		c-1-0.9-0.3-1.7,0.1-2.5c0.2-0.4,0.9-0.5,1.1-0.9c0.8-1.5,2.1-2.7,2.1-4.7c0-0.9,0.3-1.9,0.4-2.8c0.2-1.7,0.4-3.4,0.5-5.2
		c0.2-2.2,0-4.5,0.5-6.6c0.8-3.6,1.8-7.1,2.9-10.7c0.8-2.5,1.7-5,2.7-7.5c1.5-4,2.9-7.9,4.9-11.7c2.7-5.5,5.9-10.8,8.9-16.1
		c1.9-3.3,4-6.5,6.1-9.7c2-3.1,4.1-6.4,6.4-9.3c3.2-4.2,6.8-8,10.8-11.5c4.1-3.7,7.9-7.4,12.3-10.8c5.7-4.4,11.7-8.2,18.1-11.6
		c5.2-2.7,10.6-4.9,15.9-6.9c3.4-1.3,7.2-1.9,10.8-3c4.1-1.3,8.1-1.9,12.4-2c2.7-0.1,5.4-0.4,8.1-0.7c2.4-0.2,4.9-0.4,7.5-0.7
		c-0.2,0.3-0.4,0.5-0.5,0.8c-1.1,1.6-2.3,3.2-3.4,4.9c-0.9,1.3-1.9,2.7-2.8,4.1c-1.6,2.1-3.3,4.3-4.9,6.5c-2.3,3.3-4.5,6.8-6.9,10.1
		c-2.4,3.2-5.1,6.3-7.6,9.4c-3.3,4.4-6.5,8.8-9.8,13.2c-3,4.2-6.3,8.1-9.2,12.3c-2.6,3.7-5,7.5-7.5,11.3
		c-3.8,5.6-7.5,11.1-11.3,16.6c-2.9,4.3-5.9,8.5-8.9,12.7c-0.2,0.3-0.5,0.4-0.8,0.6c-0.2,0.2-0.6,0.4-0.6,0.6
		c-0.2,0.7-0.2,1.4-0.5,2c-0.8,1.5-1.6,3-2.5,4.5c-0.5,0.8-1.2,1.5-1.8,2.3c-0.2-0.1-0.3-0.2-0.5-0.2c0.4-1,2.1-1.6,1.3-3.1
		c-0.5,0.8-1,1.5-1.5,2.3l-1.2,2.4c0.4,0.3,1.1,0.5,0.4,1.1c-0.3,0.5-0.6,1.1-0.9,1.6c0.1,0,0.1,0.1,0.2,0.1
		c0.3-0.4,0.6-0.7,0.9-1.1c0.1,0,0.2,0.1,0.3,0.1c-0.3,1-0.9,1.9-1.4,2.8c-0.4,0.8-1.4,1.4-2.1,2c0.1,0.1,0.8,0.4,0.9,0.5
		c0.3-0.4,0.4-0.2,0.7-0.6c0.2,0.3,0.5-0.2,0.6,0.1c0.3-0.4,0.6-0.7,0.7-1c0.4-1,1-1.8,2-2.2c0.4-0.2,0.7-0.5,1-0.8
		c3-3.1,6.2-6.2,8.9-9.5c4.3-5.2,8.1-10.6,12.2-15.8c1.7-2.2,3.8-4.5,5.6-6.6c0.2,0.1,0.4,0.1,0.5,0.2c-0.2,2.1-0.4,4.4-0.5,6.5
		c-0.3,3.8-0.5,7.5-0.8,11.4c-0.1,1.5,0,3-0.1,4.6c0,0.4-0.3,0.7-0.3,1.1c0,1,0.3,2.1,0.3,3.1c-0.3,3.8-0.7,7.4-1,11.2
		c-0.1,0.8,0.3,1.6,0.5,2.3c-0.1-0.1-0.2-0.2-0.5-0.4c0,5.9,1.1,11.7,0.2,17.5c0.4-0.1,0.6-0.2,0.6-0.4c0.1-0.7,0.3-1.4,0.3-2.1
		c0.1-0.6,0-1.2,0-1.9v-1c0.1-1.8,0.5-3.8,0.3-5.6c-0.2-2-0.2-4,0.2-5.9c0.2-0.8-0.1-1.8,0.4-2.8v1.5c-0.1,5.8,0.1,11.6-0.7,17.3
		c-0.1,0.5,0.3,1.4-0.8,1.3c-0.1,0-0.2,0.5-0.4,0.8c-0.5,1,0.6,2.3-0.4,3.3c-0.2,0.2,0.2,1.1,0.3,1.7c0,0.2,0.1,0.4,0,0.5
		c-0.4,0.7-0.4,0.7,0.2,0.8c0.1,2.2,0.3,4.3,0.4,6.4h0.3c1.3-3.9,0.5-7.8,1.2-11.8c0.1,1.6,0.2,3.2,0.1,5c0,2.6-0.1,5.2-0.2,7.8
		c0,0.5-0.1,1-0.2,1.5c-0.3,1.4-0.4,2.8-0.9,4.2c-0.4,1-0.2,2.5-0.2,3.8v3.9c0,0.1,0.3,0.4,0.3,0.8c0.1,0.9-0.4,1.8-0.1,2.8
		c0.1,0.2-0.1,0.5-0.2,0.7c-0.1,0.3-0.2,0.6-0.1,0.9l0.3,1.5c0,0.1,0.1,0.2,0.2,0.4c0.1-0.4,0.1-0.7,0.1-0.8
		c1.7,0.2,0.8,1.7,1.6,2.5c-0.4,0.2-0.7,0.3-0.7,0.4c0.1,0.4,0.3,0.7,0.3,1.1c0,0.9-0.1,1.7-0.2,2.6c0,2.3-0.1,4.7-0.1,6.9
		c0,0.3,0.1,0.6,0.1,0.9c0,0.2-0.1,0.4-0.1,0.7v2.1h0.4c-0.2,0.3-0.4,0.6-0.7,0.9c-0.1,0-0.4,0-0.4-0.1V218H109
		c-0.2,6.1,0.3,11.6-0.8,17.2c-1.2,0.1-1.6,0.3-2.9,0.3c-3.1,0-6.3,0-9.4,0.1c-3.8,0-7.4,0.1-11.2,0.1c-1.8,0-3.8,0.2-5.6,0.2
		c-2.4,0-5-0.3-7.4-0.3c-3.8,0-7.4,0.3-11.2,0.4c-2.7,0.1-5.5,0.1-8.2,0.2c-1.8,0.1-3.7,0.2-5.5,0.4c-0.8,0.1-1.5,0.4-2.5,0.7
		c-0.3,0-1-0.1-1.6,0c-1,0.2-1.9,0.8-2.9,1c-1.5,0.3-1.9,0.7-1.7,2.2v1c-0.2-0.2-0.5-0.4-0.7-0.5c-0.1,0-0.2,0.1-0.2,0.1
		c0.1,0.3,0.3,0.5,0.4,0.8c0.4-0.2,0.9-0.7,1.3-0.7h1.4c-0.2,0-0.3,0.6-0.6,1.1c0.6-0.2,1.2-0.5,1.8-0.7c0.1,0.3,0.1,0.7,0.1,0.8
		c1.4-0.1,2.7-0.5,4-0.2c4,1,8,1.4,12.1,1.8c2.6,0.2,5.2,0.3,7.8,0.4c3.8,0.2,7.5,0.4,11.3,0.4c3.1,0,6.2-0.3,9.3-0.3
		c4.4,0,8.7,0.2,13.1,0.3c0.9,0,1.9-0.1,2.9-0.1h7.4c6.6-0.2,13.2-0.3,19.8-0.5c3.8-0.1,7.6-0.3,11.4-0.4l11.6-0.3
		c4.5-0.1,8.9-0.1,13.3-0.2c3.3,0,6.6-0.1,9.9-0.2c3.8-0.1,7.6-0.4,11.4-0.6c2-0.1,4.1-0.3,6.1-0.5c2.4-0.2,5-0.5,7.4-0.6
		c3.7-0.2,7.4-0.3,11.1-0.5c4.6-0.3,9.1-0.7,13.8-0.8c4.3-0.2,8.6-0.1,12.9-0.2c3.8-0.1,7.5-0.3,11.4-0.4l6.4-0.3
		c0,0,4.3-0.1,6.4-0.3c3.7-0.2,7.3-0.6,11-0.7c2.3-0.1,4.7,0,7-0.1c3.8-0.1,7.6-0.3,11.4-0.3c1.4,0,2.9,0.2,4.8,0.3
		c-0.8,0.7-1.3,1.1-1.9,1.6c0.4,0.1,0.8,0.3,1.2,0.5c0,0.1-0.1,0.2-0.1,0.4c-0.5,0-1,0.1-1.5,0.1c-0.2,0.5-0.4,0.7-0.6,1.7h1.8
		c-0.7,0-1.3,0.9-2,1.5c0.1,0.1,0.2,0.1,0.3,0.2c-1.1-0.4-1.8-0.2-2.2,0.9c0.3,0.1,0.5,0.1,0.8,0.1c-0.1,0.3-0.2,0.6-0.3,1
		c-0.1,0.2-0.2,0.4-0.2,0.7l-0.3-0.3c0-0.2,0-0.4-0.1-0.6c-0.6,0.6-1.5,1-1,2.3c-0.4,0.2-0.9,0.4-1.4,0.7c0.1,0.2,0.3,0.4,0.4,0.7
		c-0.9,0.1-1.8,0.3-1.6,1.4c0.4,0.1,0.8,0.3,1.1,0.4c-0.5,0.2-1,0.5-1.5,0.7c-0.1,0.2-0.2,0.7-0.4,0.8c-1.4,0.3-0.6,0.8-0.2,1.3
		c-0.3,0.2-0.6,0.4-0.9,0.5c0.3,0.1,0.5,0.2,0.7,0.4c-0.3,0.2-0.5,0.3-0.7,0.4c0.2,0.1,0.5,0.3,0.6,0.3c-0.4,0.3-0.9,0.7-1.5,1.2
		c0,0.2,0,0.3,0.1,0.5c-0.4,0.4-0.8,0.8-1.2,1.4c-0.4,0.6-0.6,1.4-1.1,2c-2.1,2.3-3.7,5.1-6.4,6.9c-1,0.7-1.9,1.6-2.8,2.5
		c-1.8,1.7-3.4,3.7-5.4,5.3c-2.5,2.1-5.2,4.1-7.9,6c-3.3,2.3-6.7,4.7-10,6.9c-1.8,1.2-3.9,2.1-5.8,3.2c-1.9,1.1-3.8,2.1-5.7,3.2
		c-1.2,0.8-2.3,1.9-3.7,2.5c-3.3,1.4-6.9,2.6-10.3,4c-0.3,0.1-0.5,0.2-0.8,0.3c-2.5,1.1-5,2.3-7.5,3.2c-2.3,0.8-4.8,1.4-7.2,1.9
		c-0.8,0.2-1.7,0-2.6,0.1c-1.7,0.3-3.5,0.7-5.2,0.9c-4.5,0.6-8.9,1-13.4,1.6c-2.6,0.3-5.2,0.8-7.8,1.1c-1.8,0.1-3.8-0.1-5.6-0.1
		c-1.3,0-2.7,0.3-4.1,0.1c-2.1-0.3-4.3-0.8-6.4-1.2c-0.5-0.1-1.2-0.3-1.6-0.1c-0.8,0.4-1.5-0.2-2.3,0c-0.5,0.1-1-0.3-1.5-0.3
		c-0.4-0.1-0.9,0.1-1.4,0c-1.1-0.3-2.1-0.7-3.3-0.6c-1.2,0.1-2.4-0.5-3.8-0.8c-1.8-0.4-3.6-0.8-5.4-1.2c-0.7-0.2-1.3-0.5-2-0.9
		c-0.2,0.1-0.5,0.3-0.9,0.3c-1.7-0.3-3.4-0.4-5.1-1c-1.4-0.5-2.7-1.2-4.3-1c-0.4,0.1-0.7-0.1-1.1-0.1c-0.3-0.4-0.6-1.2-0.9-1.2
		c-2,0.1-3.2-1.6-5-2.1c-0.9-0.3-1.6-1.3-2.5-1.6c-2.2-0.9-4.1-2.8-6.6-3.1c-0.8-0.1-1.6-0.5-2.5-0.8c0.3,0.4,0.5,0.7,0.8,1
		l-0.2,0.2c-2.7-1.6-5.5-3.2-8.2-4.8c-0.4-0.1-0.7-0.5-1-0.7l-2.7-1.8c-0.3-0.2-0.9-0.5-0.9-0.4c-0.6,0.7-1.2,0.1-1.6-0.1
		c-2.7-1.9-5.9-3.1-8.5-5.3c-1.1-0.9-2.4-1.5-3.2-2.6c-1.4-1.7-3.1-2.9-5.1-4c-1.5-0.8-2.9-1.7-4.4-2.6c-0.7-0.5-1.4-1.1-1.4-2.2
		c0-0.7-0.3-1.4-1.2-1c-0.4-0.6-0.8-1.3-1.3-1.5c-1.2-0.5-2-1.4-2.9-2.2c-0.9-0.8-1.6-1.9-2.7-2.3c-2-0.8-3.2-2.5-4.5-4
		c-2.8-3.3-5.4-7-8-10.6c-0.2-0.3-0.6-0.5-0.9-0.8l-0.1,0.1c0.5,1,1,1.9,1.5,2.9c-0.1,0.1-0.3,0.2-0.4,0.3c-0.6-0.7-1.3-1.4-1.9-2.1
		c-0.1,0.1-0.2,0.2-0.3,0.2l7.3,11.6c0.6,0.9,1.1,1.8,1.7,2.7c-0.1,0.1-0.3,0.2-0.4,0.3c-1.1-0.2-2.1-1-2.6-1.9
		c-0.9-1.6-1.9-2.6-4-2.4c-0.2-0.7-0.4-1.5-0.5-2.2c-0.4,0-0.7,0-1.4-0.1c1.4,2.2,2.6,4.2,4,6.4c-0.5-0.3-0.8-0.5-1-0.6
		c1.8,1.9,3.1,4.4,5.5,5.6c0.5,2.3,3.1,3.4,3.8,5.7c-0.5-0.1-0.9-0.2-1.4-0.3c-0.8-1-1.7-2-2.6-3.1c0.2,0.7,0.5,1.3,0.9,1.8
		c1.2,1.5,2.3,3,3.8,4.4c0.5,0.5,1.2,0.7,1.2,1.6c0.2-0.2,0.4-0.3,0.8-0.5c-0.2,0.4-0.3,0.6-0.4,0.9c0.4,0,0.7,0.1,1,0.1
		c0.2,0.6-0.1,1.5,1.1,1.3c0.1,0,0.2,0.1,0.3,0.2c0.5,1.3,1.3,1.3,2.4,0.8c0.2-0.1,0.7,0,0.8,0.2c0.5,1.1,1.2,1.2,2.1,0.4
		c0,0.5,0.1,1,0.1,1.4h0.4c0-0.2-0.1-0.5-0.1-1c0.5,0.4,0.8,0.6,1,0.8c1,1.4,1.9,2.7,3.3,3.9c1.9,1.6,3.7,3.3,5.5,4.9
		c3.6,2.9,7.5,5.4,11.5,7.6c4.9,2.7,9.5,5.7,14.5,8.3c6,3.1,12.4,5.3,19,6.8c2.4,0.5,4.8,1,7.2,1.6c2.1,0.6,4.3,1.5,6.4,2
		c3.2,0.7,6.6,1.3,9.8,1.9c0.7,0.1,1.4,0.2,2.2,0.3v0.2c0.9,0,2-0.4,2.2-0.1c0.5,0.8,0.9,0.4,1.5,0.3c0.7-0.2,1.5-0.2,2.3-0.2
		c2.8,0.1,5.6,0.7,8.4,0.5c0.6,0,1.5-0.5,2,0.5c0.2-0.1,0.3-0.2,0.5-0.3c0.4-0.1,0.9-0.1,1.3-0.2v0.2c-0.2,0.1-0.4,0.1-0.8,0.2
		c0.5,0.1,0.8,0.2,1.1,0.3c-0.2,0.2-0.3,0.2-0.5,0.3c-0.2,0.1-0.5,0.2-0.9,0.5c3.7,0.7,7.1,0.8,10.1,0v-0.6h0.4
		c0,0.2,0.1,0.4,0.2,0.6c4.7,0.4,9.2-0.2,13.6-1.7c0.4,0.5,0.7,1.2,1.3,0.2c0.2-0.3,0.7-0.4,1.1-0.5c0.9-0.2,2-0.6,2.8-0.3
		c0.9,0.3,1.2-0.5,1.9-0.5c1.2,0,2.3-0.1,3.4-0.3c0.6-0.1,1.2-0.4,1.9-0.6c0-0.1,0-0.2-0.1-0.3c-0.7-0.1-1.5-0.2-2.1-0.2
		c1.2-0.6,2.3-1.1,3.4-1.6c0,0.1,0.1,0.1,0.1,0.2c-0.3,0.1-0.5,0.5-0.9,0.5h1.4c-0.3,0-0.7,0.9-1.2,1.5c3.7-0.9,7-1.7,10.2-2.5V318
		c-0.4,0.1-0.7,0.1-1,0.2c-0.1-2.1,2.2-1.4,3-2.6c-1,0.3-2,0.6-3,0.8v-0.2c3.4-1.5,7-3,10.4-4.6c0,0.1,0.1,0.1,0.1,0.2
		c-0.6,0.4-1.2,0.7-2.1,1.2c0.6,0.1,1,0.1,1.3,0.2c0,0.3,0,0.5-0.1,0.6c1.7-0.1,1.3-1.6,1.8-2.5c0.3,0.1,0.7,0.3,1,0.2
		c0.9-0.2,1.7-0.5,2.6-0.8c1-0.3,2-0.6,3-1c1.6-0.7,3.1-1.6,4.8-2.4c0.3-0.1,0.8,0,1.2,0c0.3,0,0.5-0.2,0.7-0.4
		c0.4-0.3,0.8-0.9,1.1-0.8c1.4,0.2,2.4-0.3,2.8-1.6c0.1,0,0.1-0.1,0.2-0.1c0.5-0.4,1-0.8,1.5-1.1c2.2-1.2,4.4-2.4,6.6-3.7
		c0.1-0.1,0.3,0,0.5,0c0.3,0,0.7,0,0.9-0.1c1.3-0.6,2.5-1.3,3.8-2c-0.3-0.1,0-0.2-1-0.3v-0.2c1-0.2,1.3-0.3,1.9-0.5l-0.2-0.2
		c2.6-2.6,6-4.6,8.5-6.8c0.5,0.1,0.7,0.2,1,0.2c0.1-0.3,0.1-0.6,0.1-0.8c0.4-0.5,0.8-1.1,1.3-1.5c2.2-2,4.7-3.8,6.7-5.9
		c2.9-2.9,5.8-6,8.4-9.1c2.4-2.8,4.9-5.7,6.9-8.8c2.8-4.4,5.3-8.8,7.8-13.4c1.8-3.2,3.5-6.5,5.3-9.7c0.2-0.3,0.6-0.7,0.9-0.7
		c2.7-0.3,5.5-0.5,8.1-0.8c0.6-0.1,1.3-0.5,1.9-0.8c-0.3-0.5-0.5-1.1-0.8-1.6c-0.4-0.6-1-1.1-1.4-1.7c-0.4-0.5-0.7-1.1-1-1.7
		c-0.3-0.5-0.6-0.9-0.9-1.4c-0.6-1.1-1.2-2.2-1.7-3.4c-0.1-0.3-0.3-0.8-0.2-1.1c1.8-4,2.5-8.2,4.3-12.2c1.7-4.1,2.2-8.6,3-13
		c0.7-4.2,1.1-8.3,1.6-12.5c0.3-2.9,0.7-5.8,0.8-8.7C325.5,175.9,325.3,171.5,325.2,167.2L325.2,167.2z M70.1,280.4
		c-0.7-0.8-1.3-1.7-2-2.5l0.3-0.3c1.1,1.2,2.2,2.4,3.3,3.8C71.1,281,70.4,280.8,70.1,280.4L70.1,280.4z M71.7,281.3
		c0.3-0.1,0.6-0.1,0.9-0.2c0.3,0.5,0.5,1.1,0.8,1.7C72,282.7,71.3,282.1,71.7,281.3z M177.2,323.2v-0.3c1.9-0.2,3.8-0.4,5.7-0.6v0.3
		C181,322.9,179.1,323.1,177.2,323.2L177.2,323.2z M202.8,320.6c-1.4,0.3-2.9,0.5-4.4,0.7c-0.5,0.1-1.1,0.6-1.3-0.3
		c-0.2,0.1-0.4,0.1-0.6,0.2c0.5,1.5,1.7,0.3,2.7,0.9c-2.2,0.3-4.4,0.5-6.5,0.8v-0.2c0.6-0.1,1.3-0.2,1.9-0.3v-0.3
		c-1-0.1-2-0.2-3-0.2c-0.3,0-0.7,0.4-1,0.5c-0.4,0.1-0.8,0.2-1.3,0.2c-1.7,0.1-3.4,0.1-5.1,0.2c-0.1,0-0.3-0.1-0.4-0.1v-0.3
		c6.8-0.9,13.5-1.8,20.3-2.7c0.1,0.2,0.1,0.4,0.2,0.6C203.7,320.3,203.3,320.5,202.8,320.6L202.8,320.6z M204.3,319.6
		c2.3-0.3,4.5-0.5,6.7-0.8C206.4,320.1,204.8,320.3,204.3,319.6z M116,114.7c3.2-4.5,6.6-8.9,9.8-13.5c1-1.3,1.8-2.7,2.8-4.1
		c0.3-0.4,0.7-0.6,1.2-1l-0.1-0.2c0.4-0.5,0.8-0.9,1-1.3c0.5-0.8,0.8-1.7,1.2-2.6c0.1-0.2,0.4-0.4,0.4-0.4c1.4,0.7,1.4-0.8,1.9-1.3
		c0.9-1,1.8-2.1,2.6-3.1c0.6-0.8,1.2-1.5,1.7-2.4c0.1-0.3-0.2-0.8-0.3-1.2h-0.3c0.3-0.2,0.6-0.5,0.9-0.7c0.1,0,0.1,0,0.2-0.1
		c0.6-0.9,1.2-1.8,1.8-2.6c1.2-1.6,2.5-3.2,4-4.7c-0.2,0.5-0.4,1-0.6,1.4c0.1,0,0.1,0.1,0.2,0.1c1.2-1.6,2.5-3.1,3.8-4.8
		c-0.1-0.1-0.2-0.2-0.3-0.2c-0.5,0.5-0.9,1-1.4,1.5c-0.1-0.1-0.2-0.2-0.3-0.2c1-1.3,2-2.6,3-4.2c0.2,0.3,0.4,0.7,0.8,1.5
		c0.4-1,0.8-1.7,1.1-2.4c-0.3,0.3-0.7,0.6-1,0.9l-0.3-0.3l1.8-2.7c1.9-2.7,3.9-5.6,5.8-8.3c0.7-1,1.6-1.8,2.2-2.8
		c1.9-3.9,5-6.9,7.3-10.5c0.5-0.7,1.2-1.3,1.8-1.9c0.5-0.6,0.9-0.4,1.3,0.1c2.7,3.4,5.5,7,8.2,10.4c2,2.5,4.1,5,6,7.6
		c2.3,3.2,4.6,6.5,6.9,9.7c2.6,3.8,5.3,7.5,7.8,11.4c3.9,5.7,7.5,11.4,11.4,17c2.8,4.2,5.7,8.2,8.4,12.4h-5.2
		c-4.8-0.1-9.6-0.5-14.4-0.3c-6.5,0.3-13.1,1-19.6,1.5c-8.2,0.7-16.5,0.8-24.8,0.8c-2.9,0-5.9,0.4-8.8,0.6c-3.6,0.2-7,0.4-10.6,0.5
		c-4.2,0.2-8.2,0.3-12.4,0.4C120.9,114.8,118.5,114.7,116,114.7L116,114.7z M232.3,161.4v0.9c-0.1,0-0.2,0.1-0.4,0.1
		c-0.4-1.4-0.8-2.9-1.3-4.4c-1-2.9-2.1-5.9-4-8.5c-2-2.8-3.9-5.8-5.9-8.7c-0.5-0.7-1.2-1.3-1.8-1.9c-2.1-2.3-4.3-4.8-7-6.5
		c-4.1-2.5-8.2-4.7-12.7-6.5c-1.2-0.5-2.3-1.1-3.6-1.8h2.4l17.3-0.3c3.8-0.1,7.4-0.1,11.2-0.3c0.9,0,1.4,0.3,1.9,1.1
		c0.9,1.5,1.8,3,2.8,4.6c0.1,0.2,0.3,0.5,0.3,0.8c0,2.2,0,4.6,0.1,6.8c0.1,2.3,0.3,4.6,0.4,6.9c0,2.3-0.2,4.8-0.1,7.2
		C232.2,154.3,232.3,157.8,232.3,161.4L232.3,161.4z M123.2,127.4c4.8-0.2,9.3-0.5,14-0.7c3.7-0.2,7.4-0.3,11.1-0.5
		c1.5-0.1,2.9-0.2,4.5,0c-1.6,0.8-3.2,1.6-4.7,2.6c-1.8,1.2-3.6,2.8-5.4,4.2c-1.8,1.3-3.4,2.9-5,4.7c-1.9,2.3-4.1,4.4-6.1,6.6
		c-1.4,1.6-3,3.1-4.3,4.9c-1.7,2.2-3.2,4.7-4.9,7.2C123,146.7,123.6,137.1,123.2,127.4L123.2,127.4z M189.4,225
		c-3.2,0.8-6.6,1.7-9.9,2.1c-2.8,0.4-5.8,0.3-8.7,0.3c-2.6,0-5.2-0.1-7.8-0.3c-2.9-0.3-5.9-0.6-8.7-1.9c-2.4-1.1-5-2.1-7.4-3.3
		s-4.9-2.6-6.7-4.9c-1.3-1.6-3.1-2.9-4.8-4.4c0.3,1.2,1.1,2.3,2.1,2.9c-0.5,0.6-1.2,0.3-2.2-1.3c-0.3,0.2-0.6,0.3-0.8,0.4
		c0.3-0.7,0.6-1.4,0.9-2c-0.4-0.8-0.9-1.7-1.3-2.5c-0.8-1.3-1.6-2.7-2.3-4.1c-0.2-0.3-0.2-0.6-0.4-0.9c-0.5-0.6-1-1.2-1.4-1.8
		c-0.8-1.2-1.5-2.5-2.5-3.8c0,0.3,0.1,0.6,0.1,1c-0.1,0-0.2,0.1-0.2,0.1l-2.1-5.2c-0.1,0-0.1,0-0.2,0.1l1.8,6.7
		c-0.1,0-0.2,0.1-0.3,0.1c-0.3-0.4-0.6-0.8-0.8-1.3c-0.2-0.8-0.8-0.8-1.3-0.5c-0.3,0.2-0.5,0.9-0.4,1.2c0.7,1.7,1.5,3.4,2.3,5.2
		c0.2,0.6,0.4,1.1,0.7,1.7c0.1,0.2,0.4,0.4,0.4,0.7c0.4,0.8,0.7,1.6,1.2,2.3c0.9,1.2,1.9,2.4,2.8,3.7s1.7,2.5,2.5,3.8
		c0.1,0.2,0.4,0.2,0.5,0.3c0.5,1.5,2.2,2.6,3.5,2c0.3,2.3,2.8,3.1,3.9,5.4c-1-0.4-2-0.8-2.9-1.3c-0.1,0.1-0.1,0.2-0.2,0.4
		c1.2,0.6,2.4,1.2,3.6,1.9c1,0.6,2,1.2,2.9,1.9c1.2,1.1,2.6,1.7,4.4,2.1c-0.1-0.3-0.2-0.4-0.2-0.4c2.7,1.2,5.4,2.5,8,3.9
		c-10.6,0.2-21.8,0.4-33.5,0.6c0-1.9-0.1-3.8-0.1-5.7c0-0.8,0.2-1.5,0.1-2.3c-0.3-4.7-0.3-9.3-0.9-13.9c-0.6-4.9-0.6-9.6-0.5-14.5
		c0.1-2.6-0.1-5.4-0.2-8c0-3.6,0-7,0.1-10.6c0-0.5,0.2-0.9,0.4-1.4h0.3c0.1,0.2,0,0.5,0.2,0.6c0.3,0.3,0.8,0.8,1,0.7
		c0.6-0.4,1.5-0.8,1.7-1.4c0.5-1.2,0.7-2.5,0.7-3.8c0-0.9,0.4-1.5,0.8-2.1c0.2-0.3,0.3-0.6,0.5-1c-0.4-0.3-0.8-0.5-1.3-0.9
		c0.4-1.1,0.3-2.4,1.8-3c0.2-0.1,0.2-0.6,0.3-0.9c0.1-0.8,0.2-1.7,0.3-2.5c0.2,0.3,0.3,0.4,0.5,0.6c0.1-0.2,0.2-0.3,0.2-0.3
		c0-0.4-0.1-1.2,0-1.2c1.2-0.2,0.7-1.5,1.3-2.1c0.1-0.1-0.1-0.4-0.1-0.6c0-0.2,0-0.5,0.1-0.5c1.4-0.3,1.2-1.8,2.1-2.5
		c0.3-0.2,0.4-0.5,0.8-1c0.8,1.4-0.6,2.1-0.7,3.1c1.7-1,2.2-3.5,1.2-4.2c0.4-0.3,0.8-0.7,1.1-1.1c1.1-1.2,2.3-2.3,3.3-3.6
		c0.7-0.9,1.1-2,1.8-2.9c0.4-0.5,1.2-0.9,1.8-1.2c1.8-1,3.6-2.1,4.7-3.9c0.2-0.2,0.5-0.4,0.8-0.6c0.3-0.2,0.9-0.2,1-0.5
		c0.1-0.2-0.2-0.7-0.4-1c0.4-0.2,0.8-0.6,1.6-1c-0.3,0.6-0.4,1-0.6,1.4l0.5,0.5c0.9-0.7,2.3-1.5,3.2-2.1c0-0.1-0.5-0.5-0.5-0.5
		c-0.6,0.3-1.5,0.8-2.4,1.2c0.2-0.3,0.2-0.5,0.3-0.6c1.4-0.9,2.8-1.8,4.4-2.5c3.6-1.6,7.1-3.2,10.7-4.8c0.6-0.3,1.4-0.1,2.1-0.1
		c0.3,0,0.5,0,0.8-0.1c1.6-0.5,3.2-1,4.9-1.4c0.7-0.2,1.5-0.3,2.2-0.3c3,0.1,6.1,0.1,9.1,0.3c1.3,0.1,2.5,0.4,3.8,0.8
		c1.5,0.5,3.1,1.2,4.6,1.9c1.7,0.9,3.4,1.9,5,3c2.9,1.9,5.7,4.1,8.6,5.8c2.8,1.7,5.1,4.1,6.9,6.7c2.2,3.1,4.8,6,5.8,9.8l1.5,6.7
		c0.3,1.2,1,2.4,0.7,3.9c-0.5,2.5-0.9,5.2-1.3,7.7c-0.2,1-0.4,2-0.3,3c0.2,3.1-1,5.9-2.2,8.7c-0.4,0.9-1,1.8-1.5,2.8
		c0.1,0.1,0.7,0.4,0.8,0.4l0.9-1.8c0.1,0,0.1,0,0.2,0.1c-0.5,1.4-0.9,2.9-1.4,4.4c-1.2,3.1-2.4,6.4-4,9.4c-0.8,1.7-2.2,3.1-3.2,4.8
		c-1,1.4-1.8,2.9-2.8,4.3c-0.9,1.1-1.8,2.2-3,3c-2.7,2-5.6,4.1-8.5,5.7C193.6,223.9,191.4,224.5,189.4,225L189.4,225z M135.3,219.6
		l-0.1,0.1c-0.2-0.1-0.5-0.2-0.7-0.4l-2.4-3.7c-0.2-0.3-0.3-0.6-0.2-1C133,216.3,134.1,218,135.3,219.6L135.3,219.6z M198.4,233.5
		c4.6-1.9,8.3-4.7,11.8-7.8c0.5-0.5,1-1,1.6-1.4c4.3-2.6,7.4-6.3,10.2-10.3c3.2-4.7,5.4-9.9,8-14.9c0.2-0.4,0.4-0.8,0.6-1.1
		c-0.2,11.6,1.1,22.9,2.6,34.4C221.9,232.7,210.2,233.1,198.4,233.5L198.4,233.5z M301.3,230.5c-0.1,0.2-0.3,0.4-0.4,0.6
		c-0.1-0.2-0.1-0.5-0.2-0.9c-0.6,1.6-1.9,0.8-2.8,0.8c-5.5,0.1-11.1,0.1-16.5,0.1c-5.3,0-10.7,0-15.9,0.1c-1.7,0-3.6,0.4-5.3,0.5
		c-4.2,0.2-8.3,0.3-12.5,0.4c-0.3,0-0.6-0.5-1.1-0.9c-0.1,0.2-0.3,0.5-0.6,0.9c-0.1-0.2-0.3-0.4-0.5-0.7c-0.1,0.3-0.2,0.5-0.3,0.8
		h-0.3c-0.2-1.4-0.6-2.7-0.6-4.2c0-3,0.3-6.1,0.4-9.1c0.1-1.4,0-2.7,0-4.1c0.4,0.3,0.7,0.5,1.1,0.8c0.2-0.4,0.4-0.7,0.6-1
		c0,0-0.2-0.1-0.4-0.3c0.2-0.1,0.4-0.3,0.4-0.4c0.1-0.3,0.3-0.6,0.3-0.8c0-0.7-0.2-1.3-0.3-1.9c0.1,0,0.2,0,0.3-0.1l0.6,3h0.3
		c-0.4-0.7,0.9-1.3-0.2-2.1c-0.1-0.1,0.1-0.7,0.1-1c-0.3-0.6-0.5-1.2-0.8-2c0.1-0.1,0.4-0.2,0.7-0.3c-0.4-0.2-0.7-0.4-1-0.5
		c1-0.9,1-1.4,0.1-2.4c0.2-0.1,0.4-0.1,0.4-0.2c0-0.9,0-1.8-0.2-2.7c-0.2-1,0.3-2.2-1.2-2.8c0.1,0.3,0.2,0.6,0.4,0.8
		c0,0-0.3,0.1-0.6,0.3c-1.3-1.2-0.5-2.8-0.8-4.7c0.7,0.2,1.2,0.4,1.7,0.6c-0.2-0.7-0.7-1.5-1-2.4h-0.4v-6.7c0,0.1,0.7,0.1,1.1,0.2
		c0-0.1,0.1-0.2,0.1-0.3c-0.3-0.4-0.7-0.8-1.1-1.3l0.2-0.2c-0.8-1-0.4-2.4-0.4-2.7v-7.1c1,1-0.5,2.3,1,2.9v-1h-0.1
		c-0.1-1.5-0.1-3-0.2-4.6h-0.2c-0.1,0.2-0.1,0.3-0.2,0.5h-0.2c0.2-8,0.4-16,0.6-24.2c1,1.3,2.1,2.5,2.8,3.9
		c2.3,4.3,5.4,7.9,8.2,11.8c2.4,3.3,4.7,7,6.9,10.4c2.7,4.2,5.4,8.3,8.1,12.5c2,3.2,4.1,6.3,6.3,9.3c1.9,2.7,4,5.4,6,8
		c1.7,2.3,3.6,4.7,5.3,7c2,2.8,4.1,5.7,6.1,8.4c1,1.4,2.1,2.8,3.2,4.3c0.6,0.8,1.5,1.4,2.1,1.9c-0.1,0-0.2,0-0.4-0.1
		c0.3,0.4,0.5,0.7,0.7,0.9C301.8,229,301.9,229.6,301.3,230.5L301.3,230.5z M306.5,205.1v-0.7C306.5,204.6,306.6,204.9,306.5,205.1z
		 M309.9,160.4c-0.1,0-0.7-0.6-0.8-0.7c-0.1,0.3,0,0.6-0.2,1c-0.1-0.3-0.8-0.2-0.8-0.5c-0.1,1.4,0.6,2.8,0.5,4.3
		c0.3-0.2,1.5-0.3,1.8-0.6c0.1,0.1,0.3,0.2,0.4,0.2c-2,1.5-1.5,3-0.6,4.8c0.2,0.4,0.8,1.2,0.2,2c-0.2,0.2,0.1,0.8,0.2,1.3h0.3v0.2
		l-0.9,0.3c-0.2-0.3-1.4-0.9-1.4-1.4v5.2c1,0.3,1,1.7,1.4,2.4c0.2-0.3,0.3-0.5,0.4-0.8l0.1,0.1c-0.1,0.6-0.2,1.2-0.4,1.8
		c-0.2,0.9-0.4,1.7-0.5,2.6c0,0.1,0.2,0.3,0.2,0.4c-1.1,2.5-0.5,5.4-0.9,8c-0.3,1.9,0,4-0.2,6c-0.2,1.7-0.6,3.6-1,5.3
		c-0.1,0.3-0.3,0.4-0.8,0.6c0.2-1.2,0.1-2-0.1-3.1c-0.1,0-1.4-0.7-1.5-0.7c0,1.4,0.8,3.3,1.1,5c-0.3-0.1-1.5-0.8-1.6-0.8
		c-0.2,1.2-0.2,2.8-0.3,4.2c-0.1,1-1,1.9-1.1,3c0,0.6,0.7,1,0.6,2h0.8c0-2,0.9-3.9,0.9-6h0.3c0.1,0.2,0.4,0.4,0.3,0.5
		c-0.2,1.1-0.6,2.3-0.5,3.4c0,0.6,0.5,1.2,0.3,1.9c-0.2,0.6-0.3,1.2-0.4,2.1c-0.1-0.5-0.2-0.7-0.2-1c-0.1,0-1-0.1-1.1-0.1
		c-0.1,0.6,0.7,1.2,0.6,1.7c-0.1,0.1-0.2,0.1-0.4,0.2l-3.3-4.9c-2.6-3.9-5.3-7.7-7.9-11.7c-0.7-1-1.3-2-1.8-3
		c-3.1-5.4-6.6-10.6-10.4-15.5c-2.9-3.8-5.3-7.8-8-11.8c-2.5-3.8-5.1-7.4-7.6-11.2c-0.9-1.2-2-2.3-2.8-3.7c-2.6-4.2-5-8.4-7.6-12.6
		c-2.2-3.5-4.7-6.8-7-10.1c-0.8-1.2-1.6-2.4-2.4-3.6c-0.1-0.2-0.2-0.4-0.2-0.7c-0.2-2.2-0.4-4.5-0.5-6.6c0-2,0.2-4.1,0.2-6.2V112
		c0-0.5,0.1-0.9,0.1-1.4c0.1-0.1,0.2-0.3,0.3-0.4c-2.9,0-6-0.1-8.9,0c-1.9,0.1-2.9-0.7-4.3-2.1c-3.9-4.4-6.7-9.3-10-14
		c-3.1-4.5-6.4-8.8-9.6-13.2c-2.6-3.6-5.3-7-7.9-10.6c-2.9-4.1-5.8-8.1-8.8-12.2c-3.7-4.9-7.4-9.7-11.2-14.6
		c-1.7-2.2-3.7-4.4-5.6-6.7c1.3,0.2,2.5,0.4,3.8,0.5l4.9,0.3c3.7,0.3,7.3,0.5,11,1c3,0.4,6.1,1,9.2,1.5c6.7,1.1,13.3,2.9,19.7,5.1
		c3.8,1.2,7.4,2.8,11.1,4.4c8.2,3.3,16,7.4,23.7,11.7c2.4,1.3,3.9,3.4,5.7,5.4c2.6,2.7,5.3,5.5,7.8,8.3c2.9,3.3,5.7,6.8,8.5,10.2
		c2.5,3,5.2,6.1,7.7,9.1c0.8,0.9,1.4,2,2.1,3c1.6,2.4,3.4,4.8,4.9,7.4c1,1.9,1.6,4.2,2.3,6.3c1,3.1,2,6.2,3,9.3
		c0.7,2.4,1.3,4.8,1.8,7.2c0.4,1.6,0.3,3.3,0.8,5c0.6,2.1,0,4.5,0.6,6.6c0.1,0.2,0.2,0.5,0.3,0.7c0.4,0.4,0.7,0.8,0.1,1.4
		c-0.1,0.1-0.1,0.5,0,0.8c0.2-0.2,0.3-0.4,0.5-0.7c0,0.2,0.1,0.3,0.1,0.4c0,0.4-0.1,0.8,0,1.2c0,0.2,0.2,0.5,0.3,0.7
		c0.2-0.2,0.4-0.3,0.8-0.6c0.9,3.4,1,6.9,1,10.4c0,3.3,0.6,6.7-0.8,9.9C310.3,162.4,309.6,161.4,309.9,160.4L309.9,160.4z"/>
	<path id="XMLID_42_" class="st0" d="M245.4,200.2c0.1,0,0.2,0.1,0.2,0.1l-0.1-0.1C245.5,200.1,245.5,200.1,245.4,200.2z
		 M261.5,300.4c-1.1,0.8-2.2,1.5-3.7,1.8c-0.1-0.1-0.1-0.2-0.2-0.3c1.1-0.7,2.3-1.4,3.5-2.1C261.2,300,261.4,300.2,261.5,300.4
		L261.5,300.4z M71.2,162.9c1.1-1.4,2.2-2.8,3.4-4.3c0.1,0.1,0.9,0.3,1,0.4c-1.1,1.4-2.6,3.3-3.8,4.9
		C71.7,163.7,71.4,163,71.2,162.9L71.2,162.9z M42.4,212.6c-0.8-1.7-1.6-3.6-2.4-5.3c0.1-0.1,0.8-0.4,0.9-0.4
		c1.1,1.6,1.6,3.6,2.4,5.3C43.3,212.2,42.5,212.6,42.4,212.6z M68.3,163.9c-0.6,0.9-1.2,1.9-1.8,2.8c-0.1-0.1-1.2,0.4-1.3,0.3
		c0.6-0.9,2.1-2.5,2.7-3.4C68,163.7,68.1,163.8,68.3,163.9z M250.6,304.6c0.1,0,0.1-0.1,0.2-0.1c0.7,0.1,1.5,0.2,2.3,0.2
		C251.8,305.6,251,305.5,250.6,304.6L250.6,304.6z M68.5,168.2c0.1-0.3,0.3-0.6,0.5-0.9c0.2,0,0.5-0.1,0.5-0.1
		c0.4-0.7,0.4-1.2,0.8-1.8c-0.1-0.1-0.2-0.1-0.3-0.2c-0.6,0.4-1.2,0.9-1.8,1.3c0.2,0.2,0.2,0.3,0.2,0.5c-0.8-0.1-1.1,0.3-1.5,1.4
		c-0.1,0.3-0.6,0.4-1.1,0.8c-0.1,0.2-0.2,0.7-0.4,1.2l0.1,0.1c-0.1,0.1-0.3,0.2-0.5,0.3c-0.6,0.6-1.3,1.1-1.9,1.7
		c-0.1,0.3-0.2,0.6-0.2,0.9c0.7-0.7,1.9-2,2.8-2.8l0.1,0.1c0.4-0.6,0.7-1.2,1.1-1.8c0.1,0.1,0.1,0.2,0.2,0.3
		c-0.3,0.8-0.6,1.7-0.9,2.5c-0.2,0.1-0.5,0.3-0.5,0.2c-0.4,0.3-0.7,0.7-1.1,1l-1.8,1.2c-1,0.9-2,1.7-3.1,2.6
		c-0.7,1.1-1.4,2.1-2.2,3.4c1.2-0.3,1.5,0.2,1.4,1.2c1.4,0.2,1.5-0.9,1.9-1.7c0.1-0.2,0.2-0.6,0.4-0.7c0.9-0.8,1.9-1.5,2.9-2.3
		c0.2-0.2,0.2-0.6,0.2-0.9c0-0.1-0.5-0.1-0.8-0.2c0.9-1,2.2-2.7,3.1-3.9c0.5-0.3,1-0.7,1-1c-0.1-1.1,0.6-1.4,1.4-1.8
		C68.6,168.6,68.5,168.3,68.5,168.2L68.5,168.2z"/>
	<path id="XMLID_33_" class="st0" d="M70.5,167.1c-0.4,0.7-0.8,1.3-1.2,2l-0.6-0.3c-0.4,2.3-1.8,4.4-3.2,4.8
		c0.4,0.2,0.8,0.4,1.1,0.3c0.3-0.1,0.5-0.6,0.7-0.9l2.7-4l0.9-1.5L70.5,167.1L70.5,167.1z M36.7,211.6c0.5,0,1,0.1,1.6,0.1
		c0-0.4,0.5-0.3,0.5-0.7h0.3c0,0.5,0.1,0.9,0.1,1.4h-2.1C37,212.3,36.6,211.7,36.7,211.6L36.7,211.6z M35.9,207
		c-0.3-0.3-0.8-0.6-0.8-0.9c-0.1-0.4,0.2-0.9,0.5-1.4c0.2,0.7,0.3,1.3,0.5,2C36,206.8,35.9,206.9,35.9,207z M38.5,200.5
		c0.4,1,0.8,2.1,1.2,3.1c-0.1,0-0.7,0.3-0.8,0.4c-0.4-1-0.9-2.1-1.3-3.1C37.7,200.8,38.3,200.5,38.5,200.5z M264.3,297.5
		c0.5-0.2,1.1-0.3,1.9-0.5c-0.9,0.7-1.6,1.2-2.2,1.8c-0.1-0.1-0.2-0.2-0.3-0.2C263.9,298.2,264.1,297.9,264.3,297.5L264.3,297.5z
		 M139.6,83.1c0.6-0.4,1.1-0.7,1.7-1.1l0.2,0.2c-0.6,0.8-1.1,1.6-1.8,2.6c-0.1-0.7-0.1-1.1-0.2-1.6
		C139.4,83.2,139.5,83.2,139.6,83.1L139.6,83.1z M169.3,134.4c0.9-0.4,1.8-0.8,2.9-1.3c-0.1,0.6-0.1,1-0.1,1.4
		c-0.3-0.1-0.7-0.2-1-0.2c-0.6,0.1-1.7,0.9-2.2,1C168.8,135.3,169.3,134.5,169.3,134.4z M245.4,220.5c0.2,1,2.1,1.5,0.2,2.5
		c0.3,0.2,0.6,0.3,0.9,0.5c0,0.1-0.1,0.3-0.2,0.4c-0.2,0.1-0.6,0.3-0.8,0.2c-0.1,0-0.3-0.4-0.3-0.6
		C245.2,222.6,245.3,221.7,245.4,220.5z"/>
</g>
</svg>
