<?xml version="1.0" encoding="utf-8"?>
<!-- Generator: Adobe Illustrator 19.0.0, SVG Export Plug-In . SVG Version: 6.00 Build 0)  -->
<svg version="1.1" id="Capa_1" xmlns="http://www.w3.org/2000/svg" xmlns:xlink="http://www.w3.org/1999/xlink" x="0px" y="0px"
	 viewBox="-22 195.9 550 450" style="enable-background:new -22 195.9 550 450;" xml:space="preserve">
<style type="text/css">
	.st0{display:none;}
	.st1{fill:#EFCCA3;}
	.st2{fill:#CDAD8E;}
	.st3{fill:#010202;}
	.st4{fill:#FFFFFF;}
	.st5{fill:#56342C;}
	.st6{fill:#452924;}
	.st7{fill:#804B42;}
	.st8{fill:#331712;}
</style>
<g id="Capa_2" class="st0">
</g>
<g id="Capa_3" class="st0">
</g>
<g id="Capa_4" class="st0">
</g>
<g id="Capa_6" class="st0">
</g>
<g id="Capa_5" class="st0">
</g>
<g id="Capa_7">
</g>
<g id="Capa_8" class="st0">
</g>
<g id="Capa_9" class="st0">
</g>
<g>
	<path class="st1" d="M405.6,365.9c-0.7-15.5,1.4-29.2-5.6-40.7c-16.9-28.8-59-45.7-143.3-45.7v2.5h-1.8h1.8v-2.5
		c-84.3,0-128.5,16.9-145.4,46c-6.7,11.9-6,25.3-7,40.7c-0.7,12.3-6.3,25.3-3.9,39.3c2.8,18.3,3.9,36.5,6.7,53.4
		c2.1,13.7,21.1,25.3,22.8,38.3c4.9,35.8,42.1,52.3,126.4,52.3v2.8h-2.1h2.5v-2.8c84.3,0,120.1-16.5,124.7-52.3
		c1.8-13.3,19.3-24.6,21.4-38.3c2.8-16.9,3.9-35.1,6.7-53.4C411.9,391.5,406.3,378.2,405.6,365.9L405.6,365.9z"/>
	<path class="st2" d="M255.2,378.5c15.1,0.4,25.6,9.8,35.5,18.6c11.6,10.2,31.3,17.2,39.3,26s18.6,17.6,22.5,31.3
		c3.9,13.7,4.9,31.3,4.9,35.8c0,4.6,2.5,3.5,9.5,0c16.5-8.1,34.8-29.9,34.8-29.9c-2.1,13.7-20,26-21.8,39c-4.2,35.8-39,53-125,53
		h-0.4h2.1"/>
	<path class="st2" d="M310.7,351.1c3.2,10.9,14.4,47.8-7.4,35.5c0,0,9.1,5.3,14.8,25.3c6,20,20.4,22.5,20.4,22.5s23.5,4.6,41.1-10.5
		c14.8-12.6,17.2-35.1,10.9-52.3c-6.3-16.9-17.6-22.1-34.1-25.6C339.9,342,306.9,338.8,310.7,351.1z"/>
	<circle class="st3" cx="352.5" cy="391.2" r="30.9"/>
	<circle class="st4" cx="344.4" cy="377.5" r="8.1"/>
	<path class="st1" d="M305.5,389.8c0,0,27.7,19,42.8,37.6s14.8,22.1,14.8,22.1l-10.9,4.9c0,0-15.5-29.2-34.4-40
		c-19.3-10.9-21.4-20-21.4-20L305.5,389.8L305.5,389.8z"/>
	<path class="st2" d="M256.3,378.5c-15.1,0.4-26.3,9.8-36.5,18.6c-11.6,10.2-32,17.2-40,26c-8.1,8.8-19,17.6-22.8,31.3
		c-3.9,13.7-5.3,31.3-5.3,35.8c0,4.6,0.7,4.9-9.5,0c-16.5-7.7-34.8-29.9-34.8-29.9c2.1,13.7,20,26,21.8,39
		c4.9,35.8,39.7,53,125.7,53h1.8"/>
	<path class="st5" d="M337.8,437.9c-16.9-20.7-43.9-40-81.5-40h-0.4c-37.6,0-64.6,19.3-81.5,40c-17.6,21.4-16.2,29.9-16.2,50.2
		c0,73.8,26,52.7,43.2,61.8c17.6,8.8,35.8,6,54.4,6h0.4c19,0,36.9,2.5,54.4-6.3c17.2-8.8,43.2,13,43.2-60.8
		C354.3,468.4,355.3,459.3,337.8,437.9L337.8,437.9z"/>
	<path class="st6" d="M254.5,416.1c0,0-2.5,34.1-7.4,40.7l9.1-2.1L254.5,416.1z"/>
	<path class="st6" d="M257,416.1c0,0,2.5,34.1,7.4,40.7l-9.1-2.1L257,416.1z"/>
	<path class="st5" d="M227.5,408c-3.5-8.1,9.1-21.1,29.2-21.4c20,0,32.7,13,29.2,21.4c-3.5,8.4-16.2,10.9-29.2,11.2
		C244,418.9,231,416.4,227.5,408L227.5,408z"/>
	<path class="st3" d="M256.6,416.1c0-1.4,11.9-1.8,18.3-6c0,0-13,4.2-15.8,2.5c-2.8-1.4-3.5-5.6-3.5-5.6s-1.1,4.2-3.2,5.6
		c-2.5,1.4-17.2-2.5-17.2-2.5s19.7,4.9,19.7,6s-0.4,4.6-0.4,7c0,8.8,0,30.6,1.4,32.3c2.1,3.2,1.4-23.5,1.4-32.3
		C257,420.3,257,417.5,256.6,416.1z"/>
	<path class="st7" d="M257.3,463.2c6,0,16.5,4.2,26,10.9c-9.1-10.2-20-17.2-26-17.2c-6.3,0-19.7,7.7-29.2,19
		C238,468.1,250.7,463.2,257.3,463.2z"/>
	<path class="st6" d="M254.9,525.3c-13.3,0-26.3-4.2-38.3-7.4c-2.5-0.7-4.9,1.1-7.4,0.4c-22.1-7-40-19-50.9-34.1v3.5
		c0,73.8,26,53,43.2,61.8c17.6,8.8,35.8,6,54.4,6h0.4c19,0,36.9,2.5,54.4-6.3c17.2-8.8,43.2,12.6,43.2-61.1c0-2.8,0-5.6,0.4-8.1
		c-10.2,16.5-28.8,29.5-52,37.2c-2.1,0.7-7-1.1-9.1-0.7C280.5,520.8,269.3,525.3,254.9,525.3L254.9,525.3z"/>
	<path class="st6" d="M221.5,485.6c0,0-8.8,26.3-2.8,37.9l-8.1-3.5C210.6,520.1,216.6,493.4,221.5,485.6z M291.1,485.6
		c0,0,8.8,26.3,2.8,37.9l8.1-3.5C301.9,520.1,295.6,493.4,291.1,485.6L291.1,485.6z"/>
	<path class="st2" d="M199,351.1c-3.2,10.9-14.4,47.8,7.4,35.5c0,0-9.1,5.3-14.8,25.3c-5.6,20-20.4,22.5-20.4,22.5
		s-23.5,4.6-41.1-10.5c-14.8-12.6-17.2-35.1-10.9-52.3c6.3-17.2,17.6-22.1,34.1-25.6C169.9,342,202.5,338.8,199,351.1L199,351.1z"/>
	<path class="st3" d="M256.3,456.8c9.5,0,39,20.4,39.3,45.3v-1.4c0-26-23.9-46.7-39.3-46.7c-15.5,0-39.3,21.1-39.3,46.7v1.4
		C217.3,477.2,246.8,456.8,256.3,456.8z"/>
	
		<ellipse transform="matrix(-0.2498 -0.9683 0.9683 -0.2498 -62.0915 758.1078)" class="st8" cx="262.6" cy="403.1" rx="5.3" ry="2.8"/>
	
		<ellipse transform="matrix(0.2963 -0.9551 0.9551 0.2963 -210.8848 520.0289)" class="st8" cx="247.5" cy="403.1" rx="5.3" ry="2.8"/>
	<circle class="st3" cx="159" cy="391.2" r="30.9"/>
	<circle class="st4" cx="167.1" cy="377.5" r="8.1"/>
	<path class="st7" d="M265.4,391.5c0-0.4-8.1,3.5-10.2,3.9c-2.1-0.4-10.2-4.2-10.2-3.9H265.4z"/>
	<path class="st1" d="M204,389.8c0,0-27.7,19-42.8,37.6c-15.1,18.6-14.8,22.1-14.8,22.1l10.9,4.9c0,0,15.5-29.2,34.4-40
		c19-10.9,21.4-20,21.4-20L204,389.8z"/>
	<path class="st2" d="M143.2,333.6c0,0-9.5,26-30.6,36.9C112.6,370.4,145.6,366.6,143.2,333.6z M364.8,333.6c0,0,9.5,26,30.6,36.9
		C395.4,370.4,362.4,366.6,364.8,333.6z M304.8,382c0,0-20.7-21.8-48.5-22.5h0.4h0.4c-28.1,0.7-48.5,22.5-48.5,22.5
		c24.2-16.9,45-16.5,48.5-16.5C256.6,365.5,280.5,365.2,304.8,382L304.8,382z M280.5,336.4c0,0-10.5-14.8-24.6-15.1h0.7
		c-10.5,0.4-24.2,15.1-24.2,15.1c11.9-11.6,24.2-11.2,24.2-11.2S268.2,324.8,280.5,336.4z M159,444.2c0,0-16.5,8.1-28.4,3.2h-0.4
		c-10.5-6-15.8-23.9-15.8-23.9S124.9,455.1,159,444.2z M351.5,444.2c0,0,16.5,8.1,28.4,3.2c14-6,16.2-23.9,16.2-23.9
		S385.5,455.1,351.5,444.2z"/>
	<path class="st2" d="M178,331.8c9.1-1.8,24.2-2.1,36.2,1.8c15.1,5.3,2.8,24.6,6,25.6c3.2,1.1,7.4-13.3,35.5-11.9
		c28.4,1.4,31.6,14,35.5,11.9c3.9-2.1-3.9-35.1,38.6-27.4c0,0-44.6-11.9-42.5,20.4c0,0-25.6-19.7-61.5-2.1
		C226.1,350.1,235.2,319.9,178,331.8z M333.6,331.8c0.7,0,1.1,0.4,1.4,0.4C335.3,332.2,334.6,331.8,333.6,331.8z M165.7,288.6
		c0,0-37.9,47.8-43.6,66c-5.6,18.6-9.8,94.8-14.8,105.7l-17.6-75.2l32.3-78.3L165.7,288.6L165.7,288.6z M344.1,288.6
		c0,0,37.9,47.8,43.6,66c5.6,18.6,9.8,94.8,14.8,105.7l17.6-75.2l-32.3-78.3L344.1,288.6L344.1,288.6z"/>
	<path class="st5" d="M342.3,288.6c0,0,40.7,34.1,52.7,73.4s7,87.1,16.2,93.1c13,8.4,27.7-41.8,32.7-47.1
		c7.7-8.4,33.4-29.9,35.1-33.7c1.8-3.9-52-62.5-75.5-74.1C375,286.8,339.9,285.8,342.3,288.6L342.3,288.6z"/>
	<path class="st6" d="M377.1,309.7c0,0,48.1,61.5,47.4,138l19.3-39.3C443.5,408.4,426.6,358.1,377.1,309.7L377.1,309.7z"/>
	<path class="st5" d="M165.7,288.6c0,0-40.7,34.1-52.7,73.4s-7,87.1-16.2,93.1c-13,8.4-27.7-41.8-32.7-47.1
		c-7.7-8.4-33.4-29.9-35.1-33.7c-1.8-3.9,52-62.5,75.5-74.1C133,286.8,168.1,285.8,165.7,288.6L165.7,288.6z"/>
	<path class="st6" d="M130.9,309.7c0,0-48.1,61.5-47.4,138l-19-39.3C64.5,408.4,81.4,358.1,130.9,309.7z"/>
	<path class="st2" d="M104.9,449.1c0,0,3.5,19,9.1,24.9s1.8-4.6,1.8-4.6s-6-3.2-4.9-27.4C111.9,417.9,104.9,449.1,104.9,449.1
		L104.9,449.1z M404.5,449.1c0,0-3.5,19-9.1,24.9c-5.6,6-1.8-4.6-1.8-4.6s6-3.2,4.9-27.4C397.5,417.9,404.5,449.1,404.5,449.1
		L404.5,449.1z"/>
	<g>
		<circle class="st6" cx="219.8" cy="434.7" r="2.8"/>
		<circle class="st6" cx="203.6" cy="451.6" r="2.8"/>
		<circle class="st6" cx="198.3" cy="434.7" r="2.8"/>
	</g>
	<g>
		<circle class="st6" cx="288.2" cy="434.7" r="2.8"/>
		<circle class="st6" cx="304.4" cy="451.6" r="2.8"/>
		<circle class="st6" cx="309.7" cy="434.7" r="2.8"/>
	</g>
</g>
</svg>
