<?xml version="1.0" encoding="utf-8"?>
<!-- Generator: Adobe Illustrator 19.0.0, SVG Export Plug-In . SVG Version: 6.00 Build 0)  -->
<svg version="1.1" id="Capa_3" xmlns="http://www.w3.org/2000/svg" xmlns:xlink="http://www.w3.org/1999/xlink" x="0px" y="0px"
	 viewBox="-22 195.9 550 450" style="enable-background:new -22 195.9 550 450;" xml:space="preserve">
<style type="text/css">
	.st0{fill:#1972B8;}
	.st1{fill:#34AADE;}
	.st2{fill:#010202;}
	.st3{fill:#FFFFFF;}
</style>
<polygon class="st0" points="103,287.5 130.3,593.2 252.6,626.6 375.7,593.2 403,287.5 "/>
<path class="st1" d="M252.6,311.7v289.4l99.4-28l23.8-261.4L252.6,311.7"/>
<g>
	<polygon class="st2" points="212.2,231.1 212.2,215.2 166,215.2 166,231.1 166,256.4 166,272.3 212.2,272.3 212.2,256.4 
		184.8,256.4 184.8,231.1 	"/>
	<polygon class="st2" points="276.2,231.1 276.2,215.2 222.3,215.2 222.3,227.8 248.2,256.4 222.3,256.4 222.3,272.3 276.2,272.3 
		276.2,259 250.9,231.1 	"/>
	<polygon class="st2" points="340,231.1 340,215.2 286.1,215.2 286.1,227.8 312,256.4 286.1,256.4 286.1,272.3 340,272.3 340,259 
		314.7,231.1 	"/>
</g>
<polygon class="st3" points="158.2,348.9 161.8,387.7 305.8,387.7 302.3,424.8 207,424.8 211.6,462.4 298.7,462.4 294.1,511.2 
	252.6,522.9 211.6,511.8 208.8,482.4 170.6,482.4 175.9,540.6 252.6,562.9 329.9,540.6 347,348.9 "/>
</svg>
