<?xml version="1.0" encoding="utf-8"?>
<!-- Generator: Adobe Illustrator 19.0.0, SVG Export Plug-In . SVG Version: 6.00 Build 0)  -->
<svg version="1.1" id="Capa_1" xmlns="http://www.w3.org/2000/svg" xmlns:xlink="http://www.w3.org/1999/xlink" x="0px" y="0px"
	 viewBox="-22 195.9 550 450" style="enable-background:new -22 195.9 550 450;" xml:space="preserve">
<style type="text/css">
	.st0{display:none;}
	.st1{fill:#E55227;}
	.st2{fill:#ED692D;}
	.st3{fill:none;}
	.st4{fill:#EBEBEB;}
	.st5{fill:#010202;}
</style>
<g id="Capa_2">
</g>
<g id="Capa_3" class="st0">
</g>
<g id="Capa_4" class="st0">
</g>
<g id="Capa_5" class="st0">
</g>
<polygon class="st1" points="103,287.5 130.3,593.2 252.6,626.6 375.7,593.2 403,287.5 "/>
<path class="st2" d="M252.6,311.7v289.4l99.4-28l23.8-261.4L252.6,311.7"/>
<line class="st3" x1="252.6" y1="348.9" x2="252.6" y2="562"/>
<polygon class="st4" points="343.4,386.2 346.8,348.9 158.5,348.9 168.5,462.7 298.9,462.7 294.2,511.3 252.6,522.6 210.4,511.3 
	207.7,481.5 170.4,481.5 175.1,540.7 252.6,562 329.6,540.7 340.2,424.8 203,424.8 199.8,386.2 "/>
<polygon class="st5" points="247.9,215.2 230.6,215.2 211.8,215.2 194.5,215.2 194.5,234 211.8,234 211.8,272.3 230.6,272.3 
	230.6,234 247.9,234 "/>
<polygon class="st5" points="167.5,215.2 167.5,234.4 149.6,234.4 149.6,215.2 130.8,215.2 130.8,272.3 149.6,272.3 149.6,253.2 
	167.5,253.2 167.5,272.3 186.3,272.3 186.3,215.2 "/>
<polygon class="st5" points="375.6,253.2 348.7,253.2 348.7,215.2 329.9,215.2 329.9,253.2 329.9,272 329.9,272.3 348.7,272.3 
	348.7,272 375.6,272 "/>
<polygon class="st5" points="301.3,215.2 288,235.9 274.4,215.2 255.6,215.2 255.6,272.3 274.4,272.3 274.4,243.8 288,264.6 
	301.3,243.8 301.3,272.3 320.1,272.3 320.1,215.2 "/>
</svg>
