<?xml version="1.0" encoding="utf-8"?>
<!-- Generator: Adobe Illustrator 19.0.0, SVG Export Plug-In . SVG Version: 6.00 Build 0)  -->
<svg version="1.1" id="Capa_1" xmlns="http://www.w3.org/2000/svg" xmlns:xlink="http://www.w3.org/1999/xlink" x="0px" y="0px"
	 viewBox="-56.3 275.3 595.3 292" style="enable-background:new -56.3 275.3 595.3 292;" xml:space="preserve">
<style type="text/css">
	.st0{fill:#F39121;}
	.st1{fill:#FFFFFF;}
</style>
<g>
	<rect x="-56.3" y="275.3" class="st0" width="595.3" height="292"/>
	<g id="XMLID_15_">
		<path id="XMLID_17_" class="st1" d="M50.8,366.7H30.1v-3.8h45.5v3.8H54.9v53.6h-4.2L50.8,366.7L50.8,366.7z"/>
		<path id="XMLID_19_" class="st1" d="M83.8,417.9c-3.3-1.9-5.8-4.4-7.7-7.7c-1.9-3.3-2.8-7-2.8-11.2s0.9-7.9,2.8-11.2
			c1.9-3.3,4.4-5.9,7.7-7.7c3.3-1.9,6.9-2.8,10.9-2.8s7.7,0.9,10.9,2.8c3.3,1.9,5.8,4.4,7.7,7.7c1.9,3.3,2.8,7,2.8,11.2
			s-0.9,7.9-2.8,11.2c-1.9,3.3-4.4,5.9-7.7,7.7c-3.3,1.9-6.9,2.8-10.9,2.8C90.7,420.6,87.1,419.7,83.8,417.9z M103.6,414.7
			c2.6-1.5,4.6-3.7,6.1-6.4c1.5-2.7,2.3-5.8,2.3-9.3s-0.8-6.6-2.3-9.3c-1.5-2.7-3.6-4.9-6.1-6.4c-2.6-1.5-5.5-2.3-8.8-2.3
			s-6.2,0.8-8.8,2.3s-4.6,3.7-6.1,6.4c-1.5,2.7-2.3,5.8-2.3,9.3s0.8,6.6,2.3,9.3c1.5,2.7,3.6,4.9,6.1,6.4c2.6,1.5,5.5,2.3,8.8,2.3
			C98,417,101,416.2,103.6,414.7z"/>
		<path id="XMLID_22_" class="st1" d="M164.8,359.5v60.8h-4v-10.1c-1.7,3.3-4.1,5.9-7.1,7.7c-3.1,1.8-6.5,2.7-10.4,2.7
			c-4,0-7.6-0.9-10.8-2.8s-5.8-4.4-7.6-7.7c-1.8-3.3-2.7-7-2.7-11.2s0.9-8,2.7-11.3c1.8-3.3,4.4-5.9,7.6-7.7
			c3.2-1.8,6.8-2.7,10.8-2.7c3.8,0,7.3,0.9,10.3,2.7c3,1.8,5.4,4.3,7.2,7.5v-27.9H164.8z M152.3,414.7c2.6-1.5,4.6-3.7,6.1-6.4
			c1.5-2.7,2.3-5.8,2.3-9.3s-0.8-6.6-2.3-9.3c-1.5-2.7-3.6-4.9-6.1-6.4c-2.6-1.5-5.5-2.3-8.8-2.3s-6.2,0.8-8.8,2.3s-4.6,3.7-6.1,6.4
			c-1.5,2.7-2.3,5.8-2.3,9.3s0.8,6.6,2.3,9.3c1.5,2.7,3.6,4.9,6.1,6.4c2.6,1.5,5.5,2.3,8.8,2.3S149.7,416.2,152.3,414.7z"/>
		<path id="XMLID_25_" class="st1" d="M185.9,417.9c-3.3-1.9-5.8-4.4-7.7-7.7c-1.9-3.3-2.8-7-2.8-11.2s0.9-7.9,2.8-11.2
			c1.9-3.3,4.4-5.9,7.7-7.7c3.3-1.8,6.9-2.8,10.9-2.8s7.7,0.9,10.9,2.8c3.3,1.9,5.8,4.4,7.7,7.7c1.9,3.3,2.8,7,2.8,11.2
			s-0.9,7.9-2.8,11.2c-1.9,3.3-4.4,5.9-7.7,7.7c-3.3,1.9-6.9,2.8-10.9,2.8C192.8,420.6,189.1,419.7,185.9,417.9z M205.6,414.7
			c2.6-1.5,4.6-3.7,6.1-6.4c1.5-2.7,2.3-5.8,2.3-9.3s-0.8-6.6-2.3-9.3c-1.5-2.7-3.6-4.9-6.1-6.4c-2.6-1.5-5.5-2.3-8.8-2.3
			s-6.2,0.8-8.8,2.3s-4.6,3.7-6.1,6.4c-1.5,2.7-2.3,5.8-2.3,9.3s0.8,6.6,2.3,9.3c1.5,2.7,3.6,4.9,6.1,6.4c2.6,1.5,5.5,2.3,8.8,2.3
			S203,416.2,205.6,414.7z"/>
		<path id="XMLID_28_" class="st1" d="M248.9,419.1c-3.1-1-5.5-2.3-7.3-3.9l1.9-3.3c1.7,1.5,4,2.7,6.8,3.7s5.6,1.5,8.6,1.5
			c4.3,0,7.5-0.7,9.5-2.1s3.1-3.4,3.1-5.9c0-1.8-0.6-3.2-1.7-4.3c-1.1-1-2.5-1.8-4.1-2.3s-3.9-1-6.8-1.6c-3.4-0.6-6.1-1.3-8.2-2
			c-2.1-0.7-3.9-1.9-5.3-3.4c-1.5-1.6-2.2-3.8-2.2-6.6c0-3.4,1.4-6.2,4.2-8.4c2.8-2.2,6.8-3.3,12-3.3c2.7,0,5.4,0.4,8.1,1.1
			c2.7,0.8,4.9,1.8,6.6,3l-1.9,3.3c-1.7-1.3-3.7-2.2-6-2.9c-2.2-0.7-4.5-1-6.9-1c-4,0-7,0.7-9,2.2s-3,3.4-3,5.8
			c0,1.9,0.6,3.4,1.7,4.5s2.6,1.9,4.2,2.4c1.7,0.5,4,1.1,7,1.7c3.3,0.6,6,1.2,8.1,1.9c2,0.7,3.8,1.8,5.2,3.3s2.1,3.6,2.1,6.3
			c0,3.6-1.5,6.4-4.4,8.5s-7.1,3.2-12.5,3.2C255.2,420.6,252,420.1,248.9,419.1z"/>
		<path id="XMLID_30_" class="st1" d="M290.8,417.9c-3.3-1.9-5.8-4.4-7.7-7.7c-1.9-3.3-2.8-7-2.8-11.2s0.9-7.9,2.8-11.2
			c1.9-3.3,4.4-5.9,7.7-7.7c3.3-1.8,6.9-2.8,10.9-2.8s7.7,0.9,10.9,2.8c3.3,1.9,5.8,4.4,7.7,7.7c1.9,3.3,2.8,7,2.8,11.2
			s-0.9,7.9-2.8,11.2c-1.9,3.3-4.4,5.9-7.7,7.7c-3.3,1.9-6.9,2.8-10.9,2.8C297.7,420.6,294,419.7,290.8,417.9z M310.5,414.7
			c2.6-1.5,4.6-3.7,6.1-6.4c1.5-2.7,2.3-5.8,2.3-9.3s-0.8-6.6-2.3-9.3c-1.5-2.7-3.6-4.9-6.1-6.4c-2.6-1.5-5.5-2.3-8.8-2.3
			s-6.2,0.8-8.8,2.3c-2.6,1.5-4.6,3.7-6.1,6.4c-1.5,2.7-2.3,5.8-2.3,9.3s0.8,6.6,2.3,9.3c1.5,2.7,3.6,4.9,6.1,6.4
			c2.6,1.5,5.5,2.3,8.8,2.3S307.9,416.2,310.5,414.7z"/>
		<path id="XMLID_33_" class="st1" d="M366.1,379.9c3.2,1.8,5.8,4.4,7.6,7.7c1.8,3.3,2.7,7.1,2.7,11.3c0,4.2-0.9,8-2.7,11.2
			c-1.8,3.3-4.4,5.8-7.6,7.7c-3.2,1.9-6.8,2.8-10.8,2.8c-3.8,0-7.3-0.9-10.4-2.7c-3.1-1.8-5.5-4.4-7.2-7.7v10.1h-3.9v-60.8h4.1v27.8
			c1.7-3.2,4.1-5.6,7.1-7.4c3.1-1.8,6.5-2.7,10.2-2.7C359.2,377.2,362.8,378.1,366.1,379.9z M363.8,414.7c2.6-1.5,4.7-3.7,6.2-6.4
			c1.5-2.7,2.3-5.8,2.3-9.3s-0.8-6.6-2.3-9.3c-1.5-2.7-3.6-4.9-6.2-6.4s-5.6-2.3-8.9-2.3s-6.2,0.8-8.8,2.3c-2.6,1.5-4.6,3.7-6.1,6.4
			c-1.5,2.7-2.3,5.8-2.3,9.3s0.8,6.6,2.3,9.3c1.5,2.7,3.6,4.9,6.1,6.4c2.6,1.5,5.5,2.3,8.8,2.3S361.2,416.2,363.8,414.7z"/>
		<path id="XMLID_36_" class="st1" d="M397.1,379.7c2.8-1.7,6.2-2.5,10.2-2.5v4l-1-0.1c-4.8,0-8.5,1.5-11.1,4.5c-2.7,3-4,7.1-4,12.4
			v22.3h-4.1v-42.8h3.9v9.3C392.3,383.8,394.3,381.4,397.1,379.7z"/>
		<path id="XMLID_38_" class="st1" d="M452.3,399.9h-36.8c0.1,3.3,1,6.3,2.5,8.9c1.6,2.6,3.7,4.6,6.4,6c2.7,1.4,5.8,2.1,9.1,2.1
			c2.8,0,5.4-0.5,7.7-1.5c2.4-1,4.4-2.5,5.9-4.5l2.4,2.7c-1.9,2.2-4.2,4-7,5.2s-5.9,1.8-9.1,1.8c-4.3,0-8.1-0.9-11.4-2.8
			s-5.9-4.4-7.8-7.7s-2.8-7-2.8-11.2s0.9-7.9,2.7-11.2c1.8-3.3,4.2-5.9,7.3-7.7c3.1-1.9,6.6-2.8,10.5-2.8s7.4,0.9,10.4,2.7
			c3.1,1.8,5.5,4.4,7.3,7.7s2.7,7,2.7,11.1L452.3,399.9z M423.8,382.8c-2.4,1.3-4.3,3.2-5.8,5.7c-1.4,2.4-2.3,5.2-2.5,8.2h32.8
			c-0.2-3.1-1-5.8-2.5-8.2s-3.4-4.3-5.8-5.7c-2.4-1.4-5.1-2-8.1-2S426.2,381.5,423.8,382.8z"/>
	</g>
	<g id="XMLID_16_">
		<path id="XMLID_41_" class="st1" d="M39.3,440.2v15.1h24v7.8h-24v19.1h-9.2v-49.8h36.3v7.7L39.3,440.2L39.3,440.2z"/>
		<path id="XMLID_43_" class="st1" d="M106.2,482.2L96,467.6c-0.4,0-1.1,0.1-1.9,0.1H82.8v14.5h-9.2v-49.8h20.5
			c4.3,0,8.1,0.7,11.3,2.1c3.2,1.4,5.7,3.5,7.4,6.1c1.7,2.7,2.6,5.8,2.6,9.5s-0.9,7-2.7,9.7c-1.8,2.7-4.4,4.7-7.9,6l11.3,16.4
			L106.2,482.2L106.2,482.2z M102.8,442.8c-2.1-1.7-5.1-2.6-9.2-2.6H82.8V460h10.8c4,0,7.1-0.9,9.2-2.6s3.1-4.2,3.1-7.4
			C106,447,104.9,444.5,102.8,442.8z"/>
		<path id="XMLID_46_" class="st1" d="M133.3,479.6c-4.1-2.2-7.3-5.3-9.6-9.2c-2.3-3.9-3.5-8.3-3.5-13.1c0-4.8,1.2-9.2,3.5-13.1
			s5.5-7,9.6-9.2c4.1-2.2,8.6-3.3,13.7-3.3c5.1,0,9.6,1.1,13.7,3.3c4.1,2.2,7.3,5.2,9.6,9.1s3.5,8.3,3.5,13.2s-1.2,9.3-3.5,13.2
			s-5.5,6.9-9.6,9.1s-8.6,3.3-13.7,3.3C142,482.9,137.4,481.8,133.3,479.6z M156,472.6c2.7-1.5,4.7-3.6,6.3-6.3
			c1.5-2.7,2.3-5.7,2.3-9s-0.8-6.3-2.3-9s-3.6-4.8-6.3-6.3s-5.6-2.2-9-2.2c-3.3,0-6.3,0.7-9,2.2s-4.7,3.6-6.3,6.3
			c-1.5,2.7-2.3,5.7-2.3,9s0.8,6.3,2.3,9s3.6,4.8,6.3,6.3s5.6,2.2,9,2.2C150.4,474.8,153.3,474.1,156,472.6z"/>
		<path id="XMLID_49_" class="st1" d="M226.1,432.4v49.8h-7.6L191,448.5v33.7h-9.2v-49.8h7.6l27.4,33.7v-33.7L226.1,432.4
			L226.1,432.4z"/>
		<path id="XMLID_51_" class="st1" d="M247.8,440.3h-16.5v-7.8h42.2v7.8H257v41.9h-9.2V440.3z"/>
		<path id="XMLID_53_" class="st1" d="M273.4,458.7h19.5v7.4h-19.5V458.7L273.4,458.7z"/>
		<path id="XMLID_55_" class="st1" d="M339.1,474.5v7.7h-37.3v-49.8h36.3v7.7H311V453h24v7.6h-24v13.9H339.1z"/>
		<path id="XMLID_57_" class="st1" d="M391.9,432.4v49.8h-7.6l-27.5-33.7v33.7h-9.2v-49.8h7.6l27.4,33.7v-33.7H391.9z"/>
		<path id="XMLID_59_" class="st1" d="M403.5,432.4h21.8c5.3,0,10,1,14.1,3.1s7.3,5,9.6,8.7c2.3,3.8,3.4,8.1,3.4,13s-1.1,9.3-3.4,13
			c-2.3,3.8-5.5,6.7-9.6,8.7c-4.1,2.1-8.8,3.1-14.1,3.1h-21.8V432.4z M424.8,474.4c3.6,0,6.9-0.7,9.6-2.1c2.8-1.4,4.9-3.4,6.4-6
			s2.2-5.6,2.2-9s-0.7-6.4-2.2-9s-3.6-4.6-6.4-6s-6-2.1-9.6-2.1h-12.1v34.1L424.8,474.4L424.8,474.4z"/>
	</g>
</g>
</svg>
