<?xml version="1.0" encoding="utf-8"?>
<!-- Generator: Adobe Illustrator 19.0.0, SVG Export Plug-In . SVG Version: 6.00 Build 0)  -->
<svg version="1.1" id="Capa_1" xmlns="http://www.w3.org/2000/svg" xmlns:xlink="http://www.w3.org/1999/xlink" x="0px" y="0px"
	 viewBox="-22 195.9 550 450" style="enable-background:new -22 195.9 550 450;" xml:space="preserve">
<style type="text/css">
	.st0{display:none;}
	.st1{fill:url(#SVGID_1_);}
	.st2{fill:url(#SVGID_2_);}
	.st3{fill:url(#SVGID_3_);}
	.st4{fill:url(#SVGID_4_);}
	.st5{fill:url(#SVGID_5_);}
	.st6{opacity:0.3;fill:url(#SVGID_6_);enable-background:new    ;}
</style>
<g id="Capa_2" class="st0">
</g>
<g id="Capa_3" class="st0">
</g>
<g id="Capa_4" class="st0">
</g>
<g id="Capa_6" class="st0">
</g>
<g id="Capa_5" class="st0">
</g>
<g id="Capa_7" class="st0">
</g>
<g id="Capa_8" class="st0">
</g>
<g id="Capa_9" class="st0">
</g>
<g id="Capa_10">
</g>
<g>
	
		<linearGradient id="SVGID_1_" gradientUnits="userSpaceOnUse" x1="-42.9443" y1="840.4431" x2="-42.5177" y2="840.3687" gradientTransform="matrix(221.378 0 0 -296.3771 9731.2539 249519.4063)">
		<stop  offset="0" style="stop-color:#EC663C"/>
		<stop  offset="0.157" style="stop-color:#EB583C"/>
		<stop  offset="0.434" style="stop-color:#E9483C"/>
		<stop  offset="0.714" style="stop-color:#E83F3C"/>
		<stop  offset="1" style="stop-color:#E83D3C"/>
	</linearGradient>
	<path class="st1" d="M393.9,360.1c0-20.6-5.4-39.9-14.9-56.7c-25.2-25.9-80-32-93.6-0.1c-14,32.6,23.5,68.9,39.9,66
		c20.9-3.7-3.7-51.5-3.7-51.5c31.9,60.1,24.5,41.7-33.1,96.9C230.8,470,171.9,586.4,163.3,591.3c-0.4,0.2-0.7,0.4-1.2,0.6h226.1
		c4,0,6.6-4.2,4.8-7.8l-59.1-117c-1.3-2.5-0.4-5.6,2.1-7.1C370.6,440.2,393.9,402.9,393.9,360.1z"/>
	
		<linearGradient id="SVGID_2_" gradientUnits="userSpaceOnUse" x1="-43.0111" y1="840.5488" x2="-42.2465" y2="840.106" gradientTransform="matrix(221.378 0 0 -296.3771 9731.2539 249519.4063)">
		<stop  offset="0" style="stop-color:#C03438"/>
		<stop  offset="1" style="stop-color:#E83D3C"/>
	</linearGradient>
	<path class="st2" d="M393.9,360.1c0-20.6-5.4-39.9-14.9-56.7c-25.2-25.9-80-32-93.6-0.1c-14,32.6,23.5,68.9,39.9,66
		c20.9-3.7-3.7-51.5-3.7-51.5c31.9,60.1,24.5,41.7-33.1,96.9C230.8,470,171.9,586.4,163.3,591.3c-0.4,0.2-0.7,0.4-1.2,0.6h226.1
		c4,0,6.6-4.2,4.8-7.8l-59.1-117c-1.3-2.5-0.4-5.6,2.1-7.1C370.6,440.2,393.9,402.9,393.9,360.1z"/>
	
		<linearGradient id="SVGID_3_" gradientUnits="userSpaceOnUse" x1="-42.6927" y1="840.4166" x2="-42.5539" y2="840.318" gradientTransform="matrix(176.6654 0 0 -261.272 7757.3979 220003.1563)">
		<stop  offset="0" style="stop-color:#EC663C"/>
		<stop  offset="0.157" style="stop-color:#EB583C"/>
		<stop  offset="0.434" style="stop-color:#E9483C"/>
		<stop  offset="0.714" style="stop-color:#E83F3C"/>
		<stop  offset="1" style="stop-color:#E83D3C"/>
	</linearGradient>
	<path class="st3" d="M163.3,591.3c8.6-4.9,67.5-121.4,125.1-176.6c57.6-55.2,65-36.8,33.1-96.9c0,0-122,171.1-166.2,255.7"/>
	
		<linearGradient id="SVGID_4_" gradientUnits="userSpaceOnUse" x1="-42.722" y1="840.0682" x2="-42.7539" y2="840.4521" gradientTransform="matrix(230.752 0 0 -274.687 10117.875 231225.9844)">
		<stop  offset="0" style="stop-color:#EC663C"/>
		<stop  offset="0.157" style="stop-color:#EB583C"/>
		<stop  offset="0.434" style="stop-color:#E9483C"/>
		<stop  offset="0.714" style="stop-color:#E83F3C"/>
		<stop  offset="1" style="stop-color:#E83D3C"/>
	</linearGradient>
	<path class="st4" d="M180.5,438c82.4-151.5,93.2-166.8,136.1-166.8c22.6,0,45.3,10.2,60,28.3c-20.1-32.3-55.6-54-96.2-54.6h-140
		c-2.9,0-5.3,2.4-5.3,5.3v282.2C143.5,510.9,157.6,480.1,180.5,438L180.5,438z"/>
	
		<linearGradient id="SVGID_5_" gradientUnits="userSpaceOnUse" x1="-42.876" y1="840.4897" x2="-42.7318" y2="840.4131" gradientTransform="matrix(241.6521 0 0 -309.2024 10588.8643 260305.5)">
		<stop  offset="0" style="stop-color:#F9B042"/>
		<stop  offset="1" style="stop-color:#F18744"/>
	</linearGradient>
	<path class="st5" d="M288.4,414.7c-57.6,55.2-116.5,171.7-125.1,176.6c-8.6,4.9-23,5.5-30.7-3.1c-8.2-9.1-20.9-23.9,47.8-150.2
		c82.4-151.5,93.2-166.8,136.1-166.8c22.6,0,45.3,10.2,60,28.3c0.8,1.3,1.6,2.6,2.4,4c-25.2-25.9-80-32-93.6-0.1
		c-14,32.6,23.5,68.9,39.9,66c20.9-3.7-3.7-51.5-3.7-51.5C353.4,377.9,346.1,359.5,288.4,414.7L288.4,414.7z"/>
	
		<linearGradient id="SVGID_6_" gradientUnits="userSpaceOnUse" x1="-42.7069" y1="840.9141" x2="-42.8566" y2="839.6356" gradientTransform="matrix(237.67 0 0 -306.029 10413.6514 257634.1719)">
		<stop  offset="0" style="stop-color:#FFFFFF"/>
		<stop  offset="1" style="stop-color:#FFFFFF;stop-opacity:0"/>
	</linearGradient>
	<path class="st6" d="M187.2,444.8c82.4-151.5,93.2-166.8,136.1-166.8c18.6,0,37.3,6.9,51.5,19.4c-14.7-16.8-36.6-26.2-58.3-26.2
		c-42.9,0-53.7,15.3-136.1,166.8c-68.7,126.3-56,141.1-47.8,150.3c1.2,1.3,2.5,2.4,3.9,3.3C129.4,581.1,126.2,556.9,187.2,444.8
		L187.2,444.8z"/>
</g>
</svg>
