<?xml version="1.0" encoding="utf-8"?>
<!-- Generator: Adobe Illustrator 19.0.0, SVG Export Plug-In . SVG Version: 6.00 Build 0)  -->
<svg version="1.1" id="Capa_1" xmlns="http://www.w3.org/2000/svg" xmlns:xlink="http://www.w3.org/1999/xlink" x="0px" y="0px"
	 viewBox="-22 195.9 550 450" style="enable-background:new -22 195.9 550 450;" xml:space="preserve">
<style type="text/css">
	.st0{display:none;}
	.st1{fill:#92D4F6;}
	.st2{fill:#2178BD;}
</style>
<g id="Capa_2" class="st0">
</g>
<g id="Capa_3" class="st0">
</g>
<g id="Capa_4" class="st0">
</g>
<g id="Capa_6" class="st0">
</g>
<g id="Capa_5" class="st0">
</g>
<g id="Capa_7" class="st0">
</g>
<g id="Capa_8" class="st0">
</g>
<g id="Capa_9">
</g>
<g>
	<polygon class="st1" points="86.7,315.4 246.3,223.3 246.3,288.4 143.1,348 	"/>
	<polygon class="st1" points="261.7,223.3 261.7,288.4 364.9,348 421.3,315.4 	"/>
	<polygon class="st1" points="429,328.7 372.6,361.3 372.6,480.4 429,513 	"/>
	<polygon class="st1" points="261.7,553.3 261.7,618.5 421.3,526.4 364.9,493.8 	"/>
	<polygon class="st1" points="86.7,526.4 143.1,493.8 246.3,553.3 246.3,618.5 	"/>
	<polygon class="st1" points="79,328.7 135.4,361.3 135.4,480.4 79,513 	"/>
	<polygon class="st2" points="150.8,370.2 150.8,480.4 246.3,535.6 246.3,425.3 	"/>
	<polygon class="st2" points="158.5,356.9 254,412 349.5,356.9 254,301.8 	"/>
	<polygon class="st2" points="261.7,425.3 261.7,535.6 357.2,480.4 357.2,370.2 	"/>
</g>
</svg>
